SplineFontDB: 3.0
FontName: RoundStyle-BookOblique
FullName: Round Style Book Oblique
FamilyName: Round Style
Weight: Book
Copyright: Copyright (c) 2020-2024 by Wojciech Kalinowski "wmk69" with Reserved Font Name "RoundStyle-BookOblique".\nThis Font Software is licensed under the SIL Open Font License, Version 1.1.
Version: 3.1.0; 2021-05-15
ItalicAngle: -12
UnderlinePosition: -80
UnderlineWidth: 200
Ascent: 1638
Descent: 410
InvalidEm: 0
LayerCount: 2
Layer: 0 1 "Warstwa t+AUIA-a" 1
Layer: 1 1 "Plan pierwszy" 0
XUID: [1021 783 23647091 2952791]
StyleMap: 0x0001
FSType: 0
OS2Version: 3
OS2_WeightWidthSlopeOnly: 0
OS2_UseTypoMetrics: 1
CreationTime: 1260698820
ModificationTime: 1621078966
PfmFamily: 17
TTFWeight: 400
TTFWidth: 5
LineGap: 200
VLineGap: 0
Panose: 2 2 5 3 5 5 8 13 4 4
OS2TypoAscent: 2000
OS2TypoAOffset: 0
OS2TypoDescent: -500
OS2TypoDOffset: 0
OS2TypoLinegap: 200
OS2WinAscent: 2000
OS2WinAOffset: 0
OS2WinDescent: 500
OS2WinDOffset: 0
HheadAscent: 2000
HheadAOffset: 0
HheadDescent: -500
HheadDOffset: 0
OS2SubXSize: 1434
OS2SubYSize: 1331
OS2SubXOff: 0
OS2SubYOff: 287
OS2SupXSize: 1434
OS2SupYSize: 1331
OS2SupXOff: 0
OS2SupYOff: 977
OS2StrikeYSize: 102
OS2StrikeYPos: 512
OS2CapHeight: 1510
OS2XHeight: 1100
OS2Vendor: '    '
OS2CodePages: 20000093.00000000
OS2UnicodeRanges: 8000002f.4000204b.00000000.00000000
Lookup: 258 0 0 "'kern' Horizontal Kerning lookup 0-0" { "'kern' Horizontal Kerning lookup 0-1 subtable" [307,0,4] } ['kern' ('DFLT' <'dflt' > 'grek' <'dflt' > 'latn' <'dflt' > ) ]
MarkAttachClasses: 1
DEI: 91125
KernClass2: 64 50 "'kern' Horizontal Kerning lookup 0-1 subtable"
 94 A M Agrave Aacute Acircumflex Atilde Adieresis Aring Amacron Abreve Aogonek Aringacute uni1E40
 28 B germandbls uni1E02 uni1E9E
 140 C E AE Ccedilla Egrave Eacute Ecircumflex Edieresis Cacute Ccircumflex Cdotaccent Ccaron Emacron Ebreve Edotaccent Eogonek Ecaron OE AEacute

StartChar: .notdef
Encoding: 65536 -1 0
Width: 994
Flags: W
HStem: 0 40<269 743> 1470 40<572 1046>
VStem: 150 694<0 694> 471 694<816 1510>
DStem2: 150 0 260.498 0 0.207912 0.978148<63.8674 1525.62> 734.498 0 844 0 0.207912 0.978148<40.8936 1502.64>
LayerCount: 2
Fore
SplineSet
150 0 m 1,0,-1
 471 1510 l 1,1,-1
 1165 1510 l 1,2,-1
 844 0 l 1,3,-1
 150 0 l 1,0,-1
269 40 m 1,4,-1
 743 40 l 1,5,-1
 1046 1470 l 1,6,-1
 572 1470 l 1,7,-1
 269 40 l 1,4,-1
EndSplineSet
Validated: 1
EndChar

StartChar: exclam
Encoding: 33 33 4
Width: 692
GlyphClass: 2
Flags: W
HStem: -20 264<291.398 448.602> 1510 20G<644 698>
VStem: 236 267<33.5176 188.67>
LayerCount: 2
Fore
SplineSet
671 1530 m 128,-1,1
 725 1530 725 1530 755 1492 c 0,2,3
 776 1464 776 1464 776 1428 c 0,4,5
 776 1414 776 1414 773 1398 c 128,-1,6
 770 1382 770 1382 764 1365 c 2,7,-1
 426 343 l 1,8,-1
 412 343 l 1,9,-1
 508 1365 l 2,10,11
 510 1382 510 1382 513 1398 c 0,12,13
 525 1453 525 1453 571 1491.5 c 128,-1,0
 617 1530 617 1530 671 1530 c 128,-1,1
342 -20 m 128,-1,15
 288 -20 288 -20 258 18 c 0,16,17
 236 46 236 46 236 83 c 0,18,19
 236 97 236 97 240 112 c 0,20,21
 252 167 252 167 298 205.5 c 128,-1,22
 344 244 344 244 398 244 c 128,-1,23
 452 244 452 244 482 206 c 0,24,25
 503 178 503 178 503 142 c 0,26,27
 503 127 503 127 500 112 c 0,28,29
 488 57 488 57 442 18.5 c 128,-1,14
 396 -20 396 -20 342 -20 c 128,-1,15
EndSplineSet
Validated: 1
EndChar

StartChar: quotedbl
Encoding: 34 34 5
Width: 459
GlyphClass: 2
Flags: W
HStem: 1186 364<379 422 618 661>
VStem: 302 120<1186 1306> 379 120<1430 1550> 541 120<1186 1306> 618 120<1430 1550>
DStem2: 302 1186 422 1186 0.207912 0.978148<24.9494 372.055> 541 1186 661 1186 0.207912 0.978148<24.9494 372.055>
LayerCount: 2
Fore
SplineSet
618 1550 m 1,0,-1
 738 1550 l 1,1,-1
 661 1186 l 1,2,-1
 541 1186 l 1,3,-1
 618 1550 l 1,0,-1
379 1550 m 1,4,-1
 499 1550 l 1,5,-1
 422 1186 l 1,6,-1
 302 1186 l 1,7,-1
 379 1550 l 1,4,-1
EndSplineSet
Validated: 1
EndChar

StartChar: numbersign
Encoding: 35 35 6
Width: 1259
GlyphClass: 2
Flags: W
HStem: 514 120<286 505 651 853 999 1218> 862 120<359 579 725 927 1073 1291>
VStem: 453 120<268 388> 657 120<1106 1226> 801 120<270 390> 1005 120<1108 1228>
DStem2: 453 268 573 268 0.207912 0.978148<24.9494 251.436 399.169 607.217 754.949 979.479> 800.575 268 920.575 268 0.207912 0.978148<26.9941 251.524 399.257 607.305 755.038 981.524>
LayerCount: 2
Fore
SplineSet
657 1226 m 1,0,-1
 777 1226 l 1,1,-1
 725 982 l 1,2,-1
 953 982 l 1,3,-1
 1005 1228 l 1,4,-1
 1125 1228 l 1,5,-1
 1073 982 l 1,6,-1
 1317 982 l 1,7,-1
 1291 862 l 1,8,-1
 1047 862 l 1,9,-1
 999 634 l 1,10,-1
 1244 634 l 1,11,-1
 1218 514 l 1,12,-1
 973 514 l 1,13,-1
 921 270 l 1,14,-1
 801 270 l 1,15,-1
 853 514 l 1,16,-1
 625 514 l 1,17,-1
 573 268 l 1,18,-1
 453 268 l 1,19,-1
 505 514 l 1,20,-1
 260 514 l 1,21,-1
 286 634 l 1,22,-1
 531 634 l 1,23,-1
 579 862 l 1,24,-1
 333 862 l 1,25,-1
 359 982 l 1,26,-1
 605 982 l 1,27,-1
 657 1226 l 1,0,-1
879 634 m 1,28,-1
 927 862 l 1,29,-1
 699 862 l 1,30,-1
 651 634 l 1,31,-1
 879 634 l 1,28,-1
EndSplineSet
Validated: 1
EndChar

StartChar: dollar
Encoding: 36 36 7
Width: 1269
GlyphClass: 2
Flags: W
HStem: -20 80<468.234 610> 1448 81<1019 1081.39>
VStem: 541 177<1104.44 1312.83> 593 80<-100 -20> 956 80<1530 1610> 1102 203<390.069 677.304>
DStem2: 593 -100 673 -100 0.207912 0.978148<16.6329 81.7863 187.26 950.017 1166.59 1579.43 1681.97 1748.1> 908 1003 867 813 0.885212 -0.465188<52.092 308.406>
LayerCount: 2
Fore
SplineSet
610 -20 m 1,0,1
 368 -20 368 -20 258 112 c 0,2,3
 185 200 185 200 155 354 c 1,4,-1
 415 565 l 1,5,-1
 421 559 l 1,6,7
 380 472 380 472 362 381 c 0,8,9
 353 338 353 338 353 301 c 0,10,11
 353 230 353 230 385 180 c 0,12,13
 460 60 460 60 627 60 c 1,14,-1
 795 851 l 1,15,-1
 749 875 l 2,16,17
 541 984 541 984 541 1150 c 0,18,19
 541 1179 541 1179 547 1210 c 0,20,21
 577 1351 577 1351 704 1444 c 0,22,23
 804 1517 804 1517 939 1528 c 1,24,-1
 956 1610 l 1,25,-1
 1036 1610 l 1,26,-1
 1019 1529 l 1,27,28
 1161 1521 1161 1521 1227 1438 c 0,29,30
 1264 1391 1264 1391 1278 1322 c 1,31,-1
 1091 1169 l 1,32,-1
 1086 1175 l 1,33,34
 1103 1207 1103 1207 1110 1242 c 0,35,36
 1117 1273 1117 1273 1117 1301 c 0,37,38
 1117 1333 1117 1333 1108 1361 c 0,39,40
 1084 1438 1084 1438 1002 1448 c 1,41,-1
 908 1003 l 1,42,-1
 1077 916 l 2,43,44
 1305 798 1305 798 1305 591 c 0,45,46
 1305 547 1305 547 1295 498 c 0,47,48
 1250 287 1250 287 1051 135 c 0,49,50
 882 7 882 7 691 -15 c 1,51,-1
 673 -100 l 1,52,-1
 593 -100 l 1,53,-1
 610 -20 l 1,0,1
836 1041 m 1,54,-1
 921 1445 l 1,55,56
 860 1433 860 1433 810 1395 c 0,57,58
 738 1339 738 1339 722 1255 c 0,59,60
 718 1236 718 1236 718 1217 c 0,61,62
 718 1113 718 1113 836 1041 c 1,54,-1
867 813 m 1,63,-1
 708 67 l 1,64,65
 838 90 838 90 940 189 c 0,66,67
 1044 291 1044 291 1088 446 c 0,68,69
 1102 497 1102 497 1102 541 c 0,70,71
 1102 689 1102 689 945 772 c 2,72,-1
 867 813 l 1,63,-1
EndSplineSet
Validated: 1
EndChar

StartChar: percent
Encoding: 37 37 8
Width: 1593
GlyphClass: 2
Flags: W
HStem: -20 60<1058.56 1229.68> 554 60<1158.37 1327.86> 896 60<585.635 755.225> 1470 60<683.914 853.17>
VStem: 400 133<996.697 1313.18> 874 133<82.619 397.178> 907 133<1112.82 1427.38> 1381 133<196.822 513.303>
DStem2: 375 45 497 -20 0.576446 0.817135<17.2126 1816.98>
LayerCount: 2
Fore
SplineSet
1140 40 m 0,0,1
 1214 40 1214 40 1281.5 114.5 c 128,-1,2
 1349 189 1349 189 1372 297 c 0,3,4
 1381 339 1381 339 1381 375 c 0,5,6
 1380 439 1380 439 1360 481 c 0,7,8
 1324 554 1324 554 1247 554 c 0,9,10
 1173 554 1173 554 1106 479.5 c 128,-1,11
 1039 405 1039 405 1016 297 c 0,12,13
 1007 255 1007 255 1007 218 c 0,14,15
 1007 155 1007 155 1027 113 c 0,16,17
 1063 40 1063 40 1140 40 c 0,0,1
1127 -20 m 0,18,19
 998 -20 998 -20 926 72 c 0,20,21
 875 138 875 138 874 226 c 0,22,23
 874 260 874 260 882 297 c 0,24,25
 910 429 910 429 1021 521.5 c 128,-1,26
 1132 614 1132 614 1262 614 c 128,-1,27
 1392 614 1392 614 1463 522 c 0,28,29
 1514 456 1514 456 1514 369 c 0,30,31
 1514 335 1514 335 1506 297 c 0,32,33
 1478 165 1478 165 1367.5 72.5 c 128,-1,34
 1257 -20 1257 -20 1127 -20 c 0,18,19
773 1470 m 0,35,36
 699 1470 699 1470 632 1395.5 c 128,-1,37
 565 1321 565 1321 542 1213 c 0,38,39
 533 1171 533 1171 533 1134 c 0,40,41
 533 1071 533 1071 553 1029 c 0,42,43
 589 956 589 956 666 956 c 0,44,45
 740 956 740 956 807.5 1030.5 c 128,-1,46
 875 1105 875 1105 898 1213 c 0,47,48
 907 1255 907 1255 907 1291 c 0,49,50
 906 1355 906 1355 886 1397 c 0,51,52
 850 1470 850 1470 773 1470 c 0,35,36
787 1530 m 0,53,54
 916 1530 916 1530 988 1438 c 0,55,56
 1039 1372 1039 1372 1040 1284 c 0,57,58
 1040 1250 1040 1250 1032 1213 c 0,59,60
 1004 1081 1004 1081 893 988.5 c 128,-1,61
 782 896 782 896 652 896 c 128,-1,62
 522 896 522 896 451 988 c 0,63,64
 400 1054 400 1054 400 1141 c 0,65,66
 400 1175 400 1175 408 1213 c 0,67,68
 436 1345 436 1345 546.5 1437.5 c 128,-1,69
 657 1530 657 1530 787 1530 c 0,53,54
497 -20 m 1,70,-1
 375 45 l 1,71,-1
 1422 1530 l 1,72,-1
 1546 1467 l 1,73,-1
 497 -20 l 1,70,-1
EndSplineSet
Validated: 1
EndChar

StartChar: ampersand
Encoding: 38 38 9
Width: 1904
GlyphClass: 2
Flags: W
HStem: -20 80<594.24 978.073> 0 21G<1508.75 1720> 980 80<888.896 1060> 1080 20G<1633 1790> 1460 70<950.211 1153.55>
VStem: 245 216<209.372 603.156> 665 170<1107.01 1358.14> 1749 196<772.354 1030.36>
DStem2: 1231 1060 1060 980 0.418895 -0.908035<0 715.426 787.443 1082.74>
LayerCount: 2
Fore
SplineSet
1720 0 m 1,0,-1
 1518 0 l 1,1,-1
 1394 268 l 1,2,3
 1291 178 1291 178 1166 104 c 0,4,5
 957 -20 957 -20 725 -20 c 0,6,7
 460 -20 460 -20 334 140 c 0,8,9
 245 253 245 253 245 396 c 0,10,11
 245 448 245 448 257 504 c 0,12,13
 301 711 301 711 456 848 c 0,14,15
 602 977 602 977 836 1018 c 1,16,17
 742 1043 742 1043 697 1107 c 0,18,19
 665 1153 665 1153 665 1214 c 0,20,21
 665 1240 665 1240 671 1269 c 0,22,23
 692 1369 692 1369 794 1448 c 0,24,25
 901 1530 901 1530 1070 1530 c 16,26,27
 1209 1530 1209 1530 1264 1464 c 0,28,29
 1296 1426 1296 1426 1307 1374 c 1,30,-1
 1152 1248 l 1,31,-1
 1147 1254 l 1,32,33
 1164 1286 1164 1286 1171 1321 c 0,34,35
 1175 1341 1175 1341 1175 1358 c 0,36,37
 1175 1382 1175 1382 1167 1403 c 0,38,39
 1145 1460 1145 1460 1072 1460 c 0,40,41
 1000 1460 1000 1460 945 1423 c 0,42,43
 863 1368 863 1368 842 1269 c 0,44,45
 835 1235 835 1235 835 1207 c 0,46,47
 835 1151 835 1151 864 1121 c 0,48,49
 920 1060 920 1060 1028 1060 c 2,50,-1
 1231 1060 l 1,51,-1
 1720 0 l 1,0,-1
1635 1100 m 1,52,53
 1945 1100 1945 1100 1945 923 c 0,54,55
 1945 896 1945 896 1938 866 c 0,56,57
 1888 649 1888 649 1559 459 c 1,58,-1
 1554 467 l 1,59,60
 1705 661 1705 661 1741 834 c 0,61,62
 1749 871 1749 871 1749 904 c 0,63,64
 1749 1030 1749 1030 1633 1090 c 1,65,-1
 1635 1100 l 1,52,53
1060 980 m 1,66,67
 792 980 792 980 626 801 c 0,68,69
 514 681 514 681 479 512 c 0,70,71
 461 430 461 430 461 362 c 0,72,73
 461 271 461 271 493 207 c 0,74,75
 566 60 566 60 770 60 c 0,76,77
 942 60 942 60 1123 172 c 0,78,79
 1246 248 1246 248 1356 343 c 1,80,-1
 1060 980 l 1,66,67
EndSplineSet
Validated: 1
EndChar

StartChar: quotesingle
Encoding: 39 39 10
Width: 220
GlyphClass: 2
Flags: W
HStem: 1186 364<379 422>
VStem: 302 120<1186 1306> 379 120<1430 1550>
DStem2: 302 1186 422 1186 0.207912 0.978148<24.9494 372.055>
LayerCount: 2
Fore
SplineSet
379 1550 m 1,0,-1
 499 1550 l 1,1,-1
 422 1186 l 1,2,-1
 302 1186 l 1,3,-1
 379 1550 l 1,0,-1
EndSplineSet
Validated: 1
EndChar

StartChar: parenleft
Encoding: 40 40 11
Width: 807
GlyphClass: 2
Flags: W
VStem: 323 185<48.6439 716.895>
LayerCount: 2
Fore
SplineSet
904 1760 m 1,0,-1
 1031 1760 l 1,1,2
 684 1340 684 1340 560 755 c 0,3,4
 508 510 508 510 508 287 c 0,5,6
 508 -9 508 -9 604 -250 c 1,7,-1
 477 -250 l 1,8,9
 323 63 323 63 323 407 c 0,10,11
 323 581 323 581 360 755 c 0,12,13
 474 1292 474 1292 904 1760 c 1,0,-1
EndSplineSet
Validated: 1
EndChar

StartChar: parenright
Encoding: 41 41 12
Width: 807
GlyphClass: 2
Flags: W
VStem: 620 185<793.007 1461.36>
LayerCount: 2
Fore
SplineSet
524 1760 m 1,0,-1
 651 1760 l 1,1,2
 805 1447 805 1447 805 1103 c 0,3,4
 805 928 805 928 768 755 c 0,5,6
 654 218 654 218 224 -250 c 1,7,-1
 97 -250 l 1,8,9
 444 171 444 171 568 755 c 0,10,11
 620 1000 620 1000 620 1223 c 0,12,13
 620 1519 620 1519 524 1760 c 1,0,-1
EndSplineSet
Validated: 1
EndChar

StartChar: asterisk
Encoding: 42 42 13
Width: 728
GlyphClass: 2
Flags: W
HStem: 894 656
VStem: 494 120<894 1014> 633 120<1430 1550>
DStem2: 286 1110 324 1006 0.889353 0.457222<0 231.332 472.288 703.62> 416 1438 334 1334 0.835133 -0.550048<0 192.302 392.734 585.036> 494 894 614 894 0.207912 0.978148<24.9494 229.085 466.637 670.565>
LayerCount: 2
Fore
SplineSet
633 1550 m 1,0,-1
 753 1550 l 1,1,-1
 706 1326 l 1,2,-1
 924 1438 l 1,3,-1
 962 1334 l 1,4,-1
 744 1222 l 1,5,-1
 914 1110 l 1,6,-1
 832 1006 l 1,7,-1
 662 1118 l 1,8,-1
 614 894 l 1,9,-1
 494 894 l 1,10,-1
 542 1118 l 1,11,-1
 324 1006 l 1,12,-1
 286 1110 l 1,13,-1
 504 1222 l 1,14,-1
 334 1334 l 1,15,-1
 416 1438 l 1,16,-1
 586 1326 l 1,17,-1
 633 1550 l 1,0,-1
EndSplineSet
Validated: 1
EndChar

StartChar: plus
Encoding: 43 43 14
Width: 1133
GlyphClass: 2
Flags: W
HStem: 680 150<326 637 818 1128>
VStem: 564 150<338 488> 741 150<1022 1172>
DStem2: 564 338 714 338 0.207912 0.978148<31.1868 349.704 534.058 852.575>
LayerCount: 2
Fore
SplineSet
741 1172 m 1,0,-1
 891 1172 l 1,1,-1
 818 830 l 1,2,-1
 1159 830 l 1,3,-1
 1128 680 l 1,4,-1
 787 680 l 1,5,-1
 714 338 l 1,6,-1
 564 338 l 1,7,-1
 637 680 l 1,8,-1
 295 680 l 1,9,-1
 326 830 l 1,10,-1
 668 830 l 1,11,-1
 741 1172 l 1,0,-1
EndSplineSet
Validated: 1
EndChar

StartChar: comma
Encoding: 44 44 15
Width: 368
GlyphClass: 2
Flags: W
HStem: -292 572
VStem: 146 188<-53.1848 124.979>
LayerCount: 2
Fore
SplineSet
255 280 m 1,0,1
 334 202 334 202 334 103 c 0,2,3
 334 75 334 75 328 45 c 0,4,5
 281 -177 281 -177 -22 -292 c 1,6,-1
 -20 -282 l 1,7,8
 113 -162 113 -162 142 -24 c 0,9,10
 146 -3 146 -3 146 16 c 0,11,12
 146 88 146 88 85 140 c 1,13,-1
 255 280 l 1,0,1
EndSplineSet
Validated: 1
EndChar

StartChar: hyphen
Encoding: 45 45 16
Width: 1133
GlyphClass: 2
Flags: W
HStem: 680 150<326 1128>
LayerCount: 2
Fore
SplineSet
326 830 m 1,0,-1
 1159 830 l 1,1,-1
 1128 680 l 1,2,-1
 295 680 l 1,3,-1
 326 830 l 1,0,-1
EndSplineSet
Validated: 1
EndChar

StartChar: period
Encoding: 46 46 17
Width: 360
GlyphClass: 2
Flags: W
HStem: -20 264<125.398 282.602>
VStem: 70 267<33.5176 188.67>
LayerCount: 2
Fore
SplineSet
176 -20 m 128,-1,1
 122 -20 122 -20 92 18 c 0,2,3
 70 46 70 46 70 83 c 0,4,5
 70 97 70 97 74 112 c 0,6,7
 86 167 86 167 132 205.5 c 128,-1,8
 178 244 178 244 232 244 c 128,-1,9
 286 244 286 244 316 206 c 0,10,11
 337 178 337 178 337 142 c 0,12,13
 337 127 337 127 334 112 c 0,14,15
 322 57 322 57 276 18.5 c 128,-1,0
 230 -20 230 -20 176 -20 c 128,-1,1
EndSplineSet
Validated: 1
EndChar

StartChar: slash
Encoding: 47 47 18
Width: 1068
GlyphClass: 2
Flags: W
DStem2: -13 -109 120 -180 0.580211 0.814466<19.341 2208.47>
LayerCount: 2
Fore
SplineSet
120 -180 m 1,0,-1
 -13 -109 l 1,1,-1
 1268 1690 l 1,2,-1
 1403 1621 l 1,3,-1
 120 -180 l 1,0,-1
EndSplineSet
Validated: 1
EndChar

StartChar: zero
Encoding: 48 48 19
Width: 1706
GlyphClass: 2
Flags: W
HStem: -20 80<683.505 1067.89> 1450 80<959.531 1343.96>
VStem: 238 220<317.615 837.84> 1569 220<672.16 1192.39>
LayerCount: 2
Fore
SplineSet
866 60 m 128,-1,1
 1116 60 1116 60 1304 270 c 0,2,3
 1486 473 1486 473 1546 755 c 0,4,5
 1569 864 1569 864 1569 961 c 0,6,7
 1569 1115 1569 1115 1511 1240 c 0,8,9
 1412 1450 1412 1450 1161.5 1450 c 128,-1,10
 911 1450 911 1450 723 1240 c 0,11,12
 541 1037 541 1037 481 755 c 0,13,14
 458 646 458 646 458 549 c 0,15,16
 458 395 458 395 516 270 c 0,17,0
 616 60 616 60 866 60 c 128,-1,1
849 -20 m 128,-1,19
 498 -20 498 -20 335 218 c 0,20,21
 238 361 238 361 238 555 c 0,22,23
 238 649 238 649 260 755 c 0,24,25
 330 1080 330 1080 564 1292 c 0,26,27
 828 1530 828 1530 1178.5 1530 c 128,-1,28
 1529 1530 1529 1530 1692 1292 c 0,29,30
 1789 1149 1789 1149 1789 955 c 0,31,32
 1788 861 1788 861 1766 755 c 0,33,34
 1696 430 1696 430 1463 218 c 0,35,18
 1200 -20 1200 -20 849 -20 c 128,-1,19
EndSplineSet
Validated: 1
EndChar

StartChar: one
Encoding: 49 49 20
Width: 700
GlyphClass: 2
Flags: W
HStem: 0 21G<250 454.247>
VStem: 250 200<0 200>
DStem2: 250 0 450 0 0.207912 0.978148<41.5823 1265.36>
LayerCount: 2
Fore
SplineSet
250 0 m 1,0,-1
 499 1170 l 2,1,2
 507 1208 507 1208 507 1240 c 0,3,4
 507 1380 507 1380 343 1380 c 1,5,-1
 345 1390 l 1,6,-1
 777 1540 l 1,7,-1
 450 0 l 1,8,-1
 250 0 l 1,0,-1
EndSplineSet
Validated: 1
EndChar

StartChar: two
Encoding: 50 50 21
Width: 1324
GlyphClass: 2
Flags: W
HStem: 0 100<141 1136.91> 1450 80<793.344 1108.44>
VStem: 1203 210<1020.08 1346.22> 1215 10<231.387 240>
LayerCount: 2
Fore
SplineSet
987 1530 m 0,0,1
 1207 1530 1207 1530 1313 1422 c 0,2,3
 1413 1319 1413 1319 1413 1174 c 0,4,5
 1413 1125 1413 1125 1402 1072 c 0,6,7
 1342 790 1342 790 1005 617 c 2,8,-1
 694 457 l 2,9,10
 348 279 348 279 213 174 c 1,11,-1
 208 180 l 17,12,13
 362 357 362 357 663 562 c 2,14,-1
 915 733 l 2,15,16
 1143 888 1143 888 1193 1126 c 0,17,18
 1203 1174 1203 1174 1203 1215 c 0,19,20
 1203 1283 1203 1283 1176 1336 c 0,21,22
 1117 1450 1117 1450 963 1450 c 0,23,24
 804 1450 804 1450 681 1331 c 0,25,26
 611 1263 611 1263 590 1169 c 0,27,28
 579 1118 579 1118 579 1068 c 0,29,30
 579 1038 579 1038 583 1009 c 1,31,-1
 576 1001 l 1,32,-1
 406 1212 l 1,33,34
 494 1315 494 1315 621 1408 c 0,35,36
 787 1530 787 1530 987 1530 c 0,0,1
120 0 m 1,37,-1
 141 100 l 1,38,-1
 1005 100 l 10,39,40
 1138 100 1138 100 1215 240 c 1,41,-1
 1225 240 l 1,42,-1
 1174 0 l 1,43,-1
 120 0 l 1,37,-1
EndSplineSet
Validated: 1
EndChar

StartChar: three
Encoding: 51 51 22
Width: 1367
GlyphClass: 2
Flags: W
HStem: -20 80<487.966 823.025> 1430 80<736.492 1104>
VStem: 642 10<1290 1298.61> 682 213<936 1149> 1122 216<410.939 793.522>
DStem2: 682 936 895 936 0.650791 0.759257<138.619 649.707>
LayerCount: 2
Fore
SplineSet
630 -20 m 0,0,1
 435 -20 435 -20 316 102 c 0,2,3
 228 195 228 195 183 298 c 1,4,-1
 443 509 l 1,5,-1
 447 501 l 1,6,7
 403 422 403 422 386 341 c 0,8,9
 380 311 380 311 380 283 c 0,10,11
 380 225 380 225 408 179 c 0,12,13
 481 60 481 60 650 60 c 0,14,15
 832 60 832 60 962 208 c 0,16,17
 1066 326 1066 326 1106 512 c 0,18,19
 1122 587 1122 587 1122 651 c 0,20,21
 1122 734 1122 734 1095 798 c 0,22,23
 1054 895 1054 895 945 945 c 1,24,-1
 952 953 l 1,25,26
 1172 953 1172 953 1264 838 c 0,27,28
 1338 746 1338 746 1338 621 c 0,29,30
 1338 570 1338 570 1326 514 c 0,31,32
 1280 297 1280 297 1090 138 c 0,33,34
 902 -20 902 -20 630 -20 c 0,0,1
1387 1510 m 1,35,-1
 895 936 l 1,36,-1
 682 936 l 1,37,-1
 1104 1430 l 1,38,-1
 862 1430 l 2,39,40
 729 1430 729 1430 652 1290 c 1,41,-1
 642 1290 l 1,42,-1
 689 1510 l 1,43,-1
 1387 1510 l 1,35,-1
EndSplineSet
Validated: 1
EndChar

StartChar: four
Encoding: 52 52 23
Width: 1424
GlyphClass: 2
Flags: W
HStem: 0 21G<974 1178.25> 257 10<954.109 966> 1080 20G<1203.75 1408> 1490 20G<726.5 1176>
VStem: 296 224<516.607 846.224> 974 200<0 200> 1208 200<900 1100>
DStem2: 974 0 1174 0 0.207912 0.978148<41.5823 1124.61>
LayerCount: 2
Fore
SplineSet
1063 1510 m 1,0,-1
 1176 1510 l 1,1,2
 602 1091 602 1091 529 750 c 0,3,4
 520 709 520 709 520 671 c 0,5,6
 520 398 520 398 968 267 c 1,7,-1
 966 257 l 1,8,9
 296 257 296 257 296 639 c 0,10,11
 296 691 296 691 309 750 c 0,12,13
 390 1130 390 1130 1063 1510 c 1,0,-1
1174 0 m 1,14,-1
 974 0 l 1,15,-1
 1208 1100 l 1,16,-1
 1408 1100 l 1,17,-1
 1174 0 l 1,14,-1
EndSplineSet
Validated: 1
EndChar

StartChar: five
Encoding: 53 53 24
Width: 1367
GlyphClass: 2
Flags: W
HStem: -20 80<488.204 823.025> 953 45<789.868 963.224> 1430 80<847 1248.57>
VStem: 1122 218<413.524 826.388> 1290 10<1290 1311.02>
DStem2: 442 897 642 897 0.36061 0.932717<72.122 643.185>
LayerCount: 2
Fore
SplineSet
630 -20 m 0,0,1
 436 -20 436 -20 316 102 c 0,2,3
 230 191 230 191 183 298 c 1,4,-1
 443 509 l 1,5,-1
 447 501 l 1,6,7
 403 422 403 422 386 341 c 0,8,9
 380 311 380 311 380 283 c 0,10,11
 380 225 380 225 408 179 c 0,12,13
 481 60 481 60 650 60 c 0,14,15
 832 60 832 60 962 208 c 0,16,17
 1066 326 1066 326 1106 512 c 0,18,19
 1122 587 1122 587 1122 651 c 0,20,21
 1122 734 1122 734 1095 798 c 0,22,23
 1029 953 1029 953 844 953 c 0,24,25
 783 953 783 953 708 936 c 1,26,-1
 710 946 l 17,27,28
 823 998 823 998 953 998 c 0,29,30
 1192 998 1192 998 1286 844 c 0,31,32
 1340 755 1340 755 1340 639 c 0,33,34
 1340 579 1340 579 1326 512 c 0,35,36
 1280 297 1280 297 1090 138 c 0,37,38
 902 -20 902 -20 630 -20 c 0,0,1
679 1510 m 1,39,-1
 1347 1510 l 1,40,-1
 1300 1290 l 1,41,-1
 1290 1290 l 1,42,43
 1273 1430 1273 1430 1140 1430 c 2,44,-1
 847 1430 l 1,45,-1
 642 897 l 1,46,-1
 442 897 l 1,47,-1
 679 1510 l 1,39,-1
EndSplineSet
Validated: 1
EndChar

StartChar: six
Encoding: 54 54 25
Width: 1466
GlyphClass: 2
Flags: W
HStem: -20 80<599.571 921.345> 927 63<912.562 1088.95> 1520 10<1475.36 1487>
VStem: 253 215<211.901 652.989> 1216 223<413.611 809.243>
LayerCount: 2
Fore
SplineSet
732 -20 m 0,0,1
 482 -20 482 -20 346 139 c 0,2,3
 253 248 253 248 253 415 c 0,4,5
 253 485 253 485 270 566 c 0,6,7
 349 936 349 936 690 1224 c 0,8,9
 1052 1530 1052 1530 1489 1530 c 1,10,-1
 1487 1520 l 1,11,12
 1097 1417 1097 1417 852 1193 c 0,13,14
 569 936 569 936 491 570 c 0,15,16
 468 462 468 462 468 377 c 0,17,18
 468 277 468 277 500 211 c 0,19,20
 572 60 572 60 751 60 c 0,21,22
 929 60 929 60 1057 205 c 0,23,24
 1166 329 1166 329 1202 500 c 0,25,26
 1216 566 1216 566 1216 625 c 0,27,28
 1216 741 1216 741 1161 828 c 0,29,30
 1097 927 1097 927 952 927 c 0,31,32
 894 927 894 927 844 911 c 1,33,-1
 842 920 l 1,34,35
 944 990 944 990 1060 990 c 0,36,37
 1245 990 1245 990 1347 880 c 0,38,39
 1439 781 1439 781 1439 634 c 0,40,41
 1439 577 1439 577 1425 514 c 0,42,43
 1378 295 1378 295 1189 138 c 0,44,45
 999 -20 999 -20 732 -20 c 0,0,1
EndSplineSet
Validated: 1
EndChar

StartChar: seven
Encoding: 55 55 26
Width: 1129
GlyphClass: 2
Flags: W
HStem: 0 21G<224 756> 1430 80<418.492 950.249>
VStem: 324 10<1290 1298.61> 1047 229<1011.6 1350.77>
LayerCount: 2
Fore
SplineSet
224 0 m 1,0,1
 935 649 935 649 1035 1111 c 0,2,3
 1047 1166 1047 1166 1047 1211 c 0,4,5
 1047 1430 1047 1430 774 1430 c 2,6,-1
 544 1430 l 2,7,8
 411 1430 411 1430 334 1290 c 1,9,-1
 324 1290 l 1,10,-1
 371 1510 l 1,11,-1
 801 1510 l 2,12,13
 1276 1510 1276 1510 1276 1211 c 0,14,15
 1276 1165 1276 1165 1265 1111 c 0,16,17
 1175 689 1175 689 337 0 c 1,18,-1
 224 0 l 1,0,1
EndSplineSet
Validated: 19457
EndChar

StartChar: eight
Encoding: 56 56 27
Width: 1466
GlyphClass: 2
Flags: W
HStem: -20 80<568.2 915.701> 1059 9<1084 1089.63> 1460 70<938.631 1159.2>
VStem: 245 160<217.581 609.038> 662 173<1101.62 1349.95> 1212 128<1176.4 1402.81> 1222 216<414.116 816.785>
LayerCount: 2
Fore
SplineSet
729 -20 m 128,-1,1
 457 -20 457 -20 335 138 c 16,2,3
 245 255 245 255 245 398 c 0,4,5
 245 449 245 449 257 504 c 0,6,7
 299 701 299 701 439.5 825 c 128,-1,8
 580 949 580 949 770 967 c 1,9,-1
 769 957 l 1,10,11
 640 904 640 904 554 799 c 0,12,13
 454 675 454 675 418 508 c 0,14,15
 405 448 405 448 405 394 c 0,16,17
 405 291 405 291 452 211 c 0,18,19
 540 60 540 60 747 60 c 0,20,21
 929 60 929 60 1066 217 c 0,22,23
 1166 331 1166 331 1204 509 c 0,24,25
 1222 593 1222 593 1222 661 c 0,26,27
 1222 748 1222 748 1192 808 c 0,28,29
 1127 937 1127 937 937 977 c 0,30,31
 749 1017 749 1017 695 1097 c 0,32,33
 662 1146 662 1146 662 1207 c 0,34,35
 662 1233 662 1233 668 1260 c 0,36,37
 693 1377 693 1377 819 1463 c 0,38,39
 917 1530 917 1530 1058 1530 c 0,40,41
 1195 1530 1195 1530 1269 1463 c 0,42,43
 1340 1399 1340 1399 1340 1312 c 0,44,45
 1340 1287 1340 1287 1334 1260 c 0,46,47
 1316 1177 1316 1177 1235 1117 c 0,48,49
 1178 1074 1178 1074 1087 1059 c 1,50,-1
 1084 1068 l 1,51,52
 1175 1125 1175 1125 1206 1260 c 0,53,54
 1212 1286 1212 1286 1212 1309 c 0,55,56
 1212 1366 1212 1366 1181 1404 c 0,57,58
 1136 1460 1136 1460 1053 1460 c 0,59,60
 975 1460 975 1460 918 1410 c 0,61,62
 862 1361 862 1361 840 1262 c 0,63,64
 835 1239 835 1239 835 1218 c 0,65,66
 835 1161 835 1161 866 1117 c 0,67,68
 910 1053 910 1053 1092 1018 c 0,69,70
 1293 979 1293 979 1380 841 c 0,71,72
 1438 749 1438 749 1438 631 c 0,73,74
 1438 575 1438 575 1425 512 c 0,75,76
 1379 297 1379 297 1189 138 c 0,77,0
 1001 -20 1001 -20 729 -20 c 128,-1,1
EndSplineSet
Validated: 1
EndChar

StartChar: nine
Encoding: 57 57 28
Width: 1466
GlyphClass: 2
Flags: W
HStem: -20 10<300 311.638> 520 63<698.052 874.438> 1450 80<865.889 1187.59>
VStem: 348 223<700.757 1096.39> 1319 215<857.011 1296.64>
LayerCount: 2
Fore
SplineSet
298 -20 m 1,0,-1
 300 -10 l 1,1,2
 690 93 690 93 935 317 c 0,3,4
 1218 574 1218 574 1296 940 c 0,5,6
 1319 1048 1319 1048 1319 1133 c 0,7,8
 1319 1233 1319 1233 1287 1299 c 0,9,10
 1215 1450 1215 1450 1036 1450 c 0,11,12
 858 1450 858 1450 730 1305 c 0,13,14
 621 1181 621 1181 585 1010 c 0,15,16
 571 944 571 944 571 885 c 0,17,18
 571 769 571 769 626 682 c 0,19,20
 690 583 690 583 835 583 c 0,21,22
 893 583 893 583 943 599 c 1,23,-1
 945 590 l 1,24,25
 843 520 843 520 727 520 c 0,26,27
 542 520 542 520 440 630 c 0,28,29
 348 729 348 729 348 876 c 0,30,31
 348 933 348 933 362 996 c 0,32,33
 409 1215 409 1215 598 1372 c 0,34,35
 789 1530 789 1530 1055 1530 c 0,36,37
 1306 1530 1306 1530 1440 1371 c 0,38,39
 1534 1260 1534 1260 1534 1095 c 0,40,41
 1534 1025 1534 1025 1517 944 c 0,42,43
 1438 574 1438 574 1097 286 c 0,44,45
 735 -20 735 -20 298 -20 c 1,0,-1
EndSplineSet
Validated: 1
EndChar

StartChar: colon
Encoding: 58 58 29
Width: 362
GlyphClass: 2
Flags: W
HStem: -20 264<127.398 284.602> 623 264<261.398 418.602>
VStem: 72 267<33.5176 188.67> 206 267<676.518 831.67>
LayerCount: 2
Fore
SplineSet
312 623 m 128,-1,1
 258 623 258 623 228 661 c 0,2,3
 206 689 206 689 206 726 c 0,4,5
 206 740 206 740 210 755 c 0,6,7
 222 810 222 810 268 848.5 c 128,-1,8
 314 887 314 887 368 887 c 128,-1,9
 422 887 422 887 452 849 c 0,10,11
 473 821 473 821 473 785 c 0,12,13
 473 767 473 767 470 755 c 0,14,15
 458 700 458 700 412 661.5 c 128,-1,0
 366 623 366 623 312 623 c 128,-1,1
178 -20 m 128,-1,17
 124 -20 124 -20 94 18 c 0,18,19
 72 46 72 46 72 83 c 0,20,21
 72 97 72 97 76 112 c 0,22,23
 88 167 88 167 134 205.5 c 128,-1,24
 180 244 180 244 234 244 c 128,-1,25
 288 244 288 244 318 206 c 0,26,27
 339 178 339 178 339 142 c 0,28,29
 339 124 339 124 336 112 c 0,30,31
 324 57 324 57 278 18.5 c 128,-1,16
 232 -20 232 -20 178 -20 c 128,-1,17
EndSplineSet
Validated: 1
EndChar

StartChar: semicolon
Encoding: 59 59 30
Width: 374
GlyphClass: 2
Flags: W
HStem: 623 264<276.398 433.602>
VStem: 146 188<-53.1848 124.979> 221 267<676.518 831.67>
LayerCount: 2
Fore
SplineSet
327 623 m 128,-1,1
 273 623 273 623 243 661 c 0,2,3
 221 689 221 689 221 726 c 0,4,5
 221 740 221 740 225 755 c 0,6,7
 237 810 237 810 283 848.5 c 128,-1,8
 329 887 329 887 383 887 c 128,-1,9
 437 887 437 887 467 849 c 0,10,11
 488 821 488 821 488 785 c 0,12,13
 488 767 488 767 485 755 c 0,14,15
 473 700 473 700 427 661.5 c 128,-1,0
 381 623 381 623 327 623 c 128,-1,1
255 280 m 1,16,17
 334 202 334 202 334 103 c 0,18,19
 334 75 334 75 328 45 c 0,20,21
 281 -177 281 -177 -22 -292 c 1,22,-1
 -20 -282 l 1,23,24
 113 -162 113 -162 142 -24 c 0,25,26
 146 -3 146 -3 146 16 c 0,27,28
 146 88 146 88 85 140 c 1,29,-1
 255 280 l 1,16,17
EndSplineSet
Validated: 1
EndChar

StartChar: less
Encoding: 60 60 31
Width: 1145
GlyphClass: 2
Flags: W
DStem2: 427 790 295 680 0.821147 -0.570717<0 713.082> 326 830 427 790 0.889532 0.456872<71.5679 936.515>
LayerCount: 2
Fore
SplineSet
326 830 m 1,0,-1
 1171 1264 l 1,1,-1
 1197 1184 l 1,2,-1
 427 790 l 1,3,-1
 1024 374 l 1,4,-1
 918 247 l 1,5,-1
 295 680 l 1,6,-1
 326 830 l 1,0,-1
EndSplineSet
Validated: 1
EndChar

StartChar: equal
Encoding: 61 61 32
Width: 1133
GlyphClass: 2
Flags: W
HStem: 500 150<288 1089> 860 150<365 1166>
LayerCount: 2
Fore
SplineSet
288 650 m 1,0,-1
 1121 650 l 1,1,-1
 1089 500 l 1,2,-1
 256 500 l 1,3,-1
 288 650 l 1,0,-1
365 1010 m 1,4,-1
 1198 1010 l 1,5,-1
 1166 860 l 1,6,-1
 333 860 l 1,7,-1
 365 1010 l 1,4,-1
EndSplineSet
Validated: 1
EndChar

StartChar: greater
Encoding: 62 62 33
Width: 1145
GlyphClass: 2
Flags: W
DStem2: 269 326 295 246 0.889532 0.456872<0 864.948> 548 1263 441 1136 0.821147 -0.570717<0 713.082>
LayerCount: 2
Fore
SplineSet
1140 680 m 1,0,-1
 295 246 l 1,1,-1
 269 326 l 1,2,-1
 1039 720 l 1,3,-1
 441 1136 l 1,4,-1
 548 1263 l 1,5,-1
 1171 830 l 1,6,-1
 1140 680 l 1,0,-1
EndSplineSet
Validated: 1
EndChar

StartChar: question
Encoding: 63 63 34
Width: 1321
GlyphClass: 2
Flags: W
HStem: -20 264<573.398 730.602> 1450 80<791.154 1092.97>
VStem: 518 267<33.5176 188.67> 681 22<329.444 359.859> 1195 217<990.195 1352.62>
LayerCount: 2
Fore
SplineSet
989 1530 m 0,0,1
 1210 1530 1210 1530 1315 1422 c 0,2,3
 1412 1323 1412 1323 1412 1183 c 0,4,5
 1412 1136 1412 1136 1401 1084 c 0,6,7
 1350 845 1350 845 1071 671 c 2,8,-1
 928 582 l 2,9,10
 731 459 731 459 703 327 c 1,11,-1
 693 327 l 1,12,13
 681 353 681 353 681 382 c 0,14,15
 681 396 681 396 684 411 c 0,16,17
 706 516 706 516 875 669 c 2,18,-1
 1013 794 l 2,19,20
 1146 914 1146 914 1185 1100 c 0,21,22
 1195 1148 1195 1148 1195 1192 c 0,23,24
 1195 1272 1195 1272 1161 1336 c 0,25,26
 1100 1450 1100 1450 950 1450 c 0,27,28
 806 1450 806 1450 683 1331 c 0,29,30
 613 1263 613 1263 592 1169 c 0,31,32
 581 1118 581 1118 581 1068 c 0,33,34
 581 1038 581 1038 585 1009 c 1,35,-1
 578 1001 l 1,36,-1
 408 1212 l 1,37,38
 496 1315 496 1315 623 1408 c 0,39,40
 789 1530 789 1530 989 1530 c 0,0,1
624 -20 m 128,-1,42
 570 -20 570 -20 540 18 c 0,43,44
 518 46 518 46 518 83 c 0,45,46
 518 97 518 97 522 112 c 0,47,48
 534 167 534 167 580 205.5 c 128,-1,49
 626 244 626 244 680 244 c 128,-1,50
 734 244 734 244 764 206 c 0,51,52
 785 178 785 178 785 142 c 0,53,54
 785 126 785 126 782 112 c 0,55,56
 770 57 770 57 724 18.5 c 128,-1,41
 678 -20 678 -20 624 -20 c 128,-1,42
EndSplineSet
Validated: 1
EndChar

StartChar: at
Encoding: 64 64 35
Width: 1584
GlyphClass: 2
Flags: W
HStem: -430 10<776.815 782> 0 70<924.355 1219> 0 10<1516.2 1524> 636 10<1109.81 1133> 1050 70<917.625 1238.24>
VStem: 201 199<-92.314 427.84> 661 179<137.198 426.875> 1355 174<502.438 938.563>
DStem2: 1112.72 -430 1292.21 -430 0.207912 0.978148<627.704 1233.71>
LayerCount: 2
Fore
SplineSet
1524 0 m 1,0,-1
 944 0 l 2,1,2
 784 0 784 0 715 89 c 0,3,4
 661 159 661 159 661 250 c 0,5,6
 661 288 661 288 668 322 c 0,7,8
 695 457 695 457 806 546 c 0,9,10
 931 646 931 646 1135 646 c 1,11,-1
 1133 636 l 1,12,13
 1014 618 1014 618 944.5 540 c 128,-1,14
 875 462 875 462 850 344 c 0,15,16
 840 299 840 299 840 262 c 0,17,18
 840 202 840 202 865 162 c 0,19,20
 921 70 921 70 1077 70 c 2,21,-1
 1219 70 l 1,22,-1
 1335 614 l 2,23,24
 1355 711 1355 711 1355 782 c 0,25,26
 1355 840 1355 840 1342 881 c 0,27,28
 1287 1050 1287 1050 1096 1050 c 0,29,30
 863 1050 863 1050 665 830 c 0,31,32
 483 627 483 627 423 345 c 0,33,34
 400 237 400 237 400 140 c 0,35,36
 400 -15 400 -15 459 -140 c 0,37,38
 553 -341 553 -341 784 -420 c 1,39,-1
 782 -430 l 1,40,41
 461 -430 461 -430 298 -192 c 0,42,43
 201 -49 201 -49 201 146 c 0,44,45
 201 239 201 239 223 345 c 0,46,47
 292 670 292 670 526 882 c 0,48,49
 790 1120 790 1120 1111 1120 c 0,50,51
 1381 1120 1381 1120 1480 947 c 0,52,53
 1529 859 1529 859 1529 745 c 0,54,55
 1529 683 1529 683 1515 614 c 2,56,-1
 1424 190 l 2,57,58
 1419 166 1419 166 1419 146 c 0,59,60
 1419 49 1419 49 1526 10 c 1,61,-1
 1524 0 l 1,0,-1
EndSplineSet
Validated: 1
EndChar

StartChar: A
Encoding: 65 65 36
Width: 1584
GlyphClass: 2
Flags: W
HStem: 0 10<943 953.653> 715 80<717 1225> 1490 20G<785 1176>
VStem: 5 200<0 200> 1378 213<360.793 812.666>
DStem2: 5 0 205 0 0.54087 0.841106<108.174 957.824 1053.78 1652.17>
LayerCount: 2
Fore
SplineSet
5 0 m 9,0,-1
 855 1322 l 2,1,2
 876 1355 876 1355 881 1380 c 0,3,4
 883 1390 883 1390 883 1400 c 0,5,6
 883 1464 883 1464 785 1500 c 1,7,-1
 787 1510 l 1,8,-1
 1176 1510 l 1,9,-1
 717 795 l 1,10,-1
 1242 795 l 1,11,-1
 1225 715 l 1,12,-1
 664 715 l 1,13,-1
 205 0 l 1,14,-1
 5 0 l 9,0,-1
941 0 m 1,15,-1
 943 10 l 1,16,17
 1286 106 1286 106 1358 440 c 0,18,19
 1378 533 1378 533 1378 633 c 0,20,21
 1378 968 1378 968 1157 1386 c 1,22,-1
 1164 1394 l 1,23,24
 1591 940 1591 940 1591 568 c 0,25,26
 1591 503 1591 503 1578 440 c 0,27,28
 1484 0 1484 0 941 0 c 1,15,-1
EndSplineSet
Validated: 1
EndChar

StartChar: B
Encoding: 66 66 37
Width: 1318
GlyphClass: 2
Flags: W
HStem: 0 10<582 596.575> 1430 80<704 999.285> 1500 10<381 388.796>
VStem: 200 200<0 200> 1063 175<1158.53 1375.48> 1119 222<418.719 790.648>
DStem2: 200 0 400 0 0.207912 0.978148<41.5823 1393.04>
LayerCount: 2
Fore
SplineSet
200 0 m 1,0,-1
 481 1320 l 2,1,2
 486 1344 486 1344 486 1364 c 0,3,4
 486 1461 486 1461 379 1500 c 1,5,-1
 381 1510 l 1,6,-1
 902 1510 l 2,7,8
 1100 1510 1100 1510 1186 1425 c 0,9,10
 1238 1373 1238 1373 1238 1300 c 0,11,12
 1238 1276 1238 1276 1232 1249 c 0,13,14
 1214 1162 1214 1162 1139 1097 c 0,15,16
 1039 1010 1039 1010 890 986 c 1,17,18
 1171 986 1171 986 1277 846 c 0,19,20
 1341 761 1341 761 1341 638 c 0,21,22
 1341 580 1341 580 1327 514 c 0,23,24
 1282 303 1282 303 1096 158 c 0,25,26
 892 0 892 0 580 0 c 1,27,-1
 582 10 l 1,28,29
 817 70 817 70 937 192 c 0,30,31
 1067 326 1067 326 1107 514 c 0,32,33
 1119 572 1119 572 1119 624 c 0,34,35
 1119 710 1119 710 1085 776 c 0,36,37
 1001 936 1001 936 736 936 c 1,38,-1
 753 1016 l 1,39,40
 875 1016 875 1016 969 1089 c 0,41,42
 1038 1143 1038 1143 1058 1232 c 0,43,44
 1063 1255 1063 1255 1063 1276 c 0,45,46
 1063 1338 1063 1338 1018 1377 c 0,47,48
 958 1430 958 1430 840 1430 c 2,49,-1
 704 1430 l 1,50,-1
 400 0 l 1,51,-1
 200 0 l 1,0,-1
EndSplineSet
Validated: 1
EndChar

StartChar: C
Encoding: 67 67 38
Width: 1592
GlyphClass: 2
Flags: W
HStem: -20 90<712.402 1135.88> 1450 80<959.441 1359>
VStem: 238 221<335.153 838.442>
LayerCount: 2
Fore
SplineSet
849 -20 m 0,0,1
 497 -20 497 -20 335 218 c 0,2,3
 238 360 238 360 238 554 c 0,4,5
 238 649 238 649 261 756 c 0,6,7
 330 1082 330 1082 564 1292 c 0,8,9
 830 1530 830 1530 1178 1530 c 0,10,11
 1543 1530 1543 1530 1700 1278 c 1,12,-1
 1456 1080 l 1,13,-1
 1451 1086 l 1,14,15
 1472 1136 1472 1136 1480 1182 c 0,16,17
 1484 1204 1484 1204 1484 1225 c 0,18,19
 1484 1268 1484 1268 1467 1304 c 0,20,21
 1399 1450 1399 1450 1159 1450 c 0,22,23
 911 1450 911 1450 723 1240 c 0,24,25
 541 1037 541 1037 480 755 c 0,26,27
 459 658 459 658 459 570 c 0,28,29
 459 418 459 418 522 294 c 0,30,31
 634 70 634 70 945 70 c 0,32,33
 1233 70 1233 70 1554 325 c 1,34,-1
 1560 319 l 1,35,36
 1269 -20 1269 -20 849 -20 c 0,0,1
EndSplineSet
Validated: 1
EndChar

StartChar: D
Encoding: 68 68 39
Width: 1586
GlyphClass: 2
Flags: W
HStem: 0 10<582 594.858> 1430 80<704 1190.4> 1500 10<381 388.796>
VStem: 200 200<0 200> 1449 219<676.549 1183>
DStem2: 200 0 400 0 0.207912 0.978148<41.5823 1393.04>
LayerCount: 2
Fore
SplineSet
200 0 m 1,0,-1
 481 1320 l 2,1,2
 486 1344 486 1344 486 1364 c 0,3,4
 486 1461 486 1461 379 1500 c 1,5,-1
 381 1510 l 1,6,-1
 1037 1510 l 2,7,8
 1424 1510 1424 1510 1579 1273 c 0,9,10
 1668 1135 1668 1135 1668 951 c 0,11,12
 1668 859 1668 859 1646 755 c 0,13,14
 1585 467 1585 467 1337 248 c 0,15,16
 1057 0 1057 0 580 0 c 1,17,-1
 582 10 l 1,18,19
 988 86 988 86 1186 301 c 0,20,21
 1373 504 1373 504 1426 755 c 0,22,23
 1449 863 1449 863 1449 955 c 0,24,25
 1449 1127 1449 1127 1370 1247 c 0,26,27
 1249 1430 1249 1430 970 1430 c 2,28,-1
 704 1430 l 1,29,-1
 400 0 l 1,30,-1
 200 0 l 1,0,-1
EndSplineSet
Validated: 1
EndChar

StartChar: E
Encoding: 69 69 40
Width: 1592
GlyphClass: 2
Flags: W
HStem: -20 90<712.402 1135.88> 715 80<490 1245> 1450 80<959.441 1359.75>
VStem: 238 223<330.754 713.03>
LayerCount: 2
Fore
SplineSet
849 -20 m 0,0,1
 497 -20 497 -20 335 218 c 0,2,3
 238 361 238 361 238 556 c 0,4,5
 238 650 238 650 260 756 c 0,6,7
 330 1082 330 1082 564 1292 c 0,8,9
 830 1530 830 1530 1178 1530 c 0,10,11
 1543 1530 1543 1530 1700 1278 c 1,12,-1
 1456 1080 l 1,13,-1
 1451 1086 l 1,14,15
 1473 1138 1473 1138 1480 1182 c 0,16,17
 1483 1202 1483 1202 1483 1222 c 0,18,19
 1483 1265 1483 1265 1467 1304 c 0,20,21
 1402 1450 1402 1450 1159 1450 c 0,22,23
 911 1450 911 1450 723 1240 c 0,24,25
 557 1055 557 1055 490 795 c 1,26,-1
 1262 795 l 1,27,-1
 1245 715 l 1,28,-1
 473 715 l 1,29,30
 461 639 461 639 461 570 c 0,31,32
 461 416 461 416 522 294 c 0,33,34
 634 70 634 70 945 70 c 0,35,36
 1233 70 1233 70 1554 325 c 1,37,-1
 1560 319 l 1,38,39
 1269 -20 1269 -20 849 -20 c 0,0,1
EndSplineSet
Validated: 1
EndChar

StartChar: F
Encoding: 70 70 41
Width: 998
GlyphClass: 2
Flags: W
HStem: 0 21G<200 404.252> 715 80<569 944> 1430 80<704 1200.57> 1500 10<381 388.796>
VStem: 200 200<0 200> 1242 10<1290 1311.02>
DStem2: 200 0 400 0 0.207912 0.978148<41.5823 772.56 854.347 1393.04>
LayerCount: 2
Fore
SplineSet
200 0 m 1,0,-1
 481 1320 l 2,1,2
 486 1344 486 1344 486 1364 c 0,3,4
 486 1461 486 1461 379 1500 c 1,5,-1
 381 1510 l 1,6,-1
 1299 1510 l 17,7,-1
 1252 1290 l 1,8,-1
 1242 1290 l 1,9,10
 1225 1430 1225 1430 1092 1430 c 2,11,-1
 704 1430 l 1,12,-1
 569 795 l 1,13,-1
 961 795 l 1,14,-1
 944 715 l 1,15,-1
 552 715 l 1,16,-1
 400 0 l 1,17,-1
 200 0 l 1,0,-1
EndSplineSet
Validated: 1
EndChar

StartChar: G
Encoding: 71 71 42
Width: 1665
GlyphClass: 2
Flags: W
HStem: -20 90<704.219 1130.41> 640 10<1313 1320.8> 1450 80<959.441 1360.5>
VStem: 238 221<335.543 843.295>
LayerCount: 2
Fore
SplineSet
849 -20 m 0,0,1
 498 -20 498 -20 335 218 c 0,2,3
 238 361 238 361 238 556 c 0,4,5
 238 650 238 650 260 756 c 0,6,7
 330 1082 330 1082 564 1292 c 0,8,9
 830 1530 830 1530 1178 1530 c 0,10,11
 1543 1530 1543 1530 1700 1278 c 1,12,-1
 1456 1080 l 1,13,-1
 1451 1086 l 1,14,15
 1473 1138 1473 1138 1480 1182 c 0,16,17
 1483 1202 1483 1202 1483 1221 c 0,18,19
 1483 1265 1483 1265 1467 1304 c 0,20,21
 1405 1450 1405 1450 1159 1450 c 0,22,23
 911 1450 911 1450 723 1240 c 0,24,25
 541 1037 541 1037 480 755 c 0,26,27
 459 658 459 658 459 570 c 0,28,29
 459 418 459 418 522 294 c 0,30,31
 634 70 634 70 923 70 c 0,32,33
 1178 70 1178 70 1343 280 c 0,34,35
 1387 336 1387 336 1401 404 c 2,36,-1
 1413 460 l 18,37,38
 1418 484 1418 484 1418 504 c 0,39,40
 1418 601 1418 601 1311 640 c 1,41,-1
 1313 650 l 1,42,-1
 1653 650 l 1,43,-1
 1590 351 l 1,44,45
 1282 -20 1282 -20 849 -20 c 0,0,1
EndSplineSet
Validated: 1
EndChar

StartChar: H
Encoding: 72 72 43
Width: 1552
GlyphClass: 2
Flags: W
HStem: 0 10<1484.2 1492> 715 80<569 1304> 1500 10<381 388.796>
VStem: 200 200<0 200> 1473 200<1310 1510>
DStem2: 200 0 400 0 0.207912 0.978148<41.5823 772.56 854.347 1393.04> 1152 0 1351.61 0 0.207912 0.978148<192.281 730.978 812.764 1543.74>
CounterMasks: 1 e0
LayerCount: 2
Fore
SplineSet
200 0 m 1,0,-1
 481 1320 l 2,1,2
 486 1344 486 1344 486 1364 c 0,3,4
 486 1461 486 1461 379 1500 c 1,5,-1
 381 1510 l 1,6,-1
 721 1510 l 1,7,-1
 569 795 l 1,8,-1
 1321 795 l 1,9,-1
 1473 1510 l 1,10,-1
 1673 1510 l 1,11,-1
 1392 190 l 2,12,13
 1387 166 1387 166 1387 146 c 0,14,15
 1387 49 1387 49 1494 10 c 1,16,-1
 1492 0 l 1,17,-1
 1152 0 l 1,18,-1
 1304 715 l 1,19,-1
 552 715 l 1,20,-1
 400 0 l 1,21,-1
 200 0 l 1,0,-1
EndSplineSet
Validated: 1
EndChar

StartChar: I
Encoding: 73 73 44
Width: 600
GlyphClass: 2
Flags: W
HStem: 0 21G<200 404.252> 1500 10<381 388.796>
VStem: 200 200<0 200>
DStem2: 200 0 400 0 0.207912 0.978148<41.5823 1393.04>
LayerCount: 2
Fore
SplineSet
200 0 m 1,0,-1
 481 1320 l 2,1,2
 486 1344 486 1344 486 1364 c 0,3,4
 486 1461 486 1461 379 1500 c 1,5,-1
 381 1510 l 1,6,-1
 721 1510 l 1,7,-1
 400 0 l 1,8,-1
 200 0 l 1,0,-1
EndSplineSet
Validated: 1
EndChar

StartChar: J
Encoding: 74 74 45
Width: 1220
GlyphClass: 2
Flags: W
HStem: -20 80<369.26 652.112> 1430 80<610.492 1124>
VStem: 516 10<1290 1298.61>
DStem2: 815.268 -20 1015.69 -20 0.207912 0.978148<369.091 1482.5>
LayerCount: 2
Fore
SplineSet
478 -20 m 0,0,1
 191 -20 191 -20 94 206 c 1,2,-1
 337 406 l 1,3,-1
 343 400 l 1,4,5
 324 346 324 346 313 296 c 0,6,7
 307 266 307 266 307 239 c 0,8,9
 307 201 307 201 319 170 c 0,10,11
 363 61 363 61 495 60 c 0,12,13
 663 60 663 60 791 212 c 0,14,15
 890 329 890 329 936 548 c 2,16,-1
 1124 1430 l 1,17,-1
 736 1430 l 2,18,19
 603 1430 603 1430 526 1290 c 1,20,-1
 516 1290 l 1,21,-1
 563 1510 l 1,22,-1
 1341 1510 l 1,23,-1
 1136 546 l 2,24,25
 1085 306 1085 306 905 152 c 0,26,27
 705 -20 705 -20 478 -20 c 0,0,1
EndSplineSet
Validated: 1
EndChar

StartChar: K
Encoding: 75 75 46
Width: 1472
GlyphClass: 2
Flags: W
HStem: 0 21G<200 404.252 1104.97 1372> 1500 10<381 388.796 1082 1086.45>
VStem: 200 200<0 200> 1120 252<0 252> 1288 223<981.728 1359.17>
DStem2: 200 0 400 0 0.207912 0.978148<41.5823 1393.04> 1008 482 821 398 0.602646 -0.798009<0 452.137>
LayerCount: 2
Fore
SplineSet
200 0 m 1,0,-1
 481 1320 l 2,1,2
 486 1344 486 1344 486 1364 c 0,3,4
 486 1461 486 1461 379 1500 c 1,5,-1
 381 1510 l 1,6,-1
 721 1510 l 1,7,-1
 400 0 l 1,8,-1
 200 0 l 1,0,-1
1372 0 m 1,9,-1
 1120 0 l 1,10,-1
 821 398 l 1,11,12
 682 344 682 344 556 320 c 1,13,-1
 558 330 l 1,14,15
 1177 603 1177 603 1276 1084 c 0,16,17
 1288 1142 1288 1142 1288 1193 c 0,18,19
 1288 1403 1288 1403 1080 1500 c 1,20,-1
 1082 1510 l 1,21,22
 1511 1510 1511 1510 1511 1203 c 0,23,24
 1511 1148 1511 1148 1497 1082 c 0,25,26
 1427 759 1427 759 1008 482 c 1,27,-1
 1372 0 l 1,9,-1
EndSplineSet
Validated: 1
EndChar

StartChar: L
Encoding: 76 76 47
Width: 998
GlyphClass: 2
Flags: W
HStem: 0 80<417 930.508> 1500 10<381 388.796>
VStem: 1015 10<211.387 220>
DStem2: 200 0 399.995 0 0.207912 0.978148<123.369 1393.04>
LayerCount: 2
Fore
SplineSet
200 0 m 1,0,-1
 481 1320 l 2,1,2
 486 1344 486 1344 486 1364 c 0,3,4
 486 1461 486 1461 379 1500 c 1,5,-1
 381 1510 l 1,6,-1
 721 1510 l 1,7,-1
 417 80 l 1,8,-1
 805 80 l 2,9,10
 938 80 938 80 1015 220 c 1,11,-1
 1025 220 l 1,12,-1
 978 0 l 1,13,-1
 200 0 l 1,0,-1
EndSplineSet
Validated: 1
EndChar

StartChar: M
Encoding: 77 77 48
Width: 2277
GlyphClass: 2
Flags: W
HStem: 0 10<723 732.722 1666 1675.72> 1490 20G<582 944 1535 1887>
VStem: 2075 212<371.86 843.093>
DStem2: 5 0 201 0 0.4415 0.897261<86.534 1553.9> 1301 695 1279 274 0.441396 0.897312<0 778.868>
LayerCount: 2
Fore
SplineSet
721 0 m 1,0,1
 723 10 l 1,2,3
 1036 106 1036 106 1108 440 c 0,4,5
 1132 552 1132 552 1132 670 c 0,6,7
 1132 1006 1132 1006 937 1386 c 1,8,-1
 944 1394 l 1,9,10
 1241 1117 1241 1117 1301 695 c 1,11,-1
 1610 1322 l 2,12,13
 1626 1354 1626 1354 1631 1380 c 0,14,15
 1633 1390 1633 1390 1633 1400 c 0,16,17
 1633 1464 1633 1464 1535 1500 c 1,18,-1
 1537 1510 l 1,19,-1
 1887 1510 l 1,20,-1
 1279 274 l 2,21,22
 1145 1 1145 1 721 0 c 1,0,1
1664 0 m 1,23,-1
 1666 10 l 1,24,25
 1979 106 1979 106 2051 440 c 0,26,27
 2075 552 2075 552 2075 670 c 0,28,29
 2075 1006 2075 1006 1880 1386 c 1,30,-1
 1887 1394 l 1,31,32
 2287 973 2287 973 2287 590 c 0,33,34
 2287 514 2287 514 2271 440 c 0,35,36
 2177 0 2177 0 1664 0 c 1,23,-1
5 0 m 1,37,-1
 657 1322 l 2,38,39
 673 1354 673 1354 678 1380 c 0,40,41
 680 1390 680 1390 680 1400 c 0,42,43
 680 1464 680 1464 582 1500 c 1,44,-1
 584 1510 l 1,45,-1
 944 1510 l 1,46,-1
 201 0 l 1,47,-1
 5 0 l 1,37,-1
EndSplineSet
Validated: 1
EndChar

StartChar: N
Encoding: 78 78 49
Width: 1552
GlyphClass: 2
Flags: W
HStem: 0 10<811 822.055> 1500 10<381 388.796>
VStem: 200 200<0 200> 1483 190<1320 1510>
DStem2: 200 0 400 0 0.207912 0.978148<41.5823 1393.04> 1144.48 0 1352.29 0 0.207912 0.978148<274.552 586.741 927.808 1547.39>
LayerCount: 2
Fore
SplineSet
200 0 m 1,0,-1
 481 1320 l 2,1,2
 486 1344 486 1344 486 1364 c 0,3,4
 486 1461 486 1461 379 1500 c 1,5,-1
 381 1510 l 1,6,-1
 721 1510 l 1,7,-1
 400 0 l 1,8,-1
 200 0 l 1,0,-1
809 0 m 1,9,-1
 811 10 l 1,10,11
 1167 110 1167 110 1238 440 c 0,12,13
 1253 508 1253 508 1253 579 c 0,14,15
 1253 979 1253 979 784 1443 c 1,16,-1
 791 1451 l 1,17,18
 1169 1252 1169 1252 1354 904 c 1,19,-1
 1483 1510 l 1,20,-1
 1673 1510 l 1,21,-1
 1449 455 l 2,22,23
 1352 0 1352 0 809 0 c 1,9,-1
EndSplineSet
Validated: 1
EndChar

StartChar: O
Encoding: 79 79 50
Width: 1706
GlyphClass: 2
Flags: W
HStem: -20 80<683.505 1067.89> 1450 80<959.531 1343.96>
VStem: 238 220<317.615 837.84> 1569 220<672.16 1192.39>
LayerCount: 2
Fore
SplineSet
866 60 m 128,-1,1
 1116 60 1116 60 1304 270 c 0,2,3
 1486 473 1486 473 1546 755 c 0,4,5
 1569 864 1569 864 1569 961 c 0,6,7
 1569 1115 1569 1115 1511 1240 c 0,8,9
 1412 1450 1412 1450 1161.5 1450 c 128,-1,10
 911 1450 911 1450 723 1240 c 0,11,12
 541 1037 541 1037 481 755 c 0,13,14
 458 646 458 646 458 549 c 0,15,16
 458 395 458 395 516 270 c 0,17,0
 616 60 616 60 866 60 c 128,-1,1
849 -20 m 128,-1,19
 498 -20 498 -20 335 218 c 0,20,21
 238 361 238 361 238 555 c 0,22,23
 238 649 238 649 260 755 c 0,24,25
 330 1080 330 1080 564 1292 c 0,26,27
 828 1530 828 1530 1178.5 1530 c 128,-1,28
 1529 1530 1529 1530 1692 1292 c 0,29,30
 1789 1149 1789 1149 1789 955 c 0,31,32
 1788 861 1788 861 1766 755 c 0,33,34
 1696 430 1696 430 1463 218 c 0,35,18
 1200 -20 1200 -20 849 -20 c 128,-1,19
EndSplineSet
Validated: 1
EndChar

StartChar: P
Encoding: 80 80 51
Width: 1324
GlyphClass: 2
Flags: W
HStem: 0 21G<200 404.252> 360 10<653 661.965> 1430 80<704 1046.79> 1500 10<381 388.796>
VStem: 200 200<0 200> 1223 218<848.403 1271.96>
DStem2: 200 0 400 0 0.207912 0.978148<41.5823 1393.04>
LayerCount: 2
Fore
SplineSet
200 0 m 1,0,-1
 481 1320 l 2,1,2
 486 1344 486 1344 486 1364 c 0,3,4
 486 1461 486 1461 379 1500 c 1,5,-1
 381 1510 l 1,6,-1
 956 1510 l 2,7,8
 1210 1510 1210 1510 1337 1366 c 0,9,10
 1441 1248 1441 1248 1441 1083 c 0,11,12
 1441 1022 1441 1022 1427 954 c 0,13,14
 1380 733 1380 733 1213 568 c 0,15,16
 1003 360 1003 360 651 360 c 1,17,-1
 653 370 l 1,18,19
 871 428 871 428 1026 586 c 0,20,21
 1157 720 1157 720 1207 954 c 0,22,23
 1223 1030 1223 1030 1223 1093 c 0,24,25
 1223 1196 1223 1196 1181 1268 c 0,26,27
 1085 1430 1085 1430 858 1430 c 2,28,-1
 704 1430 l 1,29,-1
 400 0 l 1,30,-1
 200 0 l 1,0,-1
EndSplineSet
Validated: 1
EndChar

StartChar: Q
Encoding: 81 81 52
Width: 1706
GlyphClass: 2
Flags: W
HStem: -20 10<843.412 849> 0 21G<1030.65 1297> 1450 80<959.531 1343.96>
VStem: 238 219<317.462 837.577> 758 255<145 400> 1569 220<675.548 1192.39>
DStem2: 1013 400 758 400 0.582966 -0.812496<0 286.411>
LayerCount: 2
Fore
SplineSet
1297 0 m 1,0,-1
 1045 0 l 1,1,-1
 758 400 l 1,2,-1
 1013 400 l 1,3,-1
 1178 168 l 1,4,5
 1254 215 1254 215 1304 270 c 0,6,7
 1485 467 1485 467 1546 755 c 0,8,9
 1569 864 1569 864 1569 961 c 0,10,11
 1569 1115 1569 1115 1511 1240 c 0,12,13
 1412 1450 1412 1450 1161.5 1450 c 128,-1,14
 911 1450 911 1450 723 1240 c 0,15,16
 539 1035 539 1035 480 755 c 0,17,18
 457 646 457 646 457 549 c 0,19,20
 457 394 457 394 516 270 c 0,21,22
 607 81 607 81 851 -10 c 1,23,-1
 849 -20 l 1,24,25
 498 -20 498 -20 335 218 c 0,26,27
 238 361 238 361 238 555 c 0,28,29
 238 649 238 649 260 755 c 0,30,31
 330 1080 330 1080 564 1292 c 0,32,33
 828 1530 828 1530 1178.5 1530 c 128,-1,34
 1529 1530 1529 1530 1692 1292 c 0,35,36
 1789 1149 1789 1149 1789 955 c 0,37,38
 1788 861 1788 861 1766 755 c 0,39,40
 1696 429 1696 429 1463 218 c 0,41,42
 1371 135 1371 135 1243 76 c 1,43,-1
 1297 0 l 1,0,-1
EndSplineSet
Validated: 1
EndChar

StartChar: R
Encoding: 82 82 53
Width: 1405
GlyphClass: 2
Flags: W
HStem: 0 21G<200 404.252 1117.92 1385> 360 10<653 666.563> 1430 80<704 1046.79> 1500 10<381 388.796>
VStem: 200 200<0 200> 1133 252<0 252> 1223 218<848.403 1271.96>
DStem2: 200 0 400 0 0.207912 0.978148<41.5823 1393.01> 1047 447 845 382 0.603136 -0.797638<0 408.414>
LayerCount: 2
Fore
SplineSet
200 0 m 1,0,-1
 481 1320 l 2,1,2
 486 1343 486 1343 486 1364 c 0,3,4
 486 1461 486 1461 379 1500 c 1,5,-1
 381 1510 l 1,6,-1
 956 1510 l 2,7,8
 1210 1510 1210 1510 1337 1366 c 0,9,10
 1441 1248 1441 1248 1441 1083 c 0,11,12
 1441 1022 1441 1022 1427 954 c 0,13,14
 1380 733 1380 733 1213 568 c 0,15,16
 1144 500 1144 500 1047 447 c 1,17,-1
 1385 0 l 1,18,-1
 1133 0 l 1,19,-1
 845 382 l 1,20,21
 746 360 746 360 651 360 c 1,22,-1
 653 370 l 1,23,24
 871 428 871 428 1026 586 c 0,25,26
 1157 720 1157 720 1207 954 c 0,27,28
 1223 1030 1223 1030 1223 1093 c 0,29,30
 1223 1196 1223 1196 1181 1268 c 0,31,32
 1085 1430 1085 1430 858 1430 c 2,33,-1
 704 1430 l 1,34,-1
 400 0 l 1,35,-1
 200 0 l 1,0,-1
EndSplineSet
Validated: 1
EndChar

StartChar: S
Encoding: 83 83 54
Width: 1269
GlyphClass: 2
Flags: W
HStem: -20 80<468.263 810.212> 1450 80<832.743 1078.95>
VStem: 540 177<1112.32 1309> 1099 207<394.486 674.731>
DStem2: 864 1034 749 868 0.889337 -0.457253<-170.069 350.754>
LayerCount: 2
Fore
SplineSet
607 -20 m 0,0,1
 368 -20 368 -20 258 112 c 0,2,3
 185 200 185 200 155 354 c 1,4,-1
 415 565 l 1,5,-1
 421 559 l 1,6,7
 373 457 373 457 362 381 c 0,8,9
 357 345 357 345 357 313 c 0,10,11
 357 241 357 241 383 190 c 0,12,13
 450 60 450 60 627 60 c 0,14,15
 808 60 808 60 940 189 c 0,16,17
 1055 301 1055 301 1088 446 c 0,18,19
 1099 493 1099 493 1099 535 c 0,20,21
 1099 684 1099 684 945 765 c 2,22,-1
 749 868 l 2,23,24
 540 978 540 978 540 1149 c 0,25,26
 540 1179 540 1179 547 1210 c 0,27,28
 577 1351 577 1351 704 1444 c 0,29,30
 821 1530 821 1530 986 1530 c 0,31,32
 1155 1530 1155 1530 1227 1438 c 0,33,34
 1264 1391 1264 1391 1278 1322 c 1,35,-1
 1091 1169 l 1,36,-1
 1086 1175 l 1,37,38
 1103 1207 1103 1207 1110 1242 c 0,39,40
 1117 1273 1117 1273 1117 1301 c 0,41,42
 1117 1333 1117 1333 1108 1361 c 0,43,44
 1081 1450 1081 1450 975 1450 c 0,45,46
 880 1450 880 1450 810 1395 c 0,47,48
 743 1342 743 1342 722 1255 c 0,49,50
 717 1234 717 1234 717 1214 c 0,51,52
 717 1110 717 1110 864 1034 c 2,53,-1
 1076 925 l 2,54,55
 1306 807 1306 807 1306 592 c 0,56,57
 1306 547 1306 547 1295 498 c 0,58,59
 1250 287 1250 287 1051 135 c 0,60,61
 847 -20 847 -20 607 -20 c 0,0,1
EndSplineSet
Validated: 1
EndChar

StartChar: T
Encoding: 84 84 55
Width: 1110
GlyphClass: 2
Flags: W
HStem: 0 21G<456 660.252> 1430 80<388.492 760 960 1312.57>
VStem: 294 10<1290 1298.61> 456 200<0 200> 1354 10<1290 1311.02>
DStem2: 456 0 656 0 0.207912 0.978148<41.5823 1461.96>
LayerCount: 2
Fore
SplineSet
456 0 m 1,0,-1
 760 1430 l 1,1,-1
 514 1430 l 2,2,3
 381 1430 381 1430 304 1290 c 1,4,-1
 294 1290 l 1,5,-1
 341 1510 l 1,6,-1
 1411 1510 l 1,7,-1
 1364 1290 l 1,8,-1
 1354 1290 l 1,9,10
 1337 1430 1337 1430 1204 1430 c 2,11,-1
 960 1430 l 1,12,-1
 656 0 l 1,13,-1
 456 0 l 1,0,-1
EndSplineSet
Validated: 1
EndChar

StartChar: U
Encoding: 85 85 56
Width: 1574
GlyphClass: 2
Flags: W
HStem: -20 80<638.034 977.486> 1500 10<381 388.796>
VStem: 301 195<208.268 654.031> 1495 200<1310 1510>
DStem2: 195.693 -20 395.268 -20 0.207912 0.978148<457.92 1413.5> 1169.27 -20 1369.69 -20 0.207912 0.978148<371.138 1564.29>
LayerCount: 2
Fore
SplineSet
780 -20 m 0,0,1
 520 -20 520 -20 392 136 c 0,2,3
 301 248 301 248 301 407 c 0,4,5
 301 472 301 472 316 546 c 2,6,-1
 481 1320 l 2,7,8
 486 1344 486 1344 486 1364 c 0,9,10
 486 1461 486 1461 379 1500 c 1,11,-1
 381 1510 l 1,12,-1
 721 1510 l 1,13,-1
 516 548 l 2,14,15
 496 456 496 456 496 382 c 0,16,17
 496 289 496 289 527 225 c 0,18,19
 605 60 605 60 801 60 c 0,20,21
 995 60 995 60 1143 225 c 0,22,23
 1247 341 1247 341 1290 548 c 2,24,-1
 1495 1510 l 1,25,-1
 1695 1510 l 1,26,-1
 1490 546 l 2,27,28
 1436 294 1436 294 1240 136 c 0,29,30
 1046 -20 1046 -20 780 -20 c 0,0,1
EndSplineSet
Validated: 1
EndChar

StartChar: V
Encoding: 86 86 57
Width: 1703
GlyphClass: 2
Flags: W
HStem: 0 10<1049.61 1058> 1500 10<326 334.392 1381 1394.07>
VStem: 1624 220<979.684 1352.79>
DStem2: 630 1510 458 1359 0.212818 -0.977092<0 1501.8>
LayerCount: 2
Fore
SplineSet
754 0 m 1,0,-1
 458 1359 l 2,1,2
 437 1453 437 1453 324 1500 c 1,3,-1
 326 1510 l 1,4,-1
 630 1510 l 1,5,-1
 926 151 l 2,6,7
 947 57 947 57 1060 10 c 1,8,-1
 1058 0 l 1,9,-1
 754 0 l 1,0,-1
1381 1510 m 1,10,11
 1844 1510 1844 1510 1844 1192 c 0,12,13
 1844 1136 1844 1136 1830 1070 c 0,14,15
 1741 665 1741 665 997 116 c 1,16,-1
 992 124 l 1,17,18
 1528 687 1528 687 1610 1070 c 0,19,20
 1624 1134 1624 1134 1624 1189 c 0,21,22
 1624 1423 1624 1423 1379 1500 c 1,23,-1
 1381 1510 l 1,10,11
EndSplineSet
Validated: 1
EndChar

StartChar: W
Encoding: 87 87 58
Width: 2326
GlyphClass: 2
Flags: W
HStem: 0 10<1049.52 1058 1664.52 1673> 1500 10<326 334.481 934 942.392 2004 2017.07>
VStem: 2247 221<982.654 1355.89>
DStem2: 630 1510 458 1359 0.212818 -0.977092<0 1501.8> 1245 1510 1066 1359 0.212818 -0.977092<0 1500.31>
LayerCount: 2
Fore
SplineSet
1362 0 m 1,0,-1
 1066 1359 l 2,1,2
 1045 1453 1045 1453 932 1500 c 9,3,-1
 934 1510 l 1,4,-1
 1245 1510 l 1,5,-1
 1541 151 l 2,6,7
 1561 57 1561 57 1675 10 c 9,8,-1
 1673 0 l 17,9,-1
 1362 0 l 1,0,-1
2004 1510 m 1,10,11
 2468 1510 2468 1510 2468 1193 c 0,12,13
 2468 1137 2468 1137 2453 1070 c 0,14,15
 2364 668 2364 668 1617 116 c 1,16,-1
 1612 124 l 1,17,18
 2153 692 2153 692 2233 1070 c 0,19,20
 2247 1134 2247 1134 2247 1189 c 0,21,22
 2247 1423 2247 1423 2002 1500 c 1,23,-1
 2004 1510 l 1,10,11
754 0 m 1,24,-1
 458 1359 l 2,25,26
 438 1453 438 1453 324 1500 c 9,27,-1
 326 1510 l 1,28,-1
 630 1510 l 1,29,-1
 926 151 l 2,30,31
 946 57 946 57 1060 10 c 9,32,-1
 1058 0 l 17,33,-1
 754 0 l 1,24,-1
EndSplineSet
Validated: 1
EndChar

StartChar: X
Encoding: 88 88 59
Width: 1527
GlyphClass: 2
Flags: W
HStem: 0 21G<88 272.354 1140.18 1379> 1500 10<326 334.444 1254 1262.21>
VStem: 88 154<0 154> 1418 227<1068.17 1395.79>
DStem2: 88 0 242 0 0.833806 0.552058<128.406 949.927> 634 1510 482 1361 0.442456 -0.89679<0 991.226 1078.89 1582.46>
LayerCount: 2
Fore
SplineSet
1254 1510 m 1,0,1
 1645 1510 1645 1510 1645 1257 c 0,2,3
 1645 1214 1645 1214 1634 1163 c 0,4,5
 1564 854 1564 854 1139 616 c 1,6,-1
 1135 624 l 1,7,8
 1359 905 1359 905 1404 1116 c 0,9,10
 1418 1180 1418 1180 1418 1235 c 0,11,12
 1418 1426 1418 1426 1252 1500 c 1,13,-1
 1254 1510 l 1,0,1
88 0 m 1,14,-1
 890 531 l 1,15,-1
 482 1361 l 2,16,17
 437 1453 437 1453 324 1500 c 1,18,-1
 326 1510 l 1,19,-1
 634 1510 l 1,20,-1
 1379 0 l 1,21,-1
 1150 0 l 1,22,-1
 928 452 l 1,23,-1
 242 0 l 1,24,-1
 88 0 l 1,14,-1
EndSplineSet
Validated: 1
EndChar

StartChar: Y
Encoding: 89 89 60
Width: 1477
GlyphClass: 2
Flags: W
HStem: 0 21G<660 864.258> 1500 10<326 335.606 1259 1267.4>
VStem: 660 200<0 200> 1426 211<1083.25 1402.49>
DStem2: 642 1510 482 1361 0.311367 -0.95029<0 994.912> 660 0 860 0 0.207912 0.978148<41.5823 515.233>
LayerCount: 2
Fore
SplineSet
660 0 m 1,0,-1
 767 504 l 1,1,-1
 482 1361 l 2,2,3
 450 1457 450 1457 324 1500 c 1,4,-1
 326 1510 l 1,5,-1
 642 1510 l 1,6,-1
 969 512 l 1,7,-1
 860 0 l 1,8,-1
 660 0 l 1,0,-1
1259 1510 m 1,9,10
 1637 1510 1637 1510 1637 1262 c 0,11,12
 1637 1220 1637 1220 1626 1170 c 0,13,14
 1564 896 1564 896 1031 576 c 1,15,-1
 1027 584 l 1,16,17
 1358 894 1358 894 1416 1170 c 0,18,19
 1426 1218 1426 1218 1426 1261 c 0,20,21
 1426 1432 1426 1432 1257 1500 c 1,22,-1
 1259 1510 l 1,9,10
EndSplineSet
Validated: 1
EndChar

StartChar: Z
Encoding: 90 90 61
Width: 1365
GlyphClass: 2
Flags: W
HStem: 0 100<101 1177.91> 1430 80<528.492 1107.43>
VStem: 434 10<1290 1298.61> 1227 230<988.897 1327.19> 1256 10<231.387 240>
LayerCount: 2
Fore
SplineSet
80 0 m 1,0,-1
 101 100 l 1,1,-1
 1046 100 l 10,2,3
 1179 100 1179 100 1256 240 c 1,4,-1
 1266 240 l 1,5,-1
 1215 0 l 1,6,-1
 80 0 l 1,0,-1
481 1510 m 1,7,-1
 932 1510 l 2,8,9
 1457 1510 1457 1510 1457 1185 c 0,10,11
 1457 1136 1457 1136 1445 1080 c 0,12,13
 1339 580 1339 580 226 149 c 1,14,-1
 223 158 l 1,15,16
 1129 669 1129 669 1215 1080 c 0,17,18
 1227 1137 1227 1137 1227 1184 c 0,19,20
 1227 1430 1227 1430 905 1430 c 2,21,-1
 654 1430 l 2,22,23
 521 1430 521 1430 444 1290 c 1,24,-1
 434 1290 l 1,25,-1
 481 1510 l 1,7,-1
EndSplineSet
Validated: 1
EndChar

StartChar: bracketleft
Encoding: 91 91 62
Width: 803
GlyphClass: 2
Flags: W
HStem: -250 80<366 700> 1680 80<759 1110>
DStem2: 147 -250 348.995 -250 0.207912 0.978148<123.784 2015.07>
LayerCount: 2
Fore
SplineSet
147 -250 m 1,0,-1
 574 1760 l 1,1,-1
 1127 1760 l 1,2,-1
 1110 1680 l 1,3,-1
 759 1680 l 1,4,-1
 366 -170 l 1,5,-1
 717 -170 l 1,6,-1
 700 -250 l 1,7,-1
 147 -250 l 1,0,-1
EndSplineSet
Validated: 1
EndChar

StartChar: backslash
Encoding: 92 92 63
Width: 1051
GlyphClass: 2
Flags: W
VStem: 357 659
DStem2: 496 1690 357 1631 0.275983 -0.961163<18.347 1882.25>
LayerCount: 2
Fore
SplineSet
877 -180 m 1,0,-1
 357 1631 l 1,1,-1
 496 1690 l 1,2,-1
 1016 -119 l 1,3,-1
 877 -180 l 1,0,-1
EndSplineSet
Validated: 1
EndChar

StartChar: bracketright
Encoding: 93 93 64
Width: 803
GlyphClass: 2
Flags: W
HStem: -250 80<14 365> 1680 80<424 758>
DStem2: 347.995 -250 550 -250 0.207912 0.978148<81.7872 1973.07>
LayerCount: 2
Fore
SplineSet
550 -250 m 1,0,-1
 -3 -250 l 1,1,-1
 14 -170 l 1,2,-1
 365 -170 l 1,3,-1
 758 1680 l 1,4,-1
 407 1680 l 1,5,-1
 424 1760 l 1,6,-1
 977 1760 l 1,7,-1
 550 -250 l 1,0,-1
EndSplineSet
Validated: 1
EndChar

StartChar: asciicircum
Encoding: 94 94 65
Width: 736
GlyphClass: 2
Flags: W
HStem: 1180 370
VStem: 315 645
DStem2: 315 1246 364 1180 0.799763 0.600316<0 348.967> 720 1550 644 1389 0.67547 -0.737388<67.3837 349.162>
LayerCount: 2
Fore
SplineSet
720 1550 m 1,0,-1
 960 1288 l 1,1,-1
 833 1180 l 1,2,-1
 644 1389 l 1,3,-1
 364 1180 l 1,4,-1
 315 1246 l 1,5,-1
 720 1550 l 1,0,-1
EndSplineSet
Validated: 1
EndChar

StartChar: underscore
Encoding: 95 95 66
Width: 1133
GlyphClass: 2
Flags: W
HStem: -200 100<129 940>
LayerCount: 2
Fore
SplineSet
129 -100 m 1,0,-1
 962 -100 l 1,1,-1
 940 -200 l 1,2,-1
 107 -200 l 1,3,-1
 129 -100 l 1,0,-1
EndSplineSet
Validated: 1
EndChar

StartChar: grave
Encoding: 96 96 67
Width: 427
GlyphClass: 2
Flags: W
HStem: 1150 374
VStem: 347 280
LayerCount: 2
Fore
SplineSet
502 1524 m 1,0,1
 627 1420 627 1420 627 1236 c 0,2,3
 627 1195 627 1195 621 1150 c 1,4,-1
 611 1150 l 1,5,6
 516 1327 516 1327 347 1397 c 1,7,-1
 502 1524 l 1,0,1
EndSplineSet
Validated: 1
EndChar

StartChar: a
Encoding: 97 97 68
Width: 1268
GlyphClass: 2
Flags: W
HStem: 0 10<730.913 740 1200.2 1208> 1030 70<765.28 1107>
VStem: 202 203<241.834 646.712>
DStem2: 888 0 1067.61 0 0.207912 0.978148<188.123 1053.02>
LayerCount: 2
Fore
SplineSet
1208 0 m 1,0,-1
 888 0 l 1,1,-1
 1107 1030 l 1,2,-1
 947 1030 l 2,3,4
 748 1030 748 1030 606 897 c 0,5,6
 463 765 463 765 417 550 c 0,7,8
 405 492 405 492 405 437 c 0,9,10
 405 315 405 315 466 210 c 0,11,12
 540 82 540 82 742 10 c 9,13,-1
 740 0 l 17,14,15
 448 0 448 0 311 140 c 0,16,17
 202 251 202 251 202 419 c 0,18,19
 202 481 202 481 217 550 c 0,20,21
 270 798 270 798 485 960 c 0,22,23
 670 1100 670 1100 942 1100 c 2,24,-1
 1302 1100 l 1,25,-1
 1108 190 l 2,26,27
 1103 166 1103 166 1103 146 c 0,28,29
 1103 49 1103 49 1210 10 c 1,30,-1
 1208 0 l 1,0,-1
EndSplineSet
Validated: 1
EndChar

StartChar: b
Encoding: 98 98 69
Width: 1268
GlyphClass: 2
Flags: W
HStem: 0 70<395 736.72> 1090 10<762 771.087> 1500 10<381 388.796>
VStem: 1097 203<453.288 858.166>
DStem2: 200 0 380.121 0 0.207912 0.978148<109.013 1393.04>
LayerCount: 2
Fore
SplineSet
200 0 m 1,0,-1
 481 1320 l 2,1,2
 486 1344 486 1344 486 1364 c 0,3,4
 486 1461 486 1461 379 1500 c 1,5,-1
 381 1510 l 1,6,-1
 701 1510 l 1,7,-1
 395 70 l 1,8,-1
 555 70 l 2,9,10
 752 70 752 70 896 203 c 0,11,12
 1039 335 1039 335 1085 550 c 0,13,14
 1097 608 1097 608 1097 663 c 0,15,16
 1097 785 1097 785 1036 890 c 0,17,18
 962 1018 962 1018 760 1090 c 9,19,-1
 762 1100 l 17,20,21
 1054 1100 1054 1100 1191 960 c 0,22,23
 1300 849 1300 849 1300 681 c 0,24,25
 1300 619 1300 619 1285 550 c 0,26,27
 1232 302 1232 302 1017 140 c 0,28,29
 832 0 832 0 560 0 c 2,30,-1
 200 0 l 1,0,-1
EndSplineSet
Validated: 1
EndChar

StartChar: c
Encoding: 99 99 70
Width: 1185
GlyphClass: 2
Flags: W
HStem: -20 80<529.699 851.03> 1051 69<712.343 1008.75>
VStem: 201 194<201.354 638.309>
LayerCount: 2
Fore
SplineSet
634 -20 m 0,0,1
 380 -20 380 -20 265 164 c 0,2,3
 201 268 201 268 201 404 c 0,4,5
 201 473 201 473 217 550 c 0,6,7
 265 778 265 778 429 936 c 0,8,9
 621 1120 621 1120 876 1120 c 0,10,11
 1134 1120 1134 1120 1250 926 c 1,12,-1
 1063 773 l 1,13,-1
 1058 779 l 1,14,15
 1078 817 1078 817 1082 846 c 0,16,17
 1085 864 1085 864 1085 881 c 0,18,19
 1085 907 1085 907 1078 928 c 0,20,21
 1039 1051 1039 1051 861 1051 c 0,22,23
 692 1051 692 1051 574 906 c 256,24,25
 465 773 465 773 417 550 c 0,26,27
 395 446 395 446 395 365 c 0,28,29
 395 265 395 265 429 202 c 256,30,31
 506 60 506 60 695 60 c 0,32,33
 911 60 911 60 1125 224 c 257,34,-1
 1131 218 l 1,35,36
 916 -20 916 -20 634 -20 c 0,0,1
EndSplineSet
Validated: 1
EndChar

StartChar: d
Encoding: 100 100 71
Width: 1268
GlyphClass: 2
Flags: W
HStem: 0 70<573.872 903> 0 10<1200.2 1208> 1090 10<964.898 972> 1500 10<1069 1076.8>
VStem: 203 198<231.178 642.387>
DStem2: 888.121 0 1067.61 0 0.207912 0.978148<188.098 1393.02>
LayerCount: 2
Fore
SplineSet
1208 0 m 1,0,-1
 708 0 l 2,1,2
 436 0 436 0 311 140 c 0,3,4
 203 259 203 259 203 425 c 0,5,6
 203 485 203 485 217 550 c 0,7,8
 272 808 272 808 485 960 c 0,9,10
 682 1100 682 1100 974 1100 c 9,11,-1
 972 1090 l 17,12,13
 739 1018 739 1018 610 890 c 0,14,15
 457 738 457 738 417 550 c 0,16,17
 401 476 401 476 401 411 c 0,18,19
 401 289 401 289 458 203 c 0,20,21
 546 70 546 70 743 70 c 2,22,-1
 903 70 l 1,23,-1
 1169 1320 l 2,24,25
 1174 1344 1174 1344 1174 1364 c 0,26,27
 1174 1461 1174 1461 1067 1500 c 1,28,-1
 1069 1510 l 1,29,-1
 1389 1510 l 1,30,-1
 1108 190 l 2,31,32
 1103 166 1103 166 1103 146 c 0,33,34
 1103 49 1103 49 1210 10 c 1,35,-1
 1208 0 l 1,0,-1
EndSplineSet
Validated: 1
EndChar

StartChar: e
Encoding: 101 101 72
Width: 1185
GlyphClass: 2
Flags: W
HStem: -20 80<529.699 851.03> 515 70<425 903> 1051 69<712.343 1004.08>
VStem: 201 194<201.354 513.378>
LayerCount: 2
Fore
SplineSet
634 -20 m 0,0,1
 380 -20 380 -20 265 164 c 0,2,3
 201 268 201 268 201 404 c 0,4,5
 201 473 201 473 217 550 c 0,6,7
 265 778 265 778 429 936 c 0,8,9
 621 1120 621 1120 876 1120 c 0,10,11
 1134 1120 1134 1120 1250 926 c 1,12,-1
 1063 773 l 1,13,-1
 1058 779 l 1,14,15
 1077 814 1077 814 1082 846 c 0,16,17
 1085 864 1085 864 1085 881 c 0,18,19
 1085 907 1085 907 1078 928 c 0,20,21
 1034 1051 1034 1051 861 1051 c 0,22,23
 692 1051 692 1051 574 906 c 0,24,25
 473 784 473 784 425 585 c 1,26,-1
 918 585 l 1,27,-1
 903 515 l 1,28,-1
 410 515 l 1,29,30
 395 432 395 432 395 365 c 0,31,32
 395 265 395 265 429 202 c 0,33,34
 506 60 506 60 695 60 c 0,35,36
 911 60 911 60 1125 224 c 1,37,-1
 1131 218 l 1,38,39
 916 -20 916 -20 634 -20 c 0,0,1
EndSplineSet
Validated: 1
EndChar

StartChar: g
Encoding: 103 103 73
Width: 1268
GlyphClass: 2
Flags: W
HStem: -410 10<373 387.162> 0 10<730.913 740> 1030 70<765.28 1107>
VStem: 202 203<241.834 646.712>
DStem2: 800.654 -410 980.654 -410 0.207912 0.978148<351.051 1472.23>
LayerCount: 2
Fore
SplineSet
740 0 m 17,0,1
 448 0 448 0 311 140 c 0,2,3
 202 251 202 251 202 419 c 0,4,5
 202 481 202 481 217 550 c 0,6,7
 270 798 270 798 485 960 c 0,8,9
 670 1100 670 1100 942 1100 c 2,10,-1
 1302 1100 l 1,11,-1
 1105 175 l 2,12,13
 981 -410 981 -410 371 -410 c 1,14,-1
 373 -400 l 1,15,16
 829 -279 829 -279 925 175 c 2,17,-1
 1107 1030 l 1,18,-1
 947 1030 l 2,19,20
 750 1030 750 1030 606 897 c 0,21,22
 463 765 463 765 417 550 c 0,23,24
 405 492 405 492 405 437 c 0,25,26
 405 315 405 315 466 210 c 0,27,28
 540 82 540 82 742 10 c 9,29,-1
 740 0 l 17,0,1
EndSplineSet
Validated: 1
EndChar

StartChar: h
Encoding: 104 104 74
Width: 1268
GlyphClass: 2
Flags: W
HStem: 0 21G<200 384.252 704 805.5> 1030 70<614 928.128> 1500 10<381 388.796>
VStem: 200 180<0 180> 1101 198<450.858 866.861>
DStem2: 195.749 -20 375.749 -20 0.207912 0.978148<57.8709 1110.9 1182.48 1413.49>
LayerCount: 2
Fore
SplineSet
200 0 m 1,0,-1
 481 1320 l 2,1,2
 486 1344 486 1344 486 1364 c 0,3,4
 486 1461 486 1461 379 1500 c 1,5,-1
 381 1510 l 1,6,-1
 701 1510 l 1,7,-1
 614 1100 l 1,8,-1
 794 1100 l 2,9,10
 1066 1100 1066 1100 1191 960 c 0,11,12
 1299 839 1299 839 1299 674 c 0,13,14
 1299 615 1299 615 1285 550 c 0,15,16
 1235 317 1235 317 1034 150 c 0,17,18
 897 36 897 36 714 -20 c 1,19,-1
 704 -20 l 1,20,21
 877 118 877 118 973 273 c 0,22,23
 1053 402 1053 402 1085 550 c 0,24,25
 1101 624 1101 624 1101 689 c 0,26,27
 1101 811 1101 811 1044 897 c 0,28,29
 957 1030 957 1030 759 1030 c 2,30,-1
 599 1030 l 1,31,-1
 380 0 l 1,32,-1
 200 0 l 1,0,-1
EndSplineSet
Validated: 1
EndChar

StartChar: i
Encoding: 105 105 75
Width: 580
GlyphClass: 2
Flags: W
HStem: 0 10<512.204 520> 1090 10<294 304.836> 1200 264<484.398 641.602>
VStem: 430 266<1253.52 1410.48>
DStem2: 200 0 379.614 0 0.207912 0.978148<188.123 974.655>
LayerCount: 2
Fore
SplineSet
200 0 m 1,0,-1
 393 910 l 2,1,2
 398 934 398 934 398 955 c 0,3,4
 398 1052 398 1052 292 1090 c 1,5,-1
 294 1100 l 1,6,-1
 614 1100 l 1,7,-1
 420 190 l 2,8,9
 415 166 415 166 415 146 c 0,10,11
 415 49 415 49 522 10 c 1,12,-1
 520 0 l 1,13,-1
 200 0 l 1,0,-1
591 1464 m 128,-1,15
 645 1464 645 1464 675 1426 c 0,16,17
 696 1398 696 1398 696 1362 c 0,18,19
 696 1348 696 1348 693 1332 c 0,20,21
 681 1277 681 1277 635 1238.5 c 128,-1,22
 589 1200 589 1200 535 1200 c 128,-1,23
 481 1200 481 1200 451 1238 c 0,24,25
 430 1266 430 1266 430 1302 c 0,26,27
 430 1316 430 1316 433 1332 c 0,28,29
 445 1387 445 1387 491 1425.5 c 128,-1,14
 537 1464 537 1464 591 1464 c 128,-1,15
EndSplineSet
Validated: 1
EndChar

StartChar: j
Encoding: 106 106 76
Width: 580
GlyphClass: 2
Flags: W
HStem: -410 10<-65 -55.8206> 1090 10<294 304.836> 1200 264<484.398 641.602>
VStem: 430 266<1253.52 1410.48>
DStem2: 112.794 -410 292.794 -410 0.207912 0.978148<176.1 1393.83>
LayerCount: 2
Fore
SplineSet
591 1464 m 128,-1,1
 645 1464 645 1464 675 1426 c 0,2,3
 696 1398 696 1398 696 1362 c 0,4,5
 696 1348 696 1348 693 1332 c 0,6,7
 681 1277 681 1277 635 1238.5 c 128,-1,8
 589 1200 589 1200 535 1200 c 128,-1,9
 481 1200 481 1200 451 1238 c 0,10,11
 430 1266 430 1266 430 1302 c 0,12,13
 430 1316 430 1316 433 1332 c 0,14,15
 445 1387 445 1387 491 1425.5 c 128,-1,0
 537 1464 537 1464 591 1464 c 128,-1,1
-67 -410 m 1,16,-1
 -65 -400 l 1,17,18
 128 -341 128 -341 184 -75 c 2,19,-1
 393 910 l 2,20,21
 398 934 398 934 398 955 c 0,22,23
 398 1052 398 1052 292 1090 c 1,24,-1
 294 1100 l 1,25,-1
 614 1100 l 1,26,-1
 364 -75 l 2,27,28
 293 -410 293 -410 -67 -410 c 1,16,-1
EndSplineSet
Validated: 1
EndChar

StartChar: k
Encoding: 107 107 77
Width: 1274
GlyphClass: 2
Flags: W
HStem: 0 21G<200 384.252 955.069 1254> 1090 10<942 948.49> 1500 10<381 388.796>
VStem: 200 180<0 180> 977 277<0 277> 1078 202<715.778 1011.93>
DStem2: 200 0 380 0 0.207912 0.978148<37.4241 1393.04> 850 353 693 259 0.753038 -0.657977<0 327.902>
LayerCount: 2
Fore
SplineSet
1254 0 m 1,0,-1
 977 0 l 1,1,-1
 693 259 l 1,2,-1
 458 184 l 1,3,-1
 455 192 l 1,4,5
 670 322 670 322 837 454 c 0,6,7
 1027 604 1027 604 1070 810 c 0,8,9
 1078 847 1078 847 1078 880 c 0,10,11
 1078 1019 1078 1019 940 1090 c 1,12,-1
 942 1100 l 1,13,14
 1280 1100 1280 1100 1280 886 c 0,15,16
 1280 852 1280 852 1271 812 c 0,17,18
 1218 571 1218 571 850 353 c 1,19,-1
 1254 0 l 1,0,-1
200 0 m 1,20,-1
 481 1320 l 2,21,22
 486 1344 486 1344 486 1364 c 0,23,24
 486 1461 486 1461 379 1500 c 1,25,-1
 381 1510 l 1,26,-1
 701 1510 l 1,27,-1
 380 0 l 1,28,-1
 200 0 l 1,20,-1
EndSplineSet
Validated: 1
EndChar

StartChar: l
Encoding: 108 108 78
Width: 580
GlyphClass: 2
Flags: W
HStem: 0 10<512.204 520> 1500 10<381 388.796>
VStem: 200 501
DStem2: 200 0 379.614 0 0.207912 0.978148<188.123 1393.04>
LayerCount: 2
Fore
SplineSet
200 0 m 1,0,-1
 481 1320 l 2,1,2
 486 1344 486 1344 486 1364 c 0,3,4
 486 1461 486 1461 379 1500 c 1,5,-1
 381 1510 l 1,6,-1
 701 1510 l 1,7,-1
 420 190 l 2,8,9
 415 166 415 166 415 146 c 0,10,11
 415 49 415 49 522 10 c 1,12,-1
 520 0 l 1,13,-1
 200 0 l 1,0,-1
EndSplineSet
Validated: 1
EndChar

StartChar: m
Encoding: 109 109 79
Width: 1745
GlyphClass: 2
Flags: W
HStem: 0 21G<200 384.252 787 971.259 1181 1282.5> 1030 70<599 1405.13> 1090 10<294 304.836>
VStem: 200 180<0 180> 787 180<0 180> 968 180<670 850> 1578 198<450.858 866.861>
DStem2: 195.749 -20 375.749 -20 0.207912 0.978148<57.8709 995.101> 782.749 -20 962.749 -20 0.207912 0.978148<57.8709 889.504>
LayerCount: 2
Fore
SplineSet
200 0 m 1,0,-1
 393 910 l 2,1,2
 398 934 398 934 398 955 c 0,3,4
 398 1052 398 1052 292 1090 c 1,5,-1
 294 1100 l 1,6,-1
 1271 1100 l 2,7,8
 1543 1100 1543 1100 1668 960 c 0,9,10
 1776 839 1776 839 1776 674 c 0,11,12
 1776 615 1776 615 1762 550 c 0,13,14
 1712 317 1712 317 1511 150 c 0,15,16
 1374 36 1374 36 1191 -20 c 1,17,-1
 1181 -20 l 1,18,19
 1354 118 1354 118 1450 273 c 0,20,21
 1530 402 1530 402 1562 550 c 0,22,23
 1578 624 1578 624 1578 689 c 0,24,25
 1578 811 1578 811 1521 897 c 0,26,27
 1434 1030 1434 1030 1236 1030 c 2,28,-1
 599 1030 l 1,29,-1
 380 0 l 1,30,-1
 200 0 l 1,0,-1
787 0 m 1,31,-1
 968 850 l 1,32,-1
 1148 850 l 1,33,-1
 967 0 l 1,34,-1
 787 0 l 1,31,-1
EndSplineSet
Validated: 1
EndChar

StartChar: n
Encoding: 110 110 80
Width: 1268
GlyphClass: 2
Flags: W
HStem: 0 21G<200 384.252 704 805.5> 1030 70<599 928.128> 1090 10<294 304.836>
VStem: 200 180<0 180> 1101 198<450.858 866.861>
DStem2: 195.749 -20 375.749 -20 0.207912 0.978148<57.8709 995.101>
LayerCount: 2
Fore
SplineSet
200 0 m 1,0,-1
 393 910 l 2,1,2
 398 934 398 934 398 955 c 0,3,4
 398 1052 398 1052 292 1090 c 1,5,-1
 294 1100 l 1,6,-1
 794 1100 l 2,7,8
 1066 1100 1066 1100 1191 960 c 0,9,10
 1299 839 1299 839 1299 674 c 0,11,12
 1299 615 1299 615 1285 550 c 0,13,14
 1235 317 1235 317 1034 150 c 0,15,16
 897 36 897 36 714 -20 c 1,17,-1
 704 -20 l 1,18,19
 877 118 877 118 973 273 c 0,20,21
 1053 402 1053 402 1085 550 c 0,22,23
 1101 624 1101 624 1101 689 c 0,24,25
 1101 811 1101 811 1044 897 c 0,26,27
 957 1030 957 1030 759 1030 c 2,28,-1
 599 1030 l 1,29,-1
 380 0 l 1,30,-1
 200 0 l 1,0,-1
EndSplineSet
Validated: 1
EndChar

StartChar: o
Encoding: 111 111 81
Width: 1276
GlyphClass: 2
Flags: W
HStem: -20 69<512.061 798.215> 1051 69<711.469 997.872>
VStem: 201 194<200.874 637.823> 1115 194<462.177 899.141>
LayerCount: 2
Fore
SplineSet
648 49 m 128,-1,1
 819 49 819 49 936 194 c 256,2,3
 1046 330 1046 330 1093 550 c 0,4,5
 1115 654 1115 654 1115 740 c 0,6,7
 1115 835 1115 835 1088 906 c 256,8,9
 1033 1051 1033 1051 861.5 1051 c 128,-1,10
 690 1051 690 1051 574 906 c 256,11,12
 464 770 464 770 417 550 c 0,13,14
 395 446 395 446 395 360 c 0,15,16
 395 265 395 265 422 194 c 256,17,0
 477 49 477 49 648 49 c 128,-1,1
634 -20 m 128,-1,19
 377 -20 377 -20 265 164 c 0,20,21
 201 269 201 269 201 406 c 0,22,23
 201 474 201 474 217 550 c 0,24,25
 265 778 265 778 429 936 c 0,26,27
 619 1120 619 1120 876 1120 c 128,-1,28
 1133 1120 1133 1120 1245 936 c 0,29,30
 1309 831 1309 831 1309 695 c 0,31,32
 1308 626 1308 626 1292 550 c 0,33,34
 1244 322 1244 322 1081 164 c 0,35,18
 891 -20 891 -20 634 -20 c 128,-1,19
EndSplineSet
Validated: 1
EndChar

StartChar: p
Encoding: 112 112 82
Width: 1268
GlyphClass: 2
Flags: W
HStem: -410 21G<113 297.25> 0 10<530 537.102> 1030 70<599 928.128> 1090 10<294 304.836>
VStem: 113 180<-410 -230> 1101 198<457.613 868.822>
DStem2: 113 -410 293 -410 0.207912 0.978148<37.4241 1393.78>
LayerCount: 2
Fore
SplineSet
113 -410 m 25,0,-1
 393 910 l 2,1,2
 398 934 398 934 398 955 c 0,3,4
 398 1052 398 1052 292 1090 c 1,5,-1
 294 1100 l 1,6,-1
 794 1100 l 2,7,8
 1066 1100 1066 1100 1191 960 c 0,9,10
 1299 841 1299 841 1299 675 c 0,11,12
 1299 615 1299 615 1285 550 c 0,13,14
 1230 292 1230 292 1017 140 c 0,15,16
 820 0 820 0 528 0 c 9,17,-1
 530 10 l 17,18,19
 763 82 763 82 892 210 c 0,20,21
 1045 362 1045 362 1085 550 c 0,22,23
 1101 624 1101 624 1101 689 c 0,24,25
 1101 811 1101 811 1044 897 c 0,26,27
 956 1030 956 1030 759 1030 c 2,28,-1
 599 1030 l 1,29,-1
 293 -410 l 1,30,-1
 113 -410 l 25,0,-1
EndSplineSet
Validated: 1
EndChar

StartChar: q
Encoding: 113 113 83
Width: 1268
GlyphClass: 2
Flags: W
HStem: -410 10<1113.2 1121> 0 10<730.913 740> 1030 70<765.28 1107>
VStem: 202 203<241.834 646.712>
DStem2: 801 -410 980.614 -410 0.207912 0.978148<188.123 1472.15>
LayerCount: 2
Fore
SplineSet
1121 -410 m 1,0,-1
 801 -410 l 1,1,-1
 1107 1030 l 1,2,-1
 947 1030 l 2,3,4
 750 1030 750 1030 606 897 c 0,5,6
 463 765 463 765 417 550 c 0,7,8
 405 492 405 492 405 437 c 0,9,10
 405 315 405 315 466 210 c 0,11,12
 540 82 540 82 742 10 c 9,13,-1
 740 0 l 17,14,15
 448 0 448 0 311 140 c 0,16,17
 202 251 202 251 202 419 c 0,18,19
 202 481 202 481 217 550 c 0,20,21
 270 798 270 798 485 960 c 0,22,23
 670 1100 670 1100 942 1100 c 2,24,-1
 1302 1100 l 1,25,-1
 1021 -220 l 2,26,27
 1016 -244 1016 -244 1016 -264 c 0,28,29
 1016 -361 1016 -361 1123 -400 c 1,30,-1
 1121 -410 l 1,0,-1
EndSplineSet
Validated: 1
EndChar

StartChar: r
Encoding: 114 114 84
Width: 1067
GlyphClass: 2
Flags: W
HStem: 0 21G<200 384.252> 1030 70<599 880.125> 1090 10<294 304.836>
VStem: 200 180<0 180> 973 181<648.496 950.712>
DStem2: 200 0 380 0 0.207912 0.978148<37.4241 974.655>
LayerCount: 2
Fore
SplineSet
200 0 m 1,0,-1
 393 910 l 2,1,2
 398 934 398 934 398 955 c 0,3,4
 398 1052 398 1052 292 1090 c 1,5,-1
 294 1100 l 1,6,-1
 794 1100 l 2,7,8
 978 1100 978 1100 1074 1008 c 0,9,10
 1154 930 1154 930 1154 821 c 0,11,12
 1154 788 1154 788 1147 752 c 0,13,14
 1120 623 1120 623 1017 524 c 0,15,16
 882 393 882 393 712 393 c 1,17,-1
 714 403 l 1,18,19
 830 472 830 472 890 563 c 0,20,21
 945 646 945 646 965 742 c 0,22,23
 973 780 973 780 973 814 c 0,24,25
 973 887 973 887 936 942 c 0,26,27
 878 1030 878 1030 732 1030 c 2,28,-1
 599 1030 l 1,29,-1
 380 0 l 1,30,-1
 200 0 l 1,0,-1
EndSplineSet
Validated: 1
EndChar

StartChar: s
Encoding: 115 115 85
Width: 964
GlyphClass: 2
Flags: W
HStem: -20 69<351.13 603.488> 1051 69<616.083 806.646>
VStem: 397 150<794.86 961.631> 793 177<266.475 487.171>
DStem2: 812 662 535 618 0.87119 -0.490947<-324.899 93.1298>
LayerCount: 2
Fore
SplineSet
448 -20 m 0,0,1
 328 -20 328 -20 249 34 c 0,2,3
 157 98 157 98 126 218 c 1,4,-1
 313 371 l 1,5,-1
 319 365 l 1,6,7
 302 333 302 333 294 298 c 128,-1,8
 286 263 286 263 286 232 c 0,9,10
 286 194 286 194 298 161 c 0,11,12
 337 49 337 49 464 49 c 0,13,14
 593 49 593 49 691 148 c 0,15,16
 762 220 762 220 785 317 c 0,17,18
 793 349 793 349 793 376 c 0,19,20
 793 471 793 471 703 522 c 2,21,-1
 535 618 l 2,22,23
 397 697 397 697 397 817 c 0,24,25
 397 841 397 841 402 866 c 0,26,27
 426 979 426 979 536 1059 c 0,28,29
 620 1120 620 1120 744 1120 c 0,30,31
 863 1120 863 1120 918 1054 c 0,32,33
 950 1016 950 1016 961 964 c 1,34,-1
 806 838 l 1,35,-1
 800 844 l 1,36,37
 817 876 817 876 825 911 c 0,38,39
 829 931 829 931 829 948 c 0,40,41
 829 972 829 972 821 993 c 0,42,43
 798 1051 798 1051 724 1051 c 0,44,45
 660 1051 660 1051 615 1017 c 0,46,47
 566 980 566 980 551 917 c 0,48,49
 547 900 547 900 547 884 c 0,50,51
 547 812 547 812 631 764 c 2,52,-1
 812 662 l 2,53,54
 970 573 970 573 970 431 c 0,55,56
 970 401 970 401 963 370 c 0,57,58
 927 200 927 200 756 79 c 24,59,60
 616 -20 616 -20 448 -20 c 0,0,1
EndSplineSet
Validated: 1
EndChar

StartChar: t
Encoding: 116 116 86
Width: 750
GlyphClass: 2
Flags: W
HStem: 0 10<512.204 520> 1030 70<614 949> 1500 10<381 388.796>
DStem2: 200 0 379.614 0 0.207912 0.978148<188.123 1090.45 1162.04 1393.04>
LayerCount: 2
Fore
SplineSet
200 0 m 1,0,-1
 481 1320 l 2,1,2
 486 1344 486 1344 486 1364 c 0,3,4
 486 1461 486 1461 379 1500 c 1,5,-1
 381 1510 l 1,6,-1
 701 1510 l 1,7,-1
 614 1100 l 1,8,-1
 964 1100 l 1,9,-1
 949 1030 l 1,10,-1
 599 1030 l 1,11,-1
 420 190 l 2,12,13
 415 166 415 166 415 146 c 0,14,15
 415 49 415 49 522 10 c 1,16,-1
 520 0 l 1,17,-1
 200 0 l 1,0,-1
EndSplineSet
Validated: 1
EndChar

StartChar: u
Encoding: 117 117 87
Width: 1268
GlyphClass: 2
Flags: W
HStem: 0 70<573.872 903> 0 10<1200.2 1208> 1100 0G<696.5 798 1117.75 1302>
VStem: 203 198<233.139 649.142> 1122 180<920 1100>
DStem2: 888.121 0 1067.61 0 0.207912 0.978148<188.098 1124.59>
LayerCount: 2
Fore
SplineSet
1208 0 m 1,0,-1
 708 0 l 2,1,2
 436 0 436 0 311 140 c 0,3,4
 203 261 203 261 203 426 c 0,5,6
 203 485 203 485 217 550 c 0,7,8
 267 783 267 783 468 950 c 0,9,10
 605 1064 605 1064 788 1120 c 1,11,-1
 798 1120 l 1,12,13
 625 982 625 982 529 827 c 0,14,15
 449 698 449 698 417 550 c 0,16,17
 401 476 401 476 401 411 c 0,18,19
 401 289 401 289 458 203 c 0,20,21
 545 70 545 70 743 70 c 2,22,-1
 903 70 l 1,23,-1
 1122 1100 l 1,24,-1
 1302 1100 l 1,25,-1
 1108 190 l 2,26,27
 1103 166 1103 166 1103 146 c 0,28,29
 1103 49 1103 49 1210 10 c 1,30,-1
 1208 0 l 1,0,-1
EndSplineSet
Validated: 1
EndChar

StartChar: v
Encoding: 118 118 88
Width: 1356
GlyphClass: 2
Flags: W
HStem: 0 10<852.608 861> 1090 10<239 247.392 1016 1026.86>
VStem: 1223 206<669.682 980.027>
DStem2: 522 1100 371 949 0.213113 -0.977027<0 1086.66>
LayerCount: 2
Fore
SplineSet
861 0 m 1,0,-1
 578 0 l 1,1,-1
 371 949 l 2,2,3
 350 1045 350 1045 237 1090 c 9,4,-1
 239 1100 l 1,5,-1
 522 1100 l 1,6,-1
 729 151 l 2,7,8
 750 55 750 55 863 10 c 9,9,-1
 861 0 l 1,0,-1
1016 1100 m 1,10,11
 1429 1100 1429 1100 1429 850 c 0,12,13
 1429 811 1429 811 1419 765 c 0,14,15
 1351 462 1351 462 825 105 c 1,16,-1
 821 113 l 1,17,18
 1149 442 1149 442 1212 734 c 0,19,20
 1223 786 1223 786 1223 830 c 0,21,22
 1223 1025 1223 1025 1014 1090 c 1,23,-1
 1016 1100 l 1,10,11
EndSplineSet
Validated: 1
EndChar

StartChar: w
Encoding: 119 119 89
Width: 1896
GlyphClass: 2
Flags: W
HStem: 0 10<852.608 861 1392.61 1401> 1090 10<239 247.392 779 787.392 1556 1566.86>
VStem: 1763 206<669.682 980.027>
DStem2: 522 1100 371 949 0.213113 -0.977027<0 1086.66> 1062 1100 911 949 0.213113 -0.977027<0 1086.66>
LayerCount: 2
Fore
SplineSet
861 0 m 1,0,-1
 578 0 l 1,1,-1
 371 949 l 2,2,3
 350 1045 350 1045 237 1090 c 9,4,-1
 239 1100 l 1,5,-1
 522 1100 l 1,6,-1
 729 151 l 2,7,8
 750 55 750 55 863 10 c 9,9,-1
 861 0 l 1,0,-1
1401 0 m 1,10,-1
 1118 0 l 1,11,-1
 911 949 l 2,12,13
 890 1045 890 1045 777 1090 c 9,14,-1
 779 1100 l 1,15,-1
 1062 1100 l 1,16,-1
 1269 151 l 2,17,18
 1290 55 1290 55 1403 10 c 9,19,-1
 1401 0 l 1,10,-1
1556 1100 m 1,20,21
 1969 1100 1969 1100 1969 850 c 0,22,23
 1969 811 1969 811 1959 765 c 0,24,25
 1891 462 1891 462 1365 105 c 1,26,-1
 1361 113 l 1,27,28
 1689 442 1689 442 1752 734 c 0,29,30
 1763 786 1763 786 1763 830 c 0,31,32
 1763 1025 1763 1025 1554 1090 c 1,33,-1
 1556 1100 l 1,20,21
EndSplineSet
Validated: 1
EndChar

StartChar: x
Encoding: 120 120 90
Width: 1213
GlyphClass: 2
Flags: W
HStem: 0 21G<17 174.644 856.196 1065> 1080 20G<242 530.891 952 1107>
VStem: 17 127<0 127> 1068 192<754.611 1024.61>
DStem2: 17 0 144 0 0.836029 0.548685<106.176 759.364> 521 1100 400 951 0.443298 -0.896374<0 669.36 741.367 1138.95>
LayerCount: 2
Fore
SplineSet
17 0 m 1,0,-1
 660 422 l 1,1,-1
 400 951 l 2,2,3
 356 1041 356 1041 242 1090 c 1,4,-1
 244 1100 l 1,5,-1
 521 1100 l 1,6,-1
 1065 0 l 1,7,-1
 866 0 l 1,8,-1
 691 357 l 1,9,-1
 144 0 l 1,10,-1
 17 0 l 1,0,-1
954 1100 m 1,11,12
 1260 1100 1260 1100 1260 907 c 0,13,14
 1260 874 1260 874 1251 836 c 0,15,16
 1207 648 1207 648 865 478 c 1,17,-1
 860 486 l 1,18,19
 1033 711 1033 711 1060 834 c 0,20,21
 1068 871 1068 871 1068 904 c 0,22,23
 1068 1030 1068 1030 952 1090 c 1,24,-1
 954 1100 l 1,11,12
EndSplineSet
Validated: 1
EndChar

StartChar: y
Encoding: 121 121 91
Width: 1268
GlyphClass: 2
Flags: W
HStem: -410 10<373 384.195> 0 70<573.092 869> 1100 0G<696.5 798 1117.74 1302>
VStem: 203 198<233.433 649.142> 1122 180<920 1100>
DStem2: 800.654 -410 980.654 -410 0.207912 0.978148<491.182 1543.81>
LayerCount: 2
Fore
SplineSet
708 0 m 2,0,1
 434 0 434 0 311 140 c 0,2,3
 203 262 203 262 203 427 c 0,4,5
 203 486 203 486 217 550 c 0,6,7
 267 783 267 783 468 950 c 0,8,9
 605 1064 605 1064 788 1120 c 1,10,-1
 798 1120 l 1,11,12
 625 982 625 982 529 827 c 0,13,14
 449 698 449 698 417 550 c 0,15,16
 401 476 401 476 401 411 c 0,17,18
 401 289 401 289 458 203 c 0,19,20
 545 70 545 70 743 70 c 2,21,-1
 897 70 l 1,22,23
 914 120 914 120 925 175 c 2,24,-1
 1122 1100 l 1,25,-1
 1302 1100 l 1,26,-1
 1105 175 l 2,27,28
 981 -410 981 -410 371 -410 c 1,29,-1
 373 -400 l 1,30,31
 733 -304 733 -304 869 0 c 1,32,-1
 708 0 l 2,0,1
EndSplineSet
Validated: 1
EndChar

StartChar: z
Encoding: 122 122 92
Width: 1130
GlyphClass: 2
Flags: W
HStem: 0 90<99 948.813> 1030 70<450 865.282>
VStem: 349 10<890 898.613> 946 208<698.794 972.513> 1015 10<202.617 210>
LayerCount: 2
Fore
SplineSet
80 0 m 1,0,-1
 99 90 l 1,1,-1
 809 90 l 10,2,3
 942 90 942 90 1015 210 c 1,4,-1
 1025 210 l 1,5,-1
 980 0 l 1,6,-1
 80 0 l 1,0,-1
394 1100 m 1,7,-1
 733 1100 l 2,8,9
 1154 1100 1154 1100 1154 854 c 0,10,11
 1154 819 1154 819 1146 779 c 0,12,13
 1067 406 1067 406 226 149 c 1,14,-1
 223 158 l 1,15,16
 870 473 870 473 938 790 c 0,17,18
 946 827 946 827 946 858 c 0,19,20
 946 1030 946 1030 708 1030 c 2,21,-1
 569 1030 l 2,22,23
 436 1030 436 1030 359 890 c 1,24,-1
 349 890 l 1,25,-1
 394 1100 l 1,7,-1
EndSplineSet
Validated: 1
EndChar

StartChar: braceleft
Encoding: 123 123 93
Width: 818
GlyphClass: 2
Flags: W
HStem: -250 80<561.73 715> 715 80<219 388> 1680 80<943.864 1125>
VStem: 264 195<-83.7354 337.773>
DStem2: 183.35 -250 378.35 -250 0.207912 0.978148<374.999 986.462 1068.25 1825.83>
CounterMasks: 1 e0
LayerCount: 2
Fore
SplineSet
715 -250 m 1,0,1
 264 -250 264 -250 264 73 c 0,2,3
 264 131 264 131 279 200 c 2,4,-1
 388 715 l 1,5,-1
 202 715 l 1,6,-1
 219 795 l 1,7,-1
 405 795 l 1,8,-1
 514 1310 l 2,9,10
 610 1760 610 1760 1142 1760 c 1,11,-1
 1125 1680 l 1,12,13
 788 1680 788 1680 709 1310 c 2,14,-1
 474 200 l 2,15,16
 459 130 459 130 459 73 c 0,17,18
 459 -170 459 -170 732 -170 c 1,19,-1
 715 -250 l 1,0,1
EndSplineSet
Validated: 1
EndChar

StartChar: bar
Encoding: 124 124 94
Width: 650
GlyphClass: 2
Flags: W
VStem: 212 150<-180 -30> 609 150<1540 1690>
DStem2: 212 -180 362 -180 0.207912 0.978148<31.1868 1911.68>
LayerCount: 2
Fore
SplineSet
212 -180 m 1,0,-1
 609 1690 l 1,1,-1
 759 1690 l 1,2,-1
 362 -180 l 1,3,-1
 212 -180 l 1,0,-1
EndSplineSet
Validated: 1
EndChar

StartChar: braceright
Encoding: 125 125 95
Width: 818
GlyphClass: 2
Flags: W
HStem: -250 80<14 195.136> 715 80<751 920> 1680 80<424 577.27>
VStem: 680 195<1172.23 1593.74>
DStem2: 334.35 -250 529.35 -250 0.207912 0.978148<269.423 1027 1108.79 1720.25>
CounterMasks: 1 e0
LayerCount: 2
Fore
SplineSet
-3 -250 m 1,0,1
 14 -170 l 1,2,3
 351 -170 351 -170 430 200 c 2,4,-1
 665 1310 l 2,5,6
 680 1380 680 1380 680 1437 c 0,7,8
 680 1680 680 1680 407 1680 c 1,9,-1
 424 1760 l 1,10,11
 875 1760 875 1760 875 1437 c 0,12,13
 875 1379 875 1379 860 1310 c 2,14,-1
 751 795 l 1,15,-1
 937 795 l 1,16,-1
 920 715 l 1,17,-1
 734 715 l 1,18,-1
 625 200 l 2,19,20
 529 -250 529 -250 -3 -250 c 1,0,1
EndSplineSet
Validated: 1
EndChar

StartChar: asciitilde
Encoding: 126 126 96
Width: 1183
GlyphClass: 2
Flags: W
HStem: 593 141<865.15 1053.91> 766 141<449.408 639.486>
DStem2: 690 878 612 737 0.868777 -0.495203<-86.9014 320.559>
LayerCount: 2
Fore
SplineSet
1140 908 m 1,0,-1
 1226 908 l 1,1,2
 1105 593 1105 593 932 593 c 0,3,4
 865 593 865 593 807 626 c 2,5,-1
 612 737 l 2,6,7
 561 766 561 766 525 766 c 0,8,9
 439 766 439 766 362 593 c 1,10,-1
 276 593 l 1,11,12
 397 907 397 907 576 907 c 0,13,14
 639 907 639 907 690 878 c 2,15,-1
 890 764 l 2,16,17
 943 734 943 734 978 734 c 0,18,19
 1063 734 1063 734 1140 908 c 1,0,-1
EndSplineSet
Validated: 1
EndChar

StartChar: exclamdown
Encoding: 161 161 98
Width: 692
GlyphClass: 2
Flags: W
HStem: 856 264<477.398 634.602>
VStem: 423 267<911.33 1066.48>
LayerCount: 2
Fore
SplineSet
255 -430 m 128,-1,1
 201 -430 201 -430 171 -392 c 0,2,3
 150 -364 150 -364 150 -328 c 0,4,5
 150 -314 150 -314 153 -298 c 128,-1,6
 156 -282 156 -282 162 -265 c 2,7,-1
 500 757 l 1,8,-1
 514 757 l 1,9,-1
 418 -265 l 2,10,11
 416 -282 416 -282 413 -298 c 0,12,13
 401 -353 401 -353 355 -391.5 c 128,-1,0
 309 -430 309 -430 255 -430 c 128,-1,1
584 1120 m 128,-1,15
 638 1120 638 1120 668 1082 c 0,16,17
 690 1054 690 1054 690 1017 c 0,18,19
 690 1003 690 1003 686 988 c 0,20,21
 674 933 674 933 628 894.5 c 128,-1,22
 582 856 582 856 528 856 c 128,-1,23
 474 856 474 856 444 894 c 0,24,25
 423 922 423 922 423 958 c 0,26,27
 423 973 423 973 426 988 c 0,28,29
 438 1043 438 1043 484 1081.5 c 128,-1,14
 530 1120 530 1120 584 1120 c 128,-1,15
EndSplineSet
Validated: 1
EndChar

StartChar: cent
Encoding: 162 162 99
Width: 1185
GlyphClass: 2
Flags: W
HStem: -20 80<531 583 670 846.781> 1051 69<713.062 810 895 1002.07>
VStem: 201 194<199.732 638.309> 566 70<-100 -30> 842 70<1130 1200>
DStem2: 566 -100 636 -100 0.207912 0.978148<14.5538 83.7426 179.105 1172.67 1261.74 1328.98>
LayerCount: 2
Fore
SplineSet
636 -100 m 1,0,-1
 566 -100 l 1,1,-1
 583 -18 l 1,2,3
 368 -1 368 -1 265 164 c 0,4,5
 201 268 201 268 201 404 c 0,6,7
 201 473 201 473 217 550 c 0,8,9
 265 778 265 778 429 936 c 0,10,11
 601 1101 601 1101 825 1118 c 1,12,-1
 842 1200 l 1,13,-1
 912 1200 l 1,14,-1
 895 1120 l 1,15,16
 1139 1113 1139 1113 1250 926 c 1,17,-1
 1063 773 l 1,18,-1
 1058 779 l 1,19,20
 1077 814 1077 814 1082 846 c 0,21,22
 1086 865 1086 865 1086 882 c 0,23,24
 1086 907 1086 907 1078 928 c 0,25,26
 1037 1044 1037 1044 880 1051 c 1,27,-1
 670 61 l 1,28,29
 682 60 682 60 695 60 c 0,30,31
 911 60 911 60 1125 224 c 1,32,-1
 1131 218 l 1,33,34
 923 -12 923 -12 653 -20 c 1,35,-1
 636 -100 l 1,0,-1
602 70 m 1,36,-1
 810 1047 l 1,37,38
 674 1028 674 1028 574 906 c 0,39,40
 465 773 465 773 417 550 c 0,41,42
 395 446 395 446 395 365 c 0,43,44
 395 265 395 265 429 202 c 0,45,46
 485 98 485 98 602 70 c 1,36,-1
EndSplineSet
Validated: 1
EndChar

StartChar: sterling
Encoding: 163 163 100
Width: 1263
GlyphClass: 2
Flags: W
HStem: 0 80<117 217 417 1115.51> 685 80<563 1018> 1461 69<900.845 1191.69>
VStem: 1200 10<211.387 220>
DStem2: 199.995 0 399.995 0 0.207912 0.978148<123.37 741.969 823.756 1239.34>
LayerCount: 2
Fore
SplineSet
100 0 m 1,0,-1
 117 80 l 1,1,-1
 217 80 l 1,2,-1
 404 960 l 2,3,4
 453 1189 453 1189 616 1346 c 0,5,6
 808 1530 808 1530 1063 1530 c 0,7,8
 1321 1530 1321 1530 1437 1336 c 1,9,-1
 1250 1183 l 1,10,-1
 1245 1189 l 1,11,12
 1265 1227 1265 1227 1270 1259 c 0,13,14
 1273 1275 1273 1275 1273 1290 c 0,15,16
 1273 1316 1273 1316 1265 1338 c 0,17,18
 1223 1461 1223 1461 1049 1461 c 0,19,20
 889 1461 889 1461 770 1329 c 0,21,22
 655 1202 655 1202 604 960 c 2,23,-1
 563 765 l 1,24,-1
 1035 765 l 1,25,-1
 1018 685 l 1,26,-1
 546 685 l 1,27,-1
 417 80 l 1,28,-1
 990 80 l 2,29,30
 1123 80 1123 80 1200 220 c 1,31,-1
 1210 220 l 1,32,-1
 1163 0 l 1,33,-1
 100 0 l 1,0,-1
EndSplineSet
Validated: 1
EndChar

StartChar: currency
Encoding: 164 164 101
Width: 1594
GlyphClass: 2
Flags: W
HStem: 191 69<724.344 1015.4> 1262 69<924.001 1213.43>
VStem: 414 195<396.889 854.137> 1329 194<675.174 1121.16>
DStem2: 255 259 344 146 0.769133 0.639089<0 250.061 1490.71 1703.35> 601 1351 463 1237 0.61334 -0.789819<5.39855 184.778 1194.71 1382.59>
LayerCount: 2
Fore
SplineSet
862 260 m 128,-1,1
 1033 260 1033 260 1150 405 c 0,2,3
 1260 541 1260 541 1307 761 c 0,4,5
 1329 864 1329 864 1329 949 c 0,6,7
 1329 1045 1329 1045 1301 1117 c 0,8,9
 1246 1262 1246 1262 1075 1262 c 128,-1,10
 904 1262 904 1262 787 1117 c 0,11,12
 676 981 676 981 630 761 c 0,13,14
 609 661 609 661 609 572 c 0,15,16
 609 477 609 477 636 405 c 0,17,0
 691 260 691 260 862 260 c 128,-1,1
1090 1331 m 0,18,19
 1293 1331 1293 1331 1405 1216 c 1,20,-1
 1567 1351 l 1,21,-1
 1657 1237 l 1,22,-1
 1486 1094 l 1,23,24
 1523 1009 1523 1009 1523 905 c 0,25,26
 1523 837 1523 837 1507 761 c 0,27,28
 1464 559 1464 559 1331 412 c 1,29,-1
 1449 259 l 1,30,-1
 1312 146 l 1,31,-1
 1197 295 l 1,32,33
 1042 191 1042 191 848 191 c 0,34,35
 646 191 646 191 534 304 c 1,36,-1
 344 146 l 1,37,-1
 255 259 l 1,38,-1
 453 424 l 1,39,40
 414 510 414 510 414 615 c 0,41,42
 414 684 414 684 431 761 c 0,43,44
 470 944 470 944 583 1082 c 1,45,-1
 463 1237 l 1,46,-1
 601 1351 l 1,47,-1
 713 1207 l 1,48,49
 879 1331 879 1331 1090 1331 c 0,18,19
EndSplineSet
Validated: 1
EndChar

StartChar: yen
Encoding: 165 165 102
Width: 1477
GlyphClass: 2
Flags: W
HStem: 0 21G<660 864.236> 288 80<462 721 938 1196> 448 80<496 755 964 1230> 1500 10<326 335.606 1259 1267.4>
VStem: 660 200<0 200> 1426 211<1083.25 1402.49>
DStem2: 642 1510 482 1361 0.311579 -0.95022<0 969.571> 660 0 860 0 0.207912 0.978148<41.5823 294.389 417.758 457.962>
LayerCount: 2
Fore
SplineSet
1259 1510 m 1,0,1
 1637 1510 1637 1510 1637 1262 c 0,2,3
 1637 1220 1637 1220 1626 1170 c 0,4,5
 1564 896 1564 896 1031 576 c 1,6,-1
 1027 584 l 1,7,8
 1358 894 1358 894 1416 1170 c 0,9,10
 1426 1218 1426 1218 1426 1261 c 0,11,12
 1426 1432 1426 1432 1257 1500 c 1,13,-1
 1259 1510 l 1,0,1
660 0 m 1,14,-1
 721 288 l 1,15,-1
 445 288 l 1,16,-1
 462 368 l 1,17,-1
 738 368 l 1,18,-1
 755 448 l 1,19,-1
 479 448 l 1,20,-1
 496 528 l 1,21,-1
 759 528 l 1,22,-1
 482 1361 l 2,23,24
 450 1457 450 1457 324 1500 c 1,25,-1
 326 1510 l 1,26,-1
 642 1510 l 1,27,-1
 964 528 l 1,28,-1
 1247 528 l 1,29,-1
 1230 448 l 1,30,-1
 955 448 l 1,31,-1
 938 368 l 1,32,-1
 1213 368 l 1,33,-1
 1196 288 l 1,34,-1
 921 288 l 1,35,-1
 860 0 l 1,36,-1
 660 0 l 1,14,-1
EndSplineSet
Validated: 1
EndChar

StartChar: brokenbar
Encoding: 166 166 103
Width: 650
GlyphClass: 2
Flags: W
VStem: 212 150<-180 -30> 388 150<497 647> 433 150<862 1012> 609 150<1540 1690>
DStem2: 212 -180 362 -180 0.207912 0.978148<31.1868 845.521 1096.37 1911.68>
LayerCount: 2
Fore
SplineSet
212 -180 m 1,0,-1
 388 647 l 1,1,-1
 538 647 l 1,2,-1
 362 -180 l 1,3,-1
 212 -180 l 1,0,-1
609 1690 m 1,4,-1
 759 1690 l 1,5,-1
 583 862 l 1,6,-1
 433 862 l 1,7,-1
 609 1690 l 1,4,-1
EndSplineSet
Validated: 1
EndChar

StartChar: section
Encoding: 167 167 104
Width: 1104
GlyphClass: 2
Flags: W
HStem: -20 69<461.326 651.917> 1461 69<773.083 963.674>
VStem: 298 176<612.053 833.727> 554 150<1201.91 1371.7> 721 150<138.297 308.093> 951 176<676.273 897.947>
DStem2: 563 578 455 438 0.872342 -0.488895<-118.261 300.036> 788 1174 693 1028 0.872342 -0.488895<-117.17 300.615>
LayerCount: 2
Fore
SplineSet
524 -20 m 0,0,1
 405 -20 405 -20 350 46 c 0,2,3
 318 84 318 84 307 136 c 1,4,-1
 462 262 l 1,5,-1
 467 256 l 1,6,7
 450 224 450 224 443 189 c 0,8,9
 439 169 439 169 439 152 c 0,10,11
 439 128 439 128 447 107 c 0,12,13
 470 49 470 49 543 49 c 0,14,15
 607 49 607 49 653 83 c 0,16,17
 704 121 704 121 717 183 c 0,18,19
 721 200 721 200 721 215 c 0,20,21
 721 289 721 289 637 336 c 2,22,-1
 455 438 l 2,23,24
 298 526 298 526 298 668 c 0,25,26
 298 698 298 698 305 730 c 0,27,28
 341 900 341 900 512 1021 c 1,29,-1
 576 952 l 1,30,31
 506 881 506 881 482 783 c 0,32,33
 474 751 474 751 474 722 c 0,34,35
 474 628 474 628 563 578 c 2,36,-1
 732 482 l 2,37,38
 871 403 871 403 871 283 c 0,39,40
 871 259 871 259 866 234 c 0,41,42
 842 121 842 121 732 41 c 0,43,44
 648 -20 648 -20 524 -20 c 0,0,1
901 1530 m 0,45,46
 1020 1530 1020 1530 1075 1464 c 0,47,48
 1107 1426 1107 1426 1118 1374 c 1,49,-1
 963 1248 l 1,50,-1
 958 1254 l 1,51,52
 975 1286 975 1286 982 1321 c 0,53,54
 986 1341 986 1341 986 1358 c 0,55,56
 986 1382 986 1382 978 1403 c 0,57,58
 955 1461 955 1461 882 1461 c 0,59,60
 818 1461 818 1461 772 1427 c 0,61,62
 721 1389 721 1389 708 1327 c 0,63,64
 704 1310 704 1310 704 1295 c 0,65,66
 704 1221 704 1221 788 1174 c 2,67,-1
 970 1072 l 2,68,69
 1127 984 1127 984 1127 842 c 0,70,71
 1127 812 1127 812 1120 780 c 0,72,73
 1084 610 1084 610 913 489 c 1,74,-1
 849 558 l 1,75,76
 919 629 919 629 943 727 c 0,77,78
 951 759 951 759 951 788 c 0,79,80
 951 882 951 882 862 932 c 2,81,-1
 693 1028 l 2,82,83
 554 1107 554 1107 554 1227 c 0,84,85
 554 1251 554 1251 559 1276 c 0,86,87
 583 1389 583 1389 693 1469 c 0,88,89
 777 1530 777 1530 901 1530 c 0,45,46
EndSplineSet
Validated: 1
EndChar

StartChar: dieresis
Encoding: 168 168 105
Width: 572
GlyphClass: 2
Flags: W
HStem: 1225 212<365.124 508.558 629.124 772.558>
VStem: 331 212<1259.49 1403.07> 595 212<1259.49 1403.07>
LayerCount: 2
Fore
SplineSet
723 1437 m 128,-1,1
 766 1437 766 1437 790 1406 c 0,2,3
 807 1383 807 1383 807 1354 c 0,4,5
 807 1343 807 1343 805 1331 c 0,6,7
 796 1287 796 1287 758.5 1256 c 128,-1,8
 721 1225 721 1225 678 1225 c 0,9,10
 636 1225 636 1225 612 1256 c 0,11,12
 595 1278 595 1278 595 1308 c 0,13,14
 595 1319 595 1319 597 1331 c 0,15,16
 606 1375 606 1375 643 1406 c 128,-1,0
 680 1437 680 1437 723 1437 c 128,-1,1
459 1437 m 128,-1,18
 502 1437 502 1437 526 1406 c 0,19,20
 543 1383 543 1383 543 1354 c 0,21,22
 543 1343 543 1343 541 1331 c 0,23,24
 532 1287 532 1287 494.5 1256 c 128,-1,25
 457 1225 457 1225 414 1225 c 0,26,27
 372 1225 372 1225 348 1256 c 0,28,29
 331 1278 331 1278 331 1308 c 0,30,31
 331 1319 331 1319 333 1331 c 0,32,33
 342 1375 342 1375 379 1406 c 128,-1,17
 416 1437 416 1437 459 1437 c 128,-1,18
EndSplineSet
Validated: 1
EndChar

StartChar: copyright
Encoding: 169 169 106
Width: 1401
GlyphClass: 2
Flags: W
HStem: 386 55<628.513 955.742> 564 56<751.031 983.613> 1103 21G<1118 1150.09> 1297 50<874.188 1072.75> 1475 55<850.625 1173.02>
VStem: 338 60<669.427 1004.36> 497 152<703.02 1064.78> 1408 61<899.825 1239.02>
LayerCount: 2
Fore
SplineSet
994 1347 m 0,0,1
 1185 1347 1185 1347 1268 1217 c 1,2,-1
 1125 1103 l 1,3,-1
 1118 1109 l 1,4,5
 1125 1125 1125 1125 1127 1136 c 0,6,7
 1129 1145 1129 1145 1129 1163 c 0,8,9
 1129 1197 1129 1197 1111 1230 c 0,10,11
 1075 1297 1075 1297 975 1297 c 0,12,13
 868 1297 868 1297 779 1198 c 24,14,15
 687 1096 687 1096 659 960 c 0,16,17
 649 911 649 911 649 868 c 0,18,19
 649 786 649 786 682 722 c 0,20,21
 734 620 734 620 866 620 c 0,22,23
 1040 620 1040 620 1191 745 c 1,24,-1
 1198 739 l 1,25,26
 1044 564 1044 564 820 564 c 0,27,28
 625 564 625 564 545 686 c 0,29,30
 497 759 497 759 497 857 c 0,31,32
 497 905 497 905 508 958 c 0,33,34
 543 1124 543 1124 660 1227 c 0,35,36
 795 1347 795 1347 994 1347 c 0,0,1
1026 1530 m 0,37,38
 1268 1530 1268 1530 1387 1357 c 0,39,40
 1469 1238 1469 1238 1469 1087 c 0,41,42
 1469 1023 1469 1023 1454 953 c 0,43,44
 1400 701 1400 701 1207 549 c 0,45,46
 1001 386 1001 386 781 386 c 0,47,48
 558 386 558 386 428 549 c 0,49,50
 338 662 338 662 338 818 c 0,51,52
 338 882 338 882 353 953 c 0,53,54
 405 1197 405 1197 598 1362 c 0,55,56
 794 1530 794 1530 1026 1530 c 0,37,38
1013 1475 m 0,57,58
 817 1475 817 1475 640 1330 c 0,59,60
 468 1188 468 1188 413 953 c 0,61,62
 398 887 398 887 398 826 c 0,63,64
 398 693 398 693 472 587 c 0,65,66
 575 441 575 441 795 441 c 0,67,68
 1006 441 1006 441 1179 594 c 0,69,70
 1342 739 1342 739 1393 953 c 0,71,72
 1408 1018 1408 1018 1408 1079 c 0,73,74
 1408 1215 1408 1215 1331 1327 c 0,75,76
 1228 1475 1228 1475 1013 1475 c 0,57,58
EndSplineSet
Validated: 1
EndChar

StartChar: ordfeminine
Encoding: 170 170 107
Width: 692
GlyphClass: 2
Flags: W
HStem: 833 100<248 819> 988 10<612.401 618> 1503 46<606.528 761>
VStem: 312 140<1078.02 1365.31>
DStem2: 619.054 833 748.798 833 0.207912 0.978148<265.096 684.871>
LayerCount: 2
Fore
SplineSet
248 933 m 1,0,-1
 840 933 l 1,1,-1
 819 833 l 1,2,-1
 227 833 l 1,3,-1
 248 933 l 1,0,-1
901 1549 m 1,4,-1
 803 1088 l 2,5,6
 801 1076 801 1076 801 1065 c 0,7,8
 801 1016 801 1016 854 998 c 1,9,-1
 852 988 l 1,10,-1
 652 988 l 1,11,-1
 761 1503 l 1,12,-1
 701 1503 l 2,13,14
 618 1503 618 1503 553 1443 c 24,15,16
 482 1377 482 1377 460 1275 c 0,17,18
 452 1240 452 1240 452 1208 c 0,19,20
 452 1059 452 1059 620 998 c 1,21,-1
 618 988 l 1,22,23
 438 988 438 988 366 1062 c 0,24,25
 312 1118 312 1118 312 1202 c 0,26,27
 312 1233 312 1233 319 1267 c 0,28,29
 346 1394 346 1394 451 1471 c 0,30,31
 556 1549 556 1549 701 1549 c 2,32,-1
 901 1549 l 1,4,-1
EndSplineSet
Validated: 1
EndChar

StartChar: guillemotleft
Encoding: 171 171 108
Width: 1248
GlyphClass: 2
Flags: W
DStem2: 480 797 310 755 0.561137 -0.827723<0 462.647> 310 755 480 797 0.741034 0.671468<154.177 657.47> 875 797 705 755 0.561137 -0.827723<0 462.647> 705 755 875 797 0.741034 0.671468<154.177 657.47>
LayerCount: 2
Fore
SplineSet
1195 1199 m 1,0,-1
 1247 1136 l 1,1,-1
 875 797 l 1,2,-1
 1136 415 l 1,3,-1
 1006 311 l 1,4,-1
 705 755 l 1,5,-1
 1195 1199 l 1,0,-1
800 1199 m 1,6,-1
 852 1136 l 1,7,-1
 480 797 l 1,8,-1
 741 415 l 1,9,-1
 611 311 l 1,10,-1
 310 755 l 1,11,-1
 800 1199 l 1,6,-1
EndSplineSet
Validated: 1
EndChar

StartChar: logicalnot
Encoding: 172 172 109
Width: 1133
GlyphClass: 2
Flags: W
HStem: 680 150<326 1048>
VStem: 997 80<441 521>
DStem2: 997 441 1077 441 0.207912 0.978148<16.6329 244.381>
LayerCount: 2
Fore
SplineSet
326 830 m 1,0,-1
 1159 830 l 1,1,-1
 1077 441 l 1,2,-1
 997 441 l 1,3,-1
 1048 680 l 1,4,-1
 295 680 l 1,5,-1
 326 830 l 1,0,-1
EndSplineSet
Validated: 1
EndChar

StartChar: uni00AD
Encoding: 173 173 110
Width: 1133
GlyphClass: 2
Flags: W
HStem: 680 150<326 1128>
LayerCount: 2
Fore
SplineSet
326 830 m 1,0,-1
 1159 830 l 1,1,-1
 1128 680 l 1,2,-1
 295 680 l 1,3,-1
 326 830 l 1,0,-1
EndSplineSet
Validated: 1
EndChar

StartChar: registered
Encoding: 174 174 111
Width: 1401
GlyphClass: 2
Flags: W
HStem: 386 55<628.513 956.303> 1288 51<859 1010.04> 1475 55<850.625 1173.02>
VStem: 338 60<669.427 1004.36> 567 140<574 714> 1079 150<956.632 1243.32> 1408 61<900.426 1239.02>
DStem2: 527.039 386 667.039 386 0.207912 0.978148<221.308 893.821>
LayerCount: 2
Fore
SplineSet
1013 1475 m 0,0,1
 817 1475 817 1475 640 1330 c 0,2,3
 468 1188 468 1188 413 953 c 0,4,5
 398 887 398 887 398 826 c 0,6,7
 398 693 398 693 472 587 c 0,8,9
 575 441 575 441 795 441 c 0,10,11
 992 441 992 441 1155 574 c 1,12,-1
 1018 574 l 1,13,-1
 896 761 l 1,14,15
 849 756 849 756 793 756 c 1,16,-1
 795 766 l 1,17,18
 896 785 896 785 971 863 c 0,19,20
 1048 942 1048 942 1070 1048 c 0,21,22
 1079 1091 1079 1091 1079 1126 c 0,23,24
 1079 1178 1079 1178 1059 1212 c 0,25,26
 1014 1288 1014 1288 916 1288 c 2,27,-1
 859 1288 l 1,28,-1
 707 574 l 1,29,-1
 567 574 l 1,30,-1
 709 1240 l 2,31,32
 711 1251 711 1251 711 1261 c 0,33,34
 711 1309 711 1309 657 1329 c 1,35,-1
 660 1339 l 1,36,-1
 968 1339 l 2,37,38
 1108 1339 1108 1339 1178 1258 c 0,39,40
 1229 1200 1229 1200 1229 1122 c 0,41,42
 1229 1094 1229 1094 1222 1062 c 0,43,44
 1185 890 1185 890 1041 807 c 1,45,-1
 1187 601 l 1,46,47
 1343 744 1343 744 1393 953 c 0,48,49
 1408 1018 1408 1018 1408 1079 c 0,50,51
 1408 1215 1408 1215 1331 1327 c 0,52,53
 1228 1475 1228 1475 1013 1475 c 0,0,1
1026 1530 m 0,54,55
 1268 1530 1268 1530 1387 1357 c 0,56,57
 1469 1238 1469 1238 1469 1087 c 0,58,59
 1469 1023 1469 1023 1454 953 c 0,60,61
 1400 701 1400 701 1207 549 c 0,62,63
 1001 386 1001 386 781 386 c 0,64,65
 558 386 558 386 428 549 c 0,66,67
 338 662 338 662 338 818 c 0,68,69
 338 882 338 882 353 953 c 0,70,71
 405 1197 405 1197 598 1362 c 0,72,73
 794 1530 794 1530 1026 1530 c 0,54,55
EndSplineSet
Validated: 1
EndChar

StartChar: macron
Encoding: 175 175 112
Width: 598
GlyphClass: 2
Flags: W
HStem: 1280 100<343 820>
VStem: 322 519
LayerCount: 2
Fore
SplineSet
343 1380 m 1,0,-1
 841 1380 l 1,1,-1
 820 1280 l 1,2,-1
 322 1280 l 1,3,-1
 343 1380 l 1,0,-1
EndSplineSet
Validated: 1
EndChar

StartChar: degree
Encoding: 176 176 113
Width: 620
GlyphClass: 2
Flags: W
HStem: 1022 50<470.976 613.076> 1500 50<553.811 695.875>
VStem: 317 111<1115.34 1382.44> 738 112<1189.56 1456.66>
LayerCount: 2
Fore
SplineSet
629 1500 m 0,0,1
 567 1500 567 1500 510.5 1438 c 128,-1,2
 454 1376 454 1376 435 1286 c 0,3,4
 428 1251 428 1251 428 1220 c 0,5,6
 428 1167 428 1167 444 1133 c 0,7,8
 474 1072 474 1072 539 1072 c 0,9,10
 601 1072 601 1072 656.5 1134 c 128,-1,11
 712 1196 712 1196 731 1286 c 0,12,13
 738 1321 738 1321 738 1352 c 0,14,15
 738 1405 738 1405 722 1439 c 0,16,17
 694 1500 694 1500 629 1500 c 0,0,1
639 1550 m 128,-1,19
 747 1550 747 1550 807 1473 c 0,20,21
 850 1418 850 1418 850 1345 c 0,22,23
 850 1317 850 1317 844 1286 c 0,24,25
 820 1176 820 1176 727.5 1099 c 128,-1,26
 635 1022 635 1022 527 1022 c 0,27,28
 420 1022 420 1022 360 1099 c 0,29,30
 317 1154 317 1154 317 1226 c 0,31,32
 318 1254 318 1254 324 1286 c 0,33,34
 348 1396 348 1396 439.5 1473 c 128,-1,18
 531 1550 531 1550 639 1550 c 128,-1,19
EndSplineSet
Validated: 1
EndChar

StartChar: plusminus
Encoding: 177 177 114
Width: 1139
GlyphClass: 2
Flags: W
HStem: 240 150<239 1040> 806 150<353 663 845 1154>
VStem: 591 150<464 614> 768 150<1148 1298>
DStem2: 543.387 240 693.387 240 0.207912 0.978148<260.191 578.5 763.062 1081.58>
LayerCount: 2
Fore
SplineSet
239 390 m 1,0,-1
 1072 390 l 1,1,-1
 1040 240 l 1,2,-1
 207 240 l 1,3,-1
 239 390 l 1,0,-1
768 1298 m 1,4,-1
 918 1298 l 1,5,-1
 845 956 l 1,6,-1
 1186 956 l 1,7,-1
 1154 806 l 1,8,-1
 813 806 l 1,9,-1
 741 464 l 1,10,-1
 591 464 l 1,11,-1
 663 806 l 1,12,-1
 321 806 l 1,13,-1
 353 956 l 1,14,-1
 695 956 l 1,15,-1
 768 1298 l 1,4,-1
EndSplineSet
Validated: 1
EndChar

StartChar: acute
Encoding: 180 180 115
Width: 427
GlyphClass: 2
Flags: W
HStem: 1150 374
VStem: 294 380
LayerCount: 2
Fore
SplineSet
573 1524 m 1,0,-1
 674 1397 l 1,1,2
 475 1327 475 1327 304 1150 c 1,3,-1
 294 1150 l 1,4,5
 366 1397 366 1397 573 1524 c 1,0,-1
EndSplineSet
Validated: 1
EndChar

StartChar: uni00B5
Encoding: 181 181 116
Width: 1318
GlyphClass: 2
Flags: W
HStem: -410 10<413.667 423> 0 70<623.801 953> 0 10<1250.2 1258> 1100 0G<746.5 848 1167.75 1352>
VStem: 122 178<-319.304 65.9219> 1172 180<920 1100>
DStem2: 62.7936 -410 242.794 -410 0.207912 0.978148<260.296 600.752 885.762 1218.09> 850.973 -410 1030.47 -410 0.207912 0.978148<607.258 1543.75>
LayerCount: 2
Fore
SplineSet
1258 0 m 1,0,-1
 758 0 l 2,1,2
 486 0 486 0 360 141 c 1,3,-1
 314 -75 l 2,4,5
 300 -142 300 -142 300 -196 c 0,6,7
 300 -355 300 -355 425 -400 c 1,8,-1
 423 -410 l 1,9,10
 122 -410 122 -410 122 -176 c 0,11,12
 122 -130 122 -130 134 -75 c 2,13,-1
 267 550 l 2,14,15
 317 783 317 783 518 950 c 0,16,17
 655 1064 655 1064 838 1120 c 1,18,-1
 848 1120 l 1,19,20
 675 982 675 982 579 827 c 0,21,22
 499 698 499 698 467 550 c 0,23,24
 451 476 451 476 451 411 c 0,25,26
 451 289 451 289 508 203 c 0,27,28
 595 70 595 70 793 70 c 2,29,-1
 953 70 l 1,30,-1
 1172 1100 l 1,31,-1
 1352 1100 l 1,32,-1
 1158 190 l 2,33,34
 1153 166 1153 166 1153 146 c 0,35,36
 1153 49 1153 49 1260 10 c 1,37,-1
 1258 0 l 1,0,-1
EndSplineSet
Validated: 1
EndChar

StartChar: paragraph
Encoding: 182 182 117
Width: 1113
GlyphClass: 2
Flags: W
HStem: 0 21G<713 785.245 847 917.252> 705 815<676.866 867.435> 1456 54<1090 1156>
VStem: 713 68<0 68> 847 66<0 66>
DStem2: 713 0 781 0 0.207912 0.978148<14.138 756.471> 847 0 913 0 0.207912 0.978148<13.7222 1488.43>
LayerCount: 2
Fore
SplineSet
713 0 m 1,0,-1
 870 740 l 1,1,2
 788 705 788 705 697 705 c 0,3,4
 532 705 532 705 442 825 c 0,5,6
 377 911 377 911 376 1022 c 0,7,8
 376 1064 376 1064 386 1112 c 0,9,10
 422 1280 422 1280 564 1401 c 0,11,12
 703 1520 703 1520 870 1520 c 0,13,14
 961 1520 961 1520 1029 1485 c 1,15,-1
 1034 1510 l 1,16,-1
 1234 1510 l 1,17,-1
 913 0 l 1,18,-1
 847 0 l 1,19,-1
 1156 1456 l 1,20,-1
 1090 1456 l 1,21,-1
 781 0 l 1,22,-1
 713 0 l 1,0,-1
EndSplineSet
Validated: 1
EndChar

StartChar: periodcentered
Encoding: 183 183 118
Width: 362
GlyphClass: 2
Flags: W
HStem: 623 264<261.398 418.602>
VStem: 206 267<676.518 831.67>
LayerCount: 2
Fore
SplineSet
312 623 m 128,-1,1
 258 623 258 623 228 661 c 0,2,3
 206 689 206 689 206 726 c 0,4,5
 206 740 206 740 210 755 c 0,6,7
 222 810 222 810 268 848.5 c 128,-1,8
 314 887 314 887 368 887 c 128,-1,9
 422 887 422 887 452 849 c 0,10,11
 473 821 473 821 473 785 c 0,12,13
 473 767 473 767 470 755 c 0,14,15
 458 700 458 700 412 661.5 c 128,-1,0
 366 623 366 623 312 623 c 128,-1,1
EndSplineSet
Validated: 1
EndChar

StartChar: cedilla
Encoding: 184 184 119
Width: 364
GlyphClass: 2
Flags: W
HStem: -430 138<-12 102.741> -107 107<58 124.147>
VStem: 150 119<-262.989 -130.659>
LayerCount: 2
Fore
SplineSet
58 0 m 1,0,-1
 138 0 l 1,1,-1
 130 -39 l 1,2,3
 185 -49 185 -49 223 -82 c 0,4,5
 269 -122 269 -122 269 -188 c 0,6,7
 269 -203 269 -203 267 -219 c 0,8,9
 255 -301 255 -301 187 -356 c 0,10,11
 94 -430 94 -430 -41 -430 c 1,12,-1
 -12 -292 l 1,13,14
 64 -292 64 -292 104 -265 c 0,15,16
 142 -239 142 -239 149 -198 c 0,17,18
 150 -190 150 -190 150 -183 c 0,19,20
 150 -151 150 -151 125 -130 c 0,21,22
 98 -107 98 -107 35 -107 c 1,23,-1
 58 0 l 1,0,-1
EndSplineSet
Validated: 1
EndChar

StartChar: ordmasculine
Encoding: 186 186 120
Width: 678
GlyphClass: 2
Flags: W
HStem: 833 100<248 805> 977 46<492.056 631.409> 1509 46<585.502 723.773>
VStem: 312 136<1053.79 1364.76> 767 138<1164.42 1478.17>
LayerCount: 2
Fore
SplineSet
248 933 m 1,0,-1
 826 933 l 1,1,-1
 805 833 l 1,2,-1
 227 833 l 1,3,-1
 248 933 l 1,0,-1
658 1509 m 0,4,5
 591 1509 591 1509 537 1443 c 0,6,7
 484 1375 484 1375 460 1266 c 0,8,9
 449 1215 449 1215 448 1173 c 0,10,11
 448 1126 448 1126 462 1090 c 0,12,13
 488 1023 488 1023 557 1023 c 0,14,15
 627 1023 627 1023 678 1089 c 0,16,17
 731 1157 731 1157 755 1267 c 0,18,19
 767 1322 767 1322 767 1365 c 0,20,21
 767 1410 767 1410 754 1443 c 0,22,23
 727 1509 727 1509 658 1509 c 0,4,5
671 1555 m 0,24,25
 809 1555 809 1555 868 1468 c 0,26,27
 905 1411 905 1411 905 1335 c 0,28,29
 905 1301 905 1301 897 1265 c 0,30,31
 872 1148 872 1148 790 1071 c 0,32,33
 690 977 690 977 545 977 c 0,34,35
 408 977 408 977 348 1065 c 0,36,37
 312 1118 312 1118 312 1198 c 0,38,39
 312 1231 312 1231 320 1267 c 0,40,41
 344 1381 344 1381 435.5 1468 c 128,-1,42
 527 1555 527 1555 671 1555 c 0,24,25
EndSplineSet
Validated: 1
EndChar

StartChar: guillemotright
Encoding: 187 187 121
Width: 1248
GlyphClass: 2
Flags: W
DStem2: 321 374 374 311 0.740351 0.672221<0 504.034> 563 1199 433 1095 0.559857 -0.828589<13.3918 476.036> 716 374 769 311 0.740351 0.672221<0 504.034> 958 1199 828 1095 0.559857 -0.828589<13.3918 476.036>
LayerCount: 2
Fore
SplineSet
563 1199 m 1,0,-1
 863 755 l 1,1,-1
 374 311 l 1,2,-1
 321 374 l 1,3,-1
 694 713 l 1,4,-1
 433 1095 l 1,5,-1
 563 1199 l 1,0,-1
958 1199 m 1,6,-1
 1258 755 l 1,7,-1
 769 311 l 1,8,-1
 716 374 l 1,9,-1
 1089 713 l 1,10,-1
 828 1095 l 1,11,-1
 958 1199 l 1,6,-1
EndSplineSet
Validated: 1
EndChar

StartChar: questiondown
Encoding: 191 191 122
Width: 1321
GlyphClass: 2
Flags: W
HStem: -430 80<462.029 763.846> 856 264<824.398 981.602>
VStem: 143 217<-252.617 109.805> 770 267<911.33 1066.48> 852 22<740.141 770.556>
LayerCount: 2
Fore
SplineSet
566 -430 m 0,0,1
 345 -430 345 -430 240 -322 c 0,2,3
 143 -223 143 -223 143 -83 c 0,4,5
 143 -36 143 -36 154 16 c 0,6,7
 205 255 205 255 484 429 c 2,8,-1
 627 518 l 2,9,10
 824 641 824 641 852 773 c 1,11,-1
 862 773 l 1,12,13
 874 747 874 747 874 718 c 0,14,15
 874 704 874 704 871 689 c 0,16,17
 849 584 849 584 680 431 c 2,18,-1
 542 306 l 2,19,20
 409 186 409 186 370 0 c 0,21,22
 360 -48 360 -48 360 -92 c 0,23,24
 360 -172 360 -172 394 -236 c 0,25,26
 455 -350 455 -350 605 -350 c 0,27,28
 749 -350 749 -350 872 -231 c 0,29,30
 942 -163 942 -163 963 -69 c 0,31,32
 974 -18 974 -18 974 32 c 0,33,34
 974 62 974 62 970 91 c 1,35,-1
 977 99 l 1,36,-1
 1147 -112 l 1,37,38
 1059 -215 1059 -215 932 -308 c 0,39,40
 766 -430 766 -430 566 -430 c 0,0,1
931 1120 m 128,-1,42
 985 1120 985 1120 1015 1082 c 0,43,44
 1037 1054 1037 1054 1037 1017 c 0,45,46
 1037 1003 1037 1003 1033 988 c 0,47,48
 1021 933 1021 933 975 894.5 c 128,-1,49
 929 856 929 856 875 856 c 128,-1,50
 821 856 821 856 791 894 c 0,51,52
 770 922 770 922 770 958 c 0,53,54
 770 974 770 974 773 988 c 0,55,56
 785 1043 785 1043 831 1081.5 c 128,-1,41
 877 1120 877 1120 931 1120 c 128,-1,42
EndSplineSet
Validated: 1
EndChar

StartChar: AE
Encoding: 198 198 123
Width: 2493
GlyphClass: 2
Flags: W
HStem: -20 90<1610.27 2036.88> 0 10<943 953.653> 715 80<717 1225 1575 2146> 1450 80<1860.44 2260.75> 1490 20G<785 1176>
VStem: 5 200<0 200> 1378 213<358.073 764.741>
DStem2: 5 0 205 0 0.54087 0.841106<108.174 957.824 1053.78 1652.17>
LayerCount: 2
Fore
SplineSet
5 0 m 1,0,-1
 855 1322 l 2,1,2
 876 1355 876 1355 881 1380 c 0,3,4
 883 1390 883 1390 883 1400 c 0,5,6
 883 1464 883 1464 785 1500 c 1,7,-1
 787 1510 l 1,8,-1
 1176 1510 l 1,9,-1
 717 795 l 1,10,-1
 1242 795 l 1,11,-1
 1225 715 l 1,12,-1
 664 715 l 1,13,-1
 205 0 l 1,14,-1
 5 0 l 1,0,-1
1157 1386 m 1,15,-1
 1164 1394 l 1,16,17
 1271 1280 1271 1280 1352 1172 c 1,18,19
 1403 1236 1403 1236 1465 1292 c 0,20,21
 1731 1530 1731 1530 2079 1530 c 0,22,23
 2444 1530 2444 1530 2601 1278 c 1,24,-1
 2357 1080 l 1,25,-1
 2352 1086 l 1,26,27
 2374 1138 2374 1138 2381 1182 c 0,28,29
 2384 1202 2384 1202 2384 1222 c 0,30,31
 2384 1265 2384 1265 2368 1304 c 0,32,33
 2303 1450 2303 1450 2060 1450 c 0,34,35
 1812 1450 1812 1450 1624 1240 c 0,36,37
 1527 1132 1527 1132 1463 999 c 1,38,39
 1522 894 1522 894 1554 795 c 1,40,-1
 2163 795 l 1,41,-1
 2146 715 l 1,42,-1
 1575 715 l 1,43,44
 1591 640 1591 640 1591 568 c 0,45,46
 1591 503 1591 503 1578 440 c 0,47,48
 1549 305 1549 305 1478 212 c 1,49,50
 1600 70 1600 70 1846 70 c 0,51,52
 2134 70 2134 70 2455 325 c 1,53,-1
 2461 319 l 1,54,55
 2170 -20 2170 -20 1750 -20 c 0,56,57
 1504 -20 1504 -20 1350 96 c 1,58,59
 1195 0 1195 0 941 0 c 1,60,-1
 943 10 l 1,61,62
 1286 106 1286 106 1358 440 c 0,63,64
 1378 533 1378 533 1378 633 c 0,65,66
 1378 968 1378 968 1157 1386 c 1,15,-1
EndSplineSet
Validated: 1
EndChar

StartChar: Eth
Encoding: 208 208 124
Width: 1586
GlyphClass: 2
Flags: W
HStem: 0 10<582 594.858> 715 80<229 352 569 964> 1430 80<704 1190.4> 1500 10<381 388.796>
VStem: 200 200<0 200> 1449 219<676.549 1183>
DStem2: 200 0 400 0 0.207912 0.978148<41.5823 730.978 854.347 1393.04>
LayerCount: 2
Fore
SplineSet
200 0 m 1,0,-1
 352 715 l 1,1,-1
 212 715 l 1,2,-1
 229 795 l 1,3,-1
 369 795 l 1,4,-1
 481 1320 l 2,5,6
 486 1344 486 1344 486 1364 c 0,7,8
 486 1461 486 1461 379 1500 c 1,9,-1
 381 1510 l 1,10,-1
 1037 1510 l 2,11,12
 1424 1510 1424 1510 1579 1273 c 0,13,14
 1668 1135 1668 1135 1668 951 c 0,15,16
 1668 859 1668 859 1646 755 c 0,17,18
 1585 467 1585 467 1337 248 c 0,19,20
 1057 0 1057 0 580 0 c 1,21,-1
 582 10 l 1,22,23
 988 86 988 86 1186 301 c 0,24,25
 1373 504 1373 504 1426 755 c 0,26,27
 1449 863 1449 863 1449 955 c 0,28,29
 1449 1127 1449 1127 1370 1247 c 0,30,31
 1249 1430 1249 1430 970 1430 c 2,32,-1
 704 1430 l 1,33,-1
 569 795 l 1,34,-1
 981 795 l 1,35,-1
 964 715 l 1,36,-1
 552 715 l 1,37,-1
 400 0 l 1,38,-1
 200 0 l 1,0,-1
EndSplineSet
Validated: 1
EndChar

StartChar: multiply
Encoding: 215 215 125
Width: 1096
GlyphClass: 2
Flags: W
HStem: 1083 20G<515.849 555.785 998.868 1038.7>
DStem2: 309 514 393 407 0.7714 0.636351<0 376.725 546.344 922.298> 540 1103 412 997 0.618997 -0.785394<4.02015 308.294 446.942 750.43>
LayerCount: 2
Fore
SplineSet
540 1103 m 1,0,-1
 731 861 l 1,1,-1
 1023 1103 l 1,2,-1
 1107 996 l 1,3,-1
 814 755 l 1,4,-1
 1005 514 l 1,5,-1
 877 407 l 1,6,-1
 686 649 l 1,7,-1
 393 407 l 1,8,-1
 309 514 l 1,9,-1
 602 755 l 1,10,-1
 412 997 l 1,11,-1
 540 1103 l 1,0,-1
EndSplineSet
Validated: 1
EndChar

StartChar: Oslash
Encoding: 216 216 126
Width: 1706
GlyphClass: 2
Flags: W
HStem: -20 80<678.295 1067.89> -5 21G<428.5 474.873> 1450 80<959.334 1348.71> 1495 20G<1552.13 1598.5>
VStem: 238 220<317.615 837.84> 1569 220<672.16 1192.39>
DStem2: 398 35 459 -5 0.62016 0.784476<6.45072 81.4218 236.291 1656.77 1811.64 1886.61>
LayerCount: 2
Fore
SplineSet
849 -20 m 0,0,1
 648 -20 648 -20 509 58 c 1,2,-1
 459 -5 l 1,3,-1
 398 35 l 1,4,-1
 448 98 l 1,5,6
 384 148 384 148 335 218 c 0,7,8
 238 361 238 361 238 555 c 0,9,10
 238 649 238 649 260 755 c 0,11,12
 330 1080 330 1080 564 1292 c 0,13,14
 828 1530 828 1530 1178 1530 c 0,15,16
 1379 1530 1379 1530 1518 1452 c 1,17,-1
 1568 1515 l 1,18,-1
 1629 1475 l 1,19,-1
 1579 1412 l 1,20,21
 1643 1362 1643 1362 1692 1292 c 0,22,23
 1789 1149 1789 1149 1789 955 c 0,24,25
 1788 861 1788 861 1766 755 c 0,26,27
 1696 430 1696 430 1463 218 c 0,28,29
 1200 -20 1200 -20 849 -20 c 0,0,1
866 60 m 0,30,31
 1116 60 1116 60 1304 270 c 0,32,33
 1486 473 1486 473 1546 755 c 0,34,35
 1569 864 1569 864 1569 961 c 0,36,37
 1569 1115 1569 1115 1511 1240 c 0,38,39
 1499 1267 1499 1267 1482 1290 c 1,40,-1
 591 162 l 1,41,42
 692 60 692 60 866 60 c 0,30,31
545 220 m 1,43,-1
 1436 1348 l 1,44,45
 1335 1450 1335 1450 1161 1450 c 0,46,47
 911 1450 911 1450 723 1240 c 0,48,49
 541 1037 541 1037 481 755 c 0,50,51
 458 646 458 646 458 549 c 0,52,53
 458 395 458 395 516 270 c 0,54,55
 530 243 530 243 545 220 c 1,43,-1
EndSplineSet
Validated: 1
EndChar

StartChar: Thorn
Encoding: 222 222 127
Width: 1324
GlyphClass: 2
Flags: W
HStem: 0 21G<200 404.256> 180 10<614 622.965> 1250 80<683 1008.44> 1500 10<381 388.796>
VStem: 200 200<0 200> 1185 218<671.644 1089.44>
DStem2: 200 0 400 0 0.207912 0.978148<41.5823 1319.57>
LayerCount: 2
Fore
SplineSet
200 0 m 1,0,-1
 481 1320 l 2,1,2
 486 1344 486 1344 486 1364 c 0,3,4
 486 1461 486 1461 379 1500 c 1,5,-1
 381 1510 l 1,6,-1
 721 1510 l 1,7,-1
 683 1330 l 1,8,-1
 918 1330 l 2,9,10
 1172 1330 1172 1330 1299 1186 c 0,11,12
 1403 1068 1403 1068 1403 903 c 0,13,14
 1403 842 1403 842 1389 774 c 0,15,16
 1342 553 1342 553 1174 388 c 0,17,18
 964 180 964 180 612 180 c 1,19,-1
 614 190 l 1,20,21
 832 248 832 248 987 406 c 0,22,23
 1118 540 1118 540 1169 774 c 0,24,25
 1185 849 1185 849 1185 912 c 0,26,27
 1185 1016 1185 1016 1142 1088 c 0,28,29
 1046 1250 1046 1250 820 1250 c 2,30,-1
 666 1250 l 1,31,-1
 400 0 l 1,32,-1
 200 0 l 1,0,-1
EndSplineSet
Validated: 1
EndChar

StartChar: germandbls
Encoding: 223 223 128
Width: 1298
GlyphClass: 2
Flags: W
HStem: 0 10<562 577.806> 1460 70<748.664 994.478>
VStem: 200 180<0 180> 1057 162<1159.98 1409.74> 1119 202<418.719 791.106>
DStem2: 200 0 380 0 0.207912 0.978148<37.4241 1403.21>
LayerCount: 2
Fore
SplineSet
200 0 m 1,0,-1
 452 1184 l 2,1,2
 490 1364 490 1364 647 1463 c 0,3,4
 753 1530 753 1530 886 1530 c 0,5,6
 1059 1530 1059 1530 1148 1453 c 0,7,8
 1219 1392 1219 1392 1219 1301 c 0,9,10
 1219 1281 1219 1281 1215 1259 c 0,11,12
 1200 1167 1200 1167 1119 1097 c 0,13,14
 1019 1010 1019 1010 870 986 c 1,15,16
 1151 986 1151 986 1257 846 c 0,17,18
 1321 761 1321 761 1321 638 c 0,19,20
 1321 580 1321 580 1307 514 c 0,21,22
 1262 303 1262 303 1076 158 c 0,23,24
 872 0 872 0 560 0 c 1,25,-1
 562 10 l 1,26,27
 817 70 817 70 937 192 c 0,28,29
 1067 326 1067 326 1107 514 c 0,30,31
 1119 572 1119 572 1119 624 c 0,32,33
 1119 710 1119 710 1085 776 c 0,34,35
 999 941 999 941 717 941 c 1,36,-1
 732 1011 l 1,37,38
 859 1011 859 1011 959 1089 c 0,39,40
 1028 1143 1028 1143 1051 1248 c 0,41,42
 1057 1276 1057 1276 1057 1301 c 0,43,44
 1057 1371 1057 1371 1009 1414 c 0,45,46
 958 1460 958 1460 871 1460 c 0,47,48
 795 1460 795 1460 740 1420 c 0,49,50
 671 1370 671 1370 646 1253 c 2,51,-1
 380 0 l 1,52,-1
 200 0 l 1,0,-1
EndSplineSet
Validated: 1
EndChar

StartChar: ae
Encoding: 230 230 129
Width: 1802
GlyphClass: 2
Flags: W
HStem: -20 80<1147.18 1467.79> 0 10<730.913 740> 515 70<1192 1520> 1030 70<765.28 1107> 1051 69<1326.37 1621.58>
VStem: 202 203<241.834 646.712>
DStem2: 883.749 -20 1064.05 -20 0.207912 0.978148<175.331 584.279 655.868 1072.89>
LayerCount: 2
Fore
SplineSet
888 0 m 1,0,-1
 1107 1030 l 1,1,-1
 947 1030 l 2,2,3
 750 1030 750 1030 606 897 c 0,4,5
 463 765 463 765 417 550 c 0,6,7
 405 492 405 492 405 437 c 0,8,9
 405 315 405 315 466 210 c 0,10,11
 540 82 540 82 742 10 c 1,12,-1
 740 0 l 1,13,14
 448 0 448 0 311 140 c 0,15,16
 202 251 202 251 202 419 c 0,17,18
 202 481 202 481 217 550 c 0,19,20
 270 798 270 798 485 960 c 0,21,22
 670 1100 670 1100 942 1100 c 2,23,-1
 1332 1100 l 1,24,25
 1409 1120 1409 1120 1493 1120 c 0,26,27
 1751 1120 1751 1120 1867 926 c 1,28,-1
 1680 773 l 1,29,-1
 1675 779 l 1,30,31
 1694 815 1694 815 1699 846 c 0,32,33
 1702 864 1702 864 1702 880 c 0,34,35
 1702 906 1702 906 1695 928 c 0,36,37
 1653 1051 1653 1051 1478 1051 c 0,38,39
 1367 1051 1367 1051 1278 988 c 1,40,-1
 1192 585 l 1,41,-1
 1535 585 l 1,42,-1
 1520 515 l 1,43,-1
 1177 515 l 1,44,-1
 1097 135 l 17,45,46
 1179 60 1179 60 1312 60 c 0,47,48
 1528 60 1528 60 1742 224 c 1,49,-1
 1748 218 l 1,50,51
 1532 -20 1532 -20 1251 -20 c 0,52,53
 1167 -20 1167 -20 1098 0 c 1,54,-1
 888 0 l 1,0,-1
EndSplineSet
Validated: 1
EndChar

StartChar: eth
Encoding: 240 240 130
Width: 1276
GlyphClass: 2
Flags: W
HStem: -20 69<509.99 776.792> 1090 10<857.904 870> 1520 10<766 776.344>
VStem: 201 194<200.874 638.147> 1143 199<584.072 1160.6>
DStem2: 809 1308 848 1258 0.772647 0.634836<0 166.964 281.099 440.888>
LayerCount: 2
Fore
SplineSet
629 -20 m 0,0,1
 377 -20 377 -20 265 164 c 0,2,3
 201 269 201 269 201 406 c 0,4,5
 201 474 201 474 217 550 c 0,6,7
 265 778 265 778 429 936 c 0,8,9
 599 1100 599 1100 872 1100 c 1,10,-1
 870 1090 l 1,11,12
 675 1031 675 1031 574 906 c 0,13,14
 465 772 465 772 417 550 c 0,15,16
 395 446 395 446 395 360 c 0,17,18
 395 265 395 265 422 194 c 0,19,20
 477 49 477 49 643 49 c 0,21,22
 799 49 799 49 927 209 c 0,23,24
 1054 369 1054 369 1114 650 c 0,25,26
 1143 786 1143 786 1143 905 c 0,27,28
 1143 1089 1143 1089 1073 1230 c 0,29,30
 1035 1308 1035 1308 982 1369 c 1,31,-1
 848 1258 l 1,32,-1
 809 1308 l 1,33,-1
 938 1414 l 1,34,35
 864 1481 864 1481 766 1520 c 1,36,-1
 768 1530 l 1,37,38
 902 1514 902 1514 1004 1468 c 1,39,-1
 1151 1589 l 1,40,-1
 1189 1540 l 1,41,-1
 1066 1438 l 1,42,43
 1169 1378 1169 1378 1234 1282 c 0,44,45
 1342 1124 1342 1124 1342 898 c 0,46,47
 1342 783 1342 783 1314 650 c 0,48,49
 1251 353 1251 353 1072 179 c 0,50,51
 868 -20 868 -20 629 -20 c 0,0,1
EndSplineSet
Validated: 1
EndChar

StartChar: divide
Encoding: 247 247 131
Width: 1132
GlyphClass: 2
Flags: W
HStem: 302 264<581.179 738.555> 680 150<326 1127> 945 264<715.398 872.602>
VStem: 526 267<356.821 511.179> 661 266<998.518 1155.48>
LayerCount: 2
Fore
SplineSet
326 830 m 1,0,-1
 1158 830 l 1,1,-1
 1127 680 l 1,2,-1
 295 680 l 1,3,-1
 326 830 l 1,0,-1
631 302 m 0,4,5
 578 302 578 302 548 340 c 0,6,7
 526 369 526 369 526 404 c 0,8,9
 526 418 526 418 530 434 c 0,10,11
 542 489 542 489 587.5 527.5 c 128,-1,12
 633 566 633 566 687 566 c 128,-1,13
 741 566 741 566 771 528 c 0,14,15
 793 500 793 500 793 463 c 0,16,17
 793 448 793 448 790 434 c 0,18,19
 778 379 778 379 731.5 340.5 c 128,-1,20
 685 302 685 302 631 302 c 0,4,5
822 1209 m 0,21,22
 876 1208 876 1208 906 1170 c 0,23,24
 927 1142 927 1142 927 1107 c 0,25,26
 927 1093 927 1093 924 1077 c 0,27,28
 912 1022 912 1022 866 983.5 c 128,-1,29
 820 945 820 945 766 945 c 0,30,31
 712 946 712 946 682 984 c 0,32,33
 661 1012 661 1012 661 1047 c 0,34,35
 661 1061 661 1061 664 1077 c 0,36,37
 676 1132 676 1132 722 1170.5 c 128,-1,38
 768 1209 768 1209 822 1209 c 0,21,22
EndSplineSet
Validated: 1
EndChar

StartChar: oslash
Encoding: 248 248 132
Width: 1276
GlyphClass: 2
Flags: W
HStem: -20 69<512.13 798.215> 1051 69<711.403 997.585>
VStem: 201 195<200.522 640.984> 1114 195<459.016 899.309>
DStem2: 284 5 337 -30 0.620006 0.784597<5.39942 91.6364 229.268 1209.37 1347.62 1433.86>
LayerCount: 2
Fore
SplineSet
634 -20 m 0,0,1
 490 -20 490 -20 391 38 c 1,2,-1
 337 -30 l 1,3,-1
 284 5 l 1,4,-1
 339 75 l 1,5,6
 296 112 296 112 265 164 c 0,7,8
 201 269 201 269 201 406 c 0,9,10
 201 474 201 474 217 550 c 0,11,12
 265 778 265 778 429 936 c 0,13,14
 619 1120 619 1120 876 1120 c 0,15,16
 1020 1120 1020 1120 1119 1062 c 1,17,-1
 1173 1130 l 1,18,-1
 1226 1095 l 1,19,-1
 1171 1025 l 1,20,21
 1214 988 1214 988 1245 936 c 0,22,23
 1309 831 1309 831 1309 695 c 0,24,25
 1308 626 1308 626 1292 550 c 0,26,27
 1244 322 1244 322 1081 164 c 0,28,29
 891 -20 891 -20 634 -20 c 0,0,1
1083 915 m 1,30,-1
 461 126 l 1,31,32
 524 49 524 49 648 49 c 0,33,34
 819 49 819 49 936 194 c 0,35,36
 1046 330 1046 330 1093 550 c 0,37,38
 1114 648 1114 648 1114 732 c 0,39,40
 1114 834 1114 834 1083 915 c 1,30,-1
426 185 m 1,41,-1
 1049 974 l 1,42,43
 985 1051 985 1051 861 1051 c 0,44,45
 690 1051 690 1051 574 906 c 0,46,47
 464 770 464 770 417 550 c 0,48,49
 396 450 396 450 396 365 c 0,50,51
 396 264 396 264 426 185 c 1,41,-1
EndSplineSet
Validated: 1
EndChar

StartChar: thorn
Encoding: 254 254 133
Width: 1268
GlyphClass: 2
Flags: W
HStem: -410 21G<113 297.25> 0 10<530 537.102> 1030 70<614 928.128> 1500 10<381 388.796>
VStem: 113 180<-410 -230> 1101 198<457.613 868.822>
DStem2: 113 -410 293 -410 0.207912 0.978148<37.4241 1509.58 1581.17 1812.17>
LayerCount: 2
Fore
SplineSet
113 -410 m 1,0,-1
 481 1320 l 2,1,2
 486 1344 486 1344 486 1364 c 0,3,4
 486 1461 486 1461 379 1500 c 1,5,-1
 381 1510 l 1,6,-1
 701 1510 l 1,7,-1
 614 1100 l 9,8,-1
 794 1100 l 2,9,10
 1066 1100 1066 1100 1191 960 c 0,11,12
 1299 841 1299 841 1299 675 c 0,13,14
 1299 615 1299 615 1285 550 c 0,15,16
 1230 292 1230 292 1017 140 c 0,17,18
 820 0 820 0 528 0 c 9,19,-1
 530 10 l 17,20,21
 763 82 763 82 892 210 c 0,22,23
 1045 362 1045 362 1085 550 c 0,24,25
 1101 624 1101 624 1101 689 c 0,26,27
 1101 811 1101 811 1044 897 c 0,28,29
 956 1030 956 1030 759 1030 c 2,30,-1
 599 1030 l 1,31,-1
 293 -410 l 1,32,-1
 113 -410 l 1,0,-1
EndSplineSet
Validated: 1
EndChar

StartChar: Dcroat
Encoding: 272 272 134
Width: 1586
GlyphClass: 2
Flags: W
HStem: 0 10<582 594.858> 715 80<229 352 569 964> 1430 80<704 1190.4> 1500 10<381 388.796>
VStem: 200 200<0 200> 1449 219<676.549 1183>
DStem2: 200 0 400 0 0.207912 0.978148<41.5823 730.978 854.347 1393.04>
LayerCount: 2
Fore
SplineSet
200 0 m 1,0,-1
 352 715 l 1,1,-1
 212 715 l 1,2,-1
 229 795 l 1,3,-1
 369 795 l 1,4,-1
 481 1320 l 2,5,6
 486 1344 486 1344 486 1364 c 0,7,8
 486 1461 486 1461 379 1500 c 1,9,-1
 381 1510 l 1,10,-1
 1037 1510 l 2,11,12
 1424 1510 1424 1510 1579 1273 c 0,13,14
 1668 1135 1668 1135 1668 951 c 0,15,16
 1668 859 1668 859 1646 755 c 0,17,18
 1585 467 1585 467 1337 248 c 0,19,20
 1057 0 1057 0 580 0 c 1,21,-1
 582 10 l 1,22,23
 988 86 988 86 1186 301 c 0,24,25
 1373 504 1373 504 1426 755 c 0,26,27
 1449 863 1449 863 1449 955 c 0,28,29
 1449 1127 1449 1127 1370 1247 c 0,30,31
 1249 1430 1249 1430 970 1430 c 2,32,-1
 704 1430 l 1,33,-1
 569 795 l 1,34,-1
 981 795 l 1,35,-1
 964 715 l 1,36,-1
 552 715 l 1,37,-1
 400 0 l 1,38,-1
 200 0 l 1,0,-1
EndSplineSet
Validated: 1
EndChar

StartChar: dcroat
Encoding: 273 273 135
Width: 1268
GlyphClass: 2
Flags: W
HStem: 0 70<573.872 903> 0 10<1200.2 1208> 1090 10<964.898 972> 1250 70<837 1154 1349 1474> 1500 10<1069 1076.8>
VStem: 203 198<231.178 642.387>
DStem2: 888.121 0 1067.61 0 0.207912 0.978148<188.098 1277.96>
LayerCount: 2
Fore
SplineSet
1208 0 m 1,0,-1
 708 0 l 2,1,2
 436 0 436 0 311 140 c 0,3,4
 203 259 203 259 203 425 c 0,5,6
 203 485 203 485 217 550 c 0,7,8
 272 808 272 808 485 960 c 0,9,10
 682 1100 682 1100 974 1100 c 1,11,-1
 972 1090 l 1,12,13
 739 1018 739 1018 610 890 c 0,14,15
 457 738 457 738 417 550 c 0,16,17
 401 476 401 476 401 411 c 0,18,19
 401 289 401 289 458 203 c 0,20,21
 546 70 546 70 743 70 c 2,22,-1
 903 70 l 1,23,-1
 1154 1250 l 1,24,-1
 822 1250 l 1,25,-1
 837 1320 l 1,26,-1
 1169 1320 l 1,27,28
 1174 1344 1174 1344 1174 1364 c 0,29,30
 1174 1461 1174 1461 1067 1500 c 1,31,-1
 1069 1510 l 1,32,-1
 1389 1510 l 1,33,-1
 1349 1320 l 1,34,-1
 1489 1320 l 1,35,-1
 1474 1250 l 1,36,-1
 1334 1250 l 1,37,-1
 1108 190 l 2,38,39
 1103 166 1103 166 1103 146 c 0,40,41
 1103 49 1103 49 1210 10 c 1,42,-1
 1208 0 l 1,0,-1
EndSplineSet
Validated: 1
EndChar

StartChar: Hbar
Encoding: 294 294 136
Width: 1552
GlyphClass: 2
Flags: W
HStem: 0 10<1484.2 1492> 715 80<569 1304> 1240 80<341 464 681 1416 1633 1756> 1500 10<381 388.796>
VStem: 200 200<0 200>
DStem2: 200 0 400 0 0.207912 0.978148<41.5823 772.56 854.347 1267.79> 1152 0 1351.61 0 0.207912 0.978148<192.281 730.978 812.764 1267.79 1391.16 1543.74>
LayerCount: 2
Fore
SplineSet
200 0 m 1,0,-1
 464 1240 l 1,1,-1
 324 1240 l 1,2,-1
 341 1320 l 1,3,-1
 481 1320 l 1,4,5
 486 1344 486 1344 486 1364 c 0,6,7
 486 1461 486 1461 379 1500 c 1,8,-1
 381 1510 l 1,9,-1
 721 1510 l 1,10,-1
 681 1320 l 1,11,-1
 1433 1320 l 1,12,-1
 1473 1510 l 1,13,-1
 1673 1510 l 1,14,-1
 1633 1320 l 1,15,-1
 1773 1320 l 1,16,-1
 1756 1240 l 1,17,-1
 1616 1240 l 1,18,-1
 1392 190 l 2,19,20
 1387 166 1387 166 1387 146 c 0,21,22
 1387 49 1387 49 1494 10 c 1,23,-1
 1492 0 l 1,24,-1
 1152 0 l 1,25,-1
 1304 715 l 1,26,-1
 552 715 l 1,27,-1
 400 0 l 1,28,-1
 200 0 l 1,0,-1
664 1240 m 1,29,-1
 569 795 l 1,30,-1
 1321 795 l 1,31,-1
 1416 1240 l 1,32,-1
 664 1240 l 1,29,-1
EndSplineSet
Validated: 1
EndChar

StartChar: hbar
Encoding: 295 295 137
Width: 1268
GlyphClass: 2
Flags: W
HStem: 0 21G<200 384.252 704 805.5> 1030 70<614 928.128> 1250 70<361 466 661 975> 1500 10<381 388.796>
VStem: 200 180<0 180> 1101 198<450.858 866.861>
DStem2: 195.749 -20 375.749 -20 0.207912 0.978148<57.8709 1110.9 1182.48 1298.44>
LayerCount: 2
Fore
SplineSet
200 0 m 1,0,-1
 466 1250 l 1,1,-1
 346 1250 l 1,2,-1
 361 1320 l 1,3,-1
 481 1320 l 1,4,5
 486 1344 486 1344 486 1364 c 0,6,7
 486 1461 486 1461 379 1500 c 1,8,-1
 381 1510 l 1,9,-1
 701 1510 l 1,10,-1
 661 1320 l 1,11,-1
 990 1320 l 1,12,-1
 975 1250 l 1,13,-1
 646 1250 l 1,14,-1
 614 1100 l 1,15,-1
 794 1100 l 2,16,17
 1066 1100 1066 1100 1191 960 c 0,18,19
 1299 839 1299 839 1299 674 c 0,20,21
 1299 615 1299 615 1285 550 c 0,22,23
 1235 317 1235 317 1034 150 c 0,24,25
 897 36 897 36 714 -20 c 1,26,-1
 704 -20 l 1,27,28
 877 118 877 118 973 273 c 0,29,30
 1053 402 1053 402 1085 550 c 0,31,32
 1101 624 1101 624 1101 689 c 0,33,34
 1101 811 1101 811 1044 897 c 0,35,36
 957 1030 957 1030 759 1030 c 2,37,-1
 599 1030 l 1,38,-1
 380 0 l 1,39,-1
 200 0 l 1,0,-1
EndSplineSet
Validated: 19457
EndChar

StartChar: Idotaccent
Encoding: 304 304 138
Width: 600
GlyphClass: 2
Flags: W
HStem: 0 21G<200 404.252> 1500 10<381 388.796> 1610 264<581.398 738.602>
VStem: 200 200<0 200> 527 266<1663.52 1820.48>
DStem2: 200 0 400 0 0.207912 0.978148<41.5823 1393.04>
LayerCount: 2
Fore
SplineSet
688 1874 m 128,-1,1
 742 1874 742 1874 772 1836 c 0,2,3
 793 1808 793 1808 793 1772 c 0,4,5
 793 1758 793 1758 790 1742 c 0,6,7
 778 1687 778 1687 732 1648.5 c 128,-1,8
 686 1610 686 1610 632 1610 c 128,-1,9
 578 1610 578 1610 548 1648 c 0,10,11
 527 1676 527 1676 527 1712 c 0,12,13
 527 1726 527 1726 530 1742 c 0,14,15
 542 1797 542 1797 588 1835.5 c 128,-1,0
 634 1874 634 1874 688 1874 c 128,-1,1
200 0 m 1,16,-1
 481 1320 l 2,17,18
 486 1344 486 1344 486 1364 c 0,19,20
 486 1461 486 1461 379 1500 c 1,21,-1
 381 1510 l 1,22,-1
 721 1510 l 1,23,-1
 400 0 l 1,24,-1
 200 0 l 1,16,-1
EndSplineSet
Validated: 1
EndChar

StartChar: IJ
Encoding: 306 306 139
Width: 1729
GlyphClass: 2
Flags: W
HStem: -20 80<878.26 1161.11> 0 21G<200 404.252> 1430 80<1119.49 1633> 1500 10<381 388.796>
VStem: 200 200<0 200> 1025 10<1290 1298.61>
DStem2: 195.749 -20 395.749 -20 0.207912 0.978148<62.0292 1413.49> 1324.27 -20 1524.69 -20 0.207912 0.978148<369.091 1482.5>
LayerCount: 2
Fore
SplineSet
987 -20 m 0,0,1
 700 -20 700 -20 603 206 c 1,2,-1
 846 406 l 1,3,-1
 852 400 l 1,4,5
 833 346 833 346 822 296 c 0,6,7
 816 266 816 266 816 239 c 0,8,9
 816 201 816 201 828 170 c 0,10,11
 872 61 872 61 1004 60 c 0,12,13
 1172 60 1172 60 1300 212 c 0,14,15
 1399 329 1399 329 1445 548 c 2,16,-1
 1633 1430 l 1,17,-1
 1245 1430 l 2,18,19
 1112 1430 1112 1430 1035 1290 c 1,20,-1
 1025 1290 l 1,21,-1
 1072 1510 l 1,22,-1
 1850 1510 l 1,23,-1
 1645 546 l 2,24,25
 1594 306 1594 306 1414 152 c 0,26,27
 1214 -20 1214 -20 987 -20 c 0,0,1
200 0 m 1,28,-1
 481 1320 l 2,29,30
 486 1344 486 1344 486 1364 c 0,31,32
 486 1461 486 1461 379 1500 c 1,33,-1
 381 1510 l 1,34,-1
 721 1510 l 1,35,-1
 400 0 l 1,36,-1
 200 0 l 1,28,-1
EndSplineSet
Validated: 1
EndChar

StartChar: ij
Encoding: 307 307 140
Width: 1160
GlyphClass: 2
Flags: W
HStem: -410 10<515 524.179> 0 10<512.204 520> 1090 10<294 304.836 874 884.836> 1200 264<484.398 641.602 1064.4 1221.6>
VStem: 430 266<1253.52 1410.48> 1010 266<1253.52 1410.48>
DStem2: 112.852 -410 292.466 -410 0.207912 0.978148<607.283 1393.81> 692.794 -410 872.794 -410 0.207912 0.978148<176.1 1393.83>
LayerCount: 2
Fore
SplineSet
1171 1464 m 128,-1,1
 1225 1464 1225 1464 1255 1426 c 0,2,3
 1276 1398 1276 1398 1276 1362 c 0,4,5
 1276 1348 1276 1348 1273 1332 c 0,6,7
 1261 1277 1261 1277 1215 1238.5 c 128,-1,8
 1169 1200 1169 1200 1115 1200 c 128,-1,9
 1061 1200 1061 1200 1031 1238 c 0,10,11
 1010 1266 1010 1266 1010 1302 c 0,12,13
 1010 1316 1010 1316 1013 1332 c 0,14,15
 1025 1387 1025 1387 1071 1425.5 c 128,-1,0
 1117 1464 1117 1464 1171 1464 c 128,-1,1
591 1464 m 128,-1,17
 645 1464 645 1464 675 1426 c 0,18,19
 696 1398 696 1398 696 1362 c 0,20,21
 696 1348 696 1348 693 1332 c 0,22,23
 681 1277 681 1277 635 1238.5 c 128,-1,24
 589 1200 589 1200 535 1200 c 128,-1,25
 481 1200 481 1200 451 1238 c 0,26,27
 430 1266 430 1266 430 1302 c 0,28,29
 430 1316 430 1316 433 1332 c 0,30,31
 445 1387 445 1387 491 1425.5 c 128,-1,16
 537 1464 537 1464 591 1464 c 128,-1,17
513 -410 m 1,32,-1
 515 -400 l 1,33,34
 708 -341 708 -341 764 -75 c 2,35,-1
 973 910 l 2,36,37
 978 934 978 934 978 955 c 0,38,39
 978 1052 978 1052 872 1090 c 1,40,-1
 874 1100 l 1,41,-1
 1194 1100 l 1,42,-1
 944 -75 l 2,43,44
 873 -410 873 -410 513 -410 c 1,32,-1
200 0 m 1,45,-1
 393 910 l 2,46,47
 398 934 398 934 398 955 c 0,48,49
 398 1052 398 1052 292 1090 c 1,50,-1
 294 1100 l 1,51,-1
 614 1100 l 1,52,-1
 420 190 l 2,53,54
 415 166 415 166 415 146 c 0,55,56
 415 49 415 49 522 10 c 1,57,-1
 520 0 l 1,58,-1
 200 0 l 1,45,-1
EndSplineSet
Validated: 1
EndChar

StartChar: kgreenlandic
Encoding: 312 312 141
Width: 1274
GlyphClass: 2
Flags: W
HStem: 0 21G<200 384.255 955.069 1254> 1090 10<294 304.836 942 948.49>
VStem: 200 180<0 180> 977 277<0 277> 1078 202<715.778 1011.93>
DStem2: 200 0 380 0 0.207912 0.978148<37.4241 974.655> 850 353 693 259 0.753038 -0.657977<0 327.902>
LayerCount: 2
Fore
SplineSet
1254 0 m 1,0,-1
 977 0 l 1,1,-1
 693 259 l 1,2,-1
 458 184 l 1,3,-1
 455 192 l 1,4,5
 670 322 670 322 837 454 c 0,6,7
 1027 604 1027 604 1070 810 c 0,8,9
 1078 847 1078 847 1078 880 c 0,10,11
 1078 1019 1078 1019 940 1090 c 1,12,-1
 942 1100 l 1,13,14
 1280 1100 1280 1100 1280 886 c 0,15,16
 1280 852 1280 852 1271 812 c 0,17,18
 1218 571 1218 571 850 353 c 1,19,-1
 1254 0 l 1,0,-1
200 0 m 1,20,-1
 393 910 l 2,21,22
 398 934 398 934 398 955 c 0,23,24
 398 1052 398 1052 292 1090 c 1,25,-1
 294 1100 l 1,26,-1
 614 1100 l 1,27,-1
 380 0 l 1,28,-1
 200 0 l 1,20,-1
EndSplineSet
Validated: 1
EndChar

StartChar: Lslash
Encoding: 321 321 142
Width: 998
GlyphClass: 2
Flags: W
HStem: 0 80<417 930.508> 1500 10<381 388.796>
VStem: 1015 10<211.387 220>
DStem2: 200 0 399.995 0 0.207912 0.978148<123.369 584.866 679.784 744.903 840.029 1393.04> 218 602 243 532 0.889514 0.456909<0 78.8022 391.337 813.176>
LayerCount: 2
Fore
SplineSet
200 0 m 1,0,-1
 322 572 l 1,1,-1
 243 532 l 1,2,-1
 218 602 l 1,3,-1
 341 665 l 1,4,-1
 481 1320 l 2,5,6
 486 1344 486 1344 486 1364 c 0,7,8
 486 1461 486 1461 379 1500 c 1,9,-1
 381 1510 l 1,10,-1
 721 1510 l 1,11,-1
 566 781 l 1,12,-1
 950 978 l 1,13,-1
 975 908 l 1,14,-1
 546 688 l 1,15,-1
 417 80 l 1,16,-1
 805 80 l 2,17,18
 938 80 938 80 1015 220 c 1,19,-1
 1025 220 l 1,20,-1
 978 0 l 1,21,-1
 200 0 l 1,0,-1
EndSplineSet
Validated: 1
EndChar

StartChar: lslash
Encoding: 322 322 143
Width: 732
GlyphClass: 2
Flags: W
HStem: 0 10<588.204 596> 1500 10<457 464.796>
DStem2: 169 609 192 546 0.889228 0.457464<0 244.774 525.061 769.835> 276 0 455.614 0 0.207912 0.978148<188.123 676.849 761.57 820.575 905.296 1393.04>
LayerCount: 2
Fore
SplineSet
276 0 m 1,0,-1
 417 662 l 1,1,-1
 192 546 l 1,2,-1
 169 609 l 1,3,-1
 434 745 l 1,4,-1
 557 1320 l 2,5,6
 562 1344 562 1344 562 1364 c 0,7,8
 562 1461 562 1461 455 1500 c 1,9,-1
 457 1510 l 1,10,-1
 777 1510 l 1,11,-1
 636 849 l 1,12,-1
 861 965 l 1,13,-1
 884 902 l 1,14,-1
 619 766 l 1,15,-1
 496 190 l 2,16,17
 491 166 491 166 491 146 c 0,18,19
 491 49 491 49 598 10 c 1,20,-1
 596 0 l 1,21,-1
 276 0 l 1,0,-1
EndSplineSet
Validated: 1
EndChar

StartChar: Eng
Encoding: 330 330 144
Width: 1577
GlyphClass: 2
Flags: W
HStem: -410 21G<769 912.5> 0 21G<200 404.252> 1430 80<704 1168.01> 1500 10<381 388.796>
VStem: 200 200<0 200> 1396 219<677.969 1212.15>
DStem2: 112.852 -410 312.852 -410 0.207912 0.978148<460.742 1812.2> 1120.33 -410 1340.33 -410 0.207912 0.978148<540.914 1423.66>
LayerCount: 2
Fore
SplineSet
200 0 m 1,0,-1
 481 1320 l 2,1,2
 486 1344 486 1344 486 1364 c 0,3,4
 486 1461 486 1461 379 1500 c 1,5,-1
 381 1510 l 1,6,-1
 1007 1510 l 2,7,8
 1330 1510 1330 1510 1503 1317 c 0,9,10
 1615 1192 1615 1192 1615 982 c 0,11,12
 1615 884 1615 884 1590 767 c 2,13,-1
 1504 360 l 2,14,15
 1439 52 1439 52 1206 -164 c 0,16,17
 1043 -316 1043 -316 782 -410 c 1,18,-1
 769 -410 l 1,19,20
 1012 -232 1012 -232 1133 -32 c 0,21,22
 1238 140 1238 140 1284 360 c 2,23,-1
 1370 767 l 2,24,25
 1396 890 1396 890 1396 990 c 0,26,27
 1396 1147 1396 1147 1333 1250 c 0,28,29
 1223 1430 1223 1430 963 1430 c 2,30,-1
 704 1430 l 1,31,-1
 400 0 l 1,32,-1
 200 0 l 1,0,-1
EndSplineSet
Validated: 1
EndChar

StartChar: eng
Encoding: 331 331 145
Width: 1318
GlyphClass: 2
Flags: W
HStem: -410 21G<621 722.5> 0 21G<200 384.252> 1030 70<599 928.128> 1090 10<294 304.836>
VStem: 200 180<0 180> 1101 198<415.938 866.861>
DStem2: 112.852 -410 292.852 -410 0.207912 0.978148<456.584 1393.81> 880.843 -410 1080.84 -410 0.207912 0.978148<387.383 1118.77>
LayerCount: 2
Fore
SplineSet
200 0 m 1,0,-1
 393 910 l 2,1,2
 398 934 398 934 398 955 c 0,3,4
 398 1052 398 1052 292 1090 c 1,5,-1
 294 1100 l 1,6,-1
 794 1100 l 2,7,8
 1066 1100 1066 1100 1191 960 c 0,9,10
 1299 839 1299 839 1299 674 c 0,11,12
 1299 615 1299 615 1285 550 c 2,13,-1
 1202 160 l 2,14,15
 1152 -73 1152 -73 951 -240 c 0,16,17
 814 -354 814 -354 631 -410 c 1,18,-1
 621 -410 l 1,19,20
 794 -272 794 -272 890 -117 c 0,21,22
 970 12 970 12 1002 160 c 2,23,-1
 1085 550 l 2,24,25
 1101 624 1101 624 1101 689 c 0,26,27
 1101 811 1101 811 1044 897 c 0,28,29
 957 1030 957 1030 759 1030 c 2,30,-1
 599 1030 l 1,31,-1
 380 0 l 1,32,-1
 200 0 l 1,0,-1
EndSplineSet
Validated: 1
EndChar

StartChar: OE
Encoding: 338 338 146
Width: 2503
GlyphClass: 2
Flags: W
HStem: -20 80<683.505 1065.89 1658 2025.82> 715 80<1774 2156> 1450 80<959.418 1347.63 1866.97 2271>
VStem: 238 220<317.615 837.84> 1569 219<796.507 1190.51>
CounterMasks: 1 e0
LayerCount: 2
Fore
SplineSet
866 60 m 128,-1,1
 1116 60 1116 60 1304 270 c 0,2,3
 1486 473 1486 473 1546 755 c 0,4,5
 1569 864 1569 864 1569 961 c 0,6,7
 1569 1115 1569 1115 1511 1240 c 0,8,9
 1412 1450 1412 1450 1161.5 1450 c 128,-1,10
 911 1450 911 1450 723 1240 c 0,11,12
 541 1037 541 1037 481 755 c 0,13,14
 458 646 458 646 458 549 c 0,15,16
 458 395 458 395 516 270 c 0,17,0
 616 60 616 60 866 60 c 128,-1,1
849 -20 m 0,18,19
 498 -20 498 -20 335 218 c 0,20,21
 238 361 238 361 238 555 c 0,22,23
 238 649 238 649 260 755 c 0,24,25
 330 1080 330 1080 564 1292 c 0,26,27
 828 1530 828 1530 1178 1530 c 0,28,29
 1446 1530 1446 1530 1605 1391 c 1,30,31
 1823 1530 1823 1530 2089 1530 c 0,32,33
 2454 1530 2454 1530 2611 1278 c 1,34,-1
 2367 1080 l 1,35,-1
 2362 1086 l 1,36,37
 2384 1139 2384 1139 2391 1182 c 0,38,39
 2394 1202 2394 1202 2394 1221 c 0,40,41
 2394 1265 2394 1265 2378 1304 c 0,42,43
 2314 1450 2314 1450 2070 1450 c 0,44,45
 1858 1450 1858 1450 1688 1296 c 1,46,47
 1788 1149 1788 1149 1788 951 c 0,48,49
 1788 877 1788 877 1774 795 c 1,50,-1
 2173 795 l 1,51,-1
 2156 715 l 1,52,-1
 1757 715 l 1,53,54
 1684 424 1684 424 1474 228 c 1,55,56
 1595 70 1595 70 1856 70 c 0,57,58
 2144 70 2144 70 2465 325 c 1,59,-1
 2471 319 l 1,60,61
 2180 -20 2180 -20 1760 -20 c 0,62,63
 1491 -20 1491 -20 1333 119 c 1,64,65
 1117 -20 1117 -20 849 -20 c 0,18,19
EndSplineSet
Validated: 1
EndChar

StartChar: oe
Encoding: 339 339 147
Width: 1797
GlyphClass: 2
Flags: W
HStem: -20 69<512.061 800.443 1175.67 1448.07> 515 70<1299 1515> 1051 69<711.469 1000.29 1322.39 1620.5>
VStem: 201 194<200.874 637.823> 1115 193<585.937 897.263>
CounterMasks: 1 e0
LayerCount: 2
Fore
SplineSet
648 49 m 128,-1,1
 819 49 819 49 936 194 c 256,2,3
 1046 330 1046 330 1093 550 c 0,4,5
 1115 654 1115 654 1115 740 c 0,6,7
 1115 835 1115 835 1088 906 c 256,8,9
 1033 1051 1033 1051 861.5 1051 c 128,-1,10
 690 1051 690 1051 574 906 c 256,11,12
 464 770 464 770 417 550 c 0,13,14
 395 446 395 446 395 360 c 0,15,16
 395 265 395 265 422 194 c 256,17,0
 477 49 477 49 648 49 c 128,-1,1
634 -20 m 0,18,19
 377 -20 377 -20 265 164 c 0,20,21
 201 269 201 269 201 406 c 0,22,23
 201 474 201 474 217 550 c 0,24,25
 265 778 265 778 429 936 c 0,26,27
 619 1120 619 1120 876 1120 c 0,28,29
 1055 1120 1055 1120 1163 1031 c 1,30,31
 1310 1120 1310 1120 1488 1120 c 0,32,33
 1746 1120 1746 1120 1862 926 c 1,34,-1
 1675 773 l 1,35,-1
 1670 779 l 1,36,37
 1689 815 1689 815 1694 846 c 0,38,39
 1697 863 1697 863 1697 879 c 0,40,41
 1697 904 1697 904 1690 928 c 0,42,43
 1650 1051 1650 1051 1473 1051 c 0,44,45
 1336 1051 1336 1051 1232 956 c 1,46,47
 1308 834 1308 834 1308 688 c 0,48,49
 1308 638 1308 638 1299 585 c 1,50,-1
 1530 585 l 1,51,-1
 1515 515 l 1,52,-1
 1284 515 l 1,53,54
 1231 309 1231 309 1072 156 c 1,55,56
 1152 60 1152 60 1307 60 c 0,57,58
 1523 60 1523 60 1737 224 c 1,59,-1
 1743 218 l 1,60,61
 1527 -20 1527 -20 1246 -20 c 0,62,63
 1069 -20 1069 -20 960 69 c 1,64,65
 813 -20 813 -20 634 -20 c 0,18,19
EndSplineSet
Validated: 1
EndChar

StartChar: Tbar
Encoding: 358 358 148
Width: 1110
GlyphClass: 2
Flags: W
HStem: 0 21G<456 660.267> 600 80<374 584 801 1009> 1430 80<388.492 760 960 1312.57>
VStem: 294 10<1290 1298.61> 456 200<0 200> 1354 10<1290 1311.02>
DStem2: 456 0 656 0 0.207912 0.978148<41.5823 613.501 736.87 1461.96>
LayerCount: 2
Fore
SplineSet
456 0 m 1,0,-1
 584 600 l 1,1,-1
 357 600 l 1,2,-1
 374 680 l 1,3,-1
 601 680 l 1,4,-1
 760 1430 l 1,5,-1
 514 1430 l 2,6,7
 381 1430 381 1430 304 1290 c 1,8,-1
 294 1290 l 1,9,-1
 341 1510 l 1,10,-1
 1411 1510 l 1,11,-1
 1364 1290 l 1,12,-1
 1354 1290 l 1,13,14
 1337 1430 1337 1430 1204 1430 c 2,15,-1
 960 1430 l 1,16,-1
 801 680 l 1,17,-1
 1026 680 l 1,18,-1
 1009 600 l 1,19,-1
 784 600 l 1,20,-1
 656 0 l 1,21,-1
 456 0 l 1,0,-1
EndSplineSet
Validated: 1
EndChar

StartChar: tbar
Encoding: 359 359 149
Width: 750
GlyphClass: 2
Flags: W
HStem: 0 10<512.204 520> 605 70<213 329 523 639> 1030 70<614 949> 1500 10<381 388.796>
DStem2: 200 0 379.614 0 0.207912 0.978148<188.123 618.6 727.405 1090.45 1162.04 1393.04>
LayerCount: 2
Fore
SplineSet
200 0 m 1,0,-1
 329 605 l 1,1,-1
 199 605 l 1,2,-1
 213 675 l 1,3,-1
 343 675 l 1,4,-1
 481 1320 l 2,5,6
 486 1344 486 1344 486 1364 c 0,7,8
 486 1461 486 1461 379 1500 c 1,9,-1
 381 1510 l 1,10,-1
 701 1510 l 1,11,-1
 614 1100 l 1,12,-1
 964 1100 l 1,13,-1
 949 1030 l 1,14,-1
 599 1030 l 1,15,-1
 523 675 l 1,16,-1
 653 675 l 1,17,-1
 639 605 l 1,18,-1
 509 605 l 1,19,-1
 420 190 l 2,20,21
 415 166 415 166 415 146 c 0,22,23
 415 49 415 49 522 10 c 1,24,-1
 520 0 l 1,25,-1
 200 0 l 1,0,-1
EndSplineSet
Validated: 1
EndChar

StartChar: longs
Encoding: 383 383 150
Width: 1193
GlyphClass: 2
Flags: W
HStem: -410 21G<143 327.248> 690 70<192 377> 1461 69<924.191 1221.19>
VStem: 143 180<-410 -230>
DStem2: 143 -410 323 -410 0.207912 0.978148<37.4241 1124.61 1196.2 1661.61>
LayerCount: 2
Fore
SplineSet
143 -410 m 1,0,-1
 377 690 l 1,1,-1
 177 690 l 1,2,-1
 192 760 l 1,3,-1
 392 760 l 1,4,-1
 434 960 l 2,5,6
 482 1188 482 1188 646 1346 c 0,7,8
 838 1530 838 1530 1093 1530 c 0,9,10
 1351 1530 1351 1530 1467 1336 c 1,11,-1
 1280 1183 l 1,12,-1
 1275 1189 l 1,13,14
 1294 1224 1294 1224 1299 1256 c 0,15,16
 1302 1274 1302 1274 1302 1291 c 0,17,18
 1302 1317 1302 1317 1295 1338 c 0,19,20
 1251 1461 1251 1461 1079 1461 c 0,21,22
 912 1461 912 1461 790 1329 c 0,23,24
 663 1192 663 1192 614 960 c 2,25,-1
 323 -410 l 1,26,-1
 143 -410 l 1,0,-1
EndSplineSet
Validated: 1
EndChar

StartChar: florin
Encoding: 402 402 151
Width: 1163
GlyphClass: 2
Flags: W
HStem: -410 10<-65 -55.8206> 690 70<542 1019> 1461 69<894.191 1195.87>
DStem2: 112.794 -410 292.794 -410 0.207912 0.978148<176.1 1162.08 1233.67 1661.66>
LayerCount: 2
Fore
SplineSet
-67 -410 m 1,0,-1
 -65 -400 l 1,1,2
 128 -341 128 -341 184 -75 c 2,3,-1
 404 960 l 2,4,5
 452 1188 452 1188 616 1346 c 0,6,7
 808 1530 808 1530 1063 1530 c 0,8,9
 1321 1530 1321 1530 1437 1336 c 1,10,-1
 1250 1183 l 1,11,-1
 1245 1189 l 1,12,13
 1264 1225 1264 1225 1269 1256 c 0,14,15
 1272 1273 1272 1273 1272 1289 c 0,16,17
 1272 1314 1272 1314 1265 1338 c 0,18,19
 1226 1461 1226 1461 1049 1461 c 0,20,21
 882 1461 882 1461 760 1329 c 0,22,23
 633 1192 633 1192 584 960 c 2,24,-1
 542 760 l 1,25,-1
 1034 760 l 1,26,-1
 1019 690 l 1,27,-1
 527 690 l 1,28,-1
 364 -75 l 2,29,30
 293 -410 293 -410 -67 -410 c 1,0,-1
EndSplineSet
Validated: 1
EndChar

StartChar: Scommaaccent
Encoding: 536 536 152
Width: 1269
GlyphClass: 2
Flags: W
HStem: -20 80<468.263 810.212> 1450 80<832.743 1078.95>
VStem: 540 177<1112.32 1309> 1099 207<394.486 674.731>
DStem2: 864 1034 749 868 0.889337 -0.457253<-170.069 350.754>
LayerCount: 2
Fore
SplineSet
607 -20 m 0,0,1
 368 -20 368 -20 258 112 c 0,2,3
 185 200 185 200 155 354 c 1,4,-1
 415 565 l 1,5,-1
 421 559 l 1,6,7
 373 457 373 457 362 381 c 0,8,9
 357 345 357 345 357 313 c 0,10,11
 357 241 357 241 383 190 c 0,12,13
 450 60 450 60 627 60 c 0,14,15
 808 60 808 60 940 189 c 0,16,17
 1055 301 1055 301 1088 446 c 0,18,19
 1099 493 1099 493 1099 535 c 0,20,21
 1099 684 1099 684 945 765 c 2,22,-1
 749 868 l 2,23,24
 540 978 540 978 540 1149 c 0,25,26
 540 1179 540 1179 547 1210 c 0,27,28
 577 1351 577 1351 704 1444 c 0,29,30
 821 1530 821 1530 986 1530 c 0,31,32
 1155 1530 1155 1530 1227 1438 c 0,33,34
 1264 1391 1264 1391 1278 1322 c 1,35,-1
 1091 1169 l 1,36,-1
 1086 1175 l 1,37,38
 1103 1207 1103 1207 1110 1242 c 0,39,40
 1117 1273 1117 1273 1117 1301 c 0,41,42
 1117 1333 1117 1333 1108 1361 c 0,43,44
 1081 1450 1081 1450 975 1450 c 0,45,46
 880 1450 880 1450 810 1395 c 0,47,48
 743 1342 743 1342 722 1255 c 0,49,50
 717 1234 717 1234 717 1214 c 0,51,52
 717 1110 717 1110 864 1034 c 2,53,-1
 1076 925 l 2,54,55
 1306 807 1306 807 1306 592 c 0,56,57
 1306 547 1306 547 1295 498 c 0,58,59
 1250 287 1250 287 1051 135 c 0,60,61
 847 -20 847 -20 607 -20 c 0,0,1
597 -60 m 1,62,-1
 698 -187 l 1,63,64
 499 -257 499 -257 329 -434 c 1,65,-1
 319 -434 l 1,66,67
 390 -187 390 -187 597 -60 c 1,62,-1
EndSplineSet
Validated: 1
EndChar

StartChar: scommaaccent
Encoding: 537 537 153
Width: 964
GlyphClass: 2
Flags: W
HStem: -20 69<351.13 603.488> 1051 69<616.083 806.646>
VStem: 397 150<794.86 961.631> 793 177<266.475 487.171>
DStem2: 812 662 535 618 0.87119 -0.490947<-324.899 93.1298>
LayerCount: 2
Fore
SplineSet
448 -20 m 0,0,1
 328 -20 328 -20 249 34 c 0,2,3
 157 98 157 98 126 218 c 1,4,-1
 313 371 l 1,5,-1
 319 365 l 1,6,7
 302 333 302 333 294 298 c 128,-1,8
 286 263 286 263 286 232 c 0,9,10
 286 194 286 194 298 161 c 0,11,12
 337 49 337 49 464 49 c 0,13,14
 593 49 593 49 691 148 c 0,15,16
 762 220 762 220 785 317 c 0,17,18
 793 349 793 349 793 376 c 0,19,20
 793 471 793 471 703 522 c 2,21,-1
 535 618 l 2,22,23
 397 697 397 697 397 817 c 0,24,25
 397 841 397 841 402 866 c 0,26,27
 426 979 426 979 536 1059 c 0,28,29
 620 1120 620 1120 744 1120 c 0,30,31
 863 1120 863 1120 918 1054 c 0,32,33
 950 1016 950 1016 961 964 c 1,34,-1
 806 838 l 1,35,-1
 800 844 l 1,36,37
 817 876 817 876 825 911 c 0,38,39
 829 931 829 931 829 948 c 0,40,41
 829 972 829 972 821 993 c 0,42,43
 798 1051 798 1051 724 1051 c 0,44,45
 660 1051 660 1051 615 1017 c 0,46,47
 566 980 566 980 551 917 c 0,48,49
 547 900 547 900 547 884 c 0,50,51
 547 812 547 812 631 764 c 2,52,-1
 812 662 l 2,53,54
 970 573 970 573 970 431 c 0,55,56
 970 401 970 401 963 370 c 0,57,58
 927 200 927 200 756 79 c 24,59,60
 616 -20 616 -20 448 -20 c 0,0,1
438 -60 m 1,61,-1
 539 -187 l 1,62,63
 340 -257 340 -257 170 -434 c 1,64,-1
 160 -434 l 1,65,66
 231 -187 231 -187 438 -60 c 1,61,-1
EndSplineSet
Validated: 1
EndChar

StartChar: uni021A
Encoding: 538 538 154
Width: 1110
GlyphClass: 2
Flags: W
HStem: 0 21G<456 660.252> 1430 80<388.492 760 960 1312.57>
VStem: 294 10<1290 1298.61> 456 200<0 200> 1354 10<1290 1311.02>
DStem2: 363.75 -434 563.75 -434 0.207912 0.978148<485.278 1905.65>
LayerCount: 2
Fore
SplineSet
543 -60 m 1,0,1
 644 -187 l 1,2,3
 445 -257 445 -257 275 -434 c 1,4,-1
 265 -434 l 1,5,6
 336 -187 336 -187 543 -60 c 1,0,1
456 0 m 1,7,-1
 760 1430 l 1,8,-1
 514 1430 l 2,9,10
 381 1430 381 1430 304 1290 c 1,11,-1
 294 1290 l 1,12,-1
 341 1510 l 1,13,-1
 1411 1510 l 1,14,-1
 1364 1290 l 1,15,-1
 1354 1290 l 1,16,17
 1337 1430 1337 1430 1204 1430 c 2,18,-1
 960 1430 l 1,19,-1
 656 0 l 1,20,-1
 456 0 l 1,7,-1
EndSplineSet
Validated: 1
EndChar

StartChar: uni021B
Encoding: 539 539 155
Width: 750
GlyphClass: 2
Flags: W
HStem: 0 10<512.204 520> 1030 70<614 949> 1500 10<381 388.796>
DStem2: 107.75 -434 287.365 -434 0.207912 0.978148<631.819 1534.14 1605.73 1836.74>
LayerCount: 2
Fore
SplineSet
200 0 m 1,0,-1
 481 1320 l 2,1,2
 486 1344 486 1344 486 1364 c 0,3,4
 486 1461 486 1461 379 1500 c 1,5,-1
 381 1510 l 1,6,-1
 701 1510 l 1,7,-1
 614 1100 l 1,8,-1
 964 1100 l 1,9,-1
 949 1030 l 1,10,-1
 599 1030 l 1,11,-1
 420 190 l 2,12,13
 415 166 415 166 415 146 c 0,14,15
 415 49 415 49 522 10 c 1,16,-1
 520 0 l 1,17,-1
 200 0 l 1,0,-1
335 -60 m 1,18,-1
 436 -187 l 1,19,20
 237 -257 237 -257 67 -434 c 1,21,-1
 57 -434 l 1,22,23
 128 -187 128 -187 335 -60 c 1,18,-1
EndSplineSet
Validated: 1
EndChar

StartChar: endash
Encoding: 8211 8211 156
Width: 1133
GlyphClass: 2
Flags: W
HStem: 680 150<326 1128>
LayerCount: 2
Fore
SplineSet
326 830 m 1,0,-1
 1159 830 l 1,1,-1
 1128 680 l 1,2,-1
 295 680 l 1,3,-1
 326 830 l 1,0,-1
EndSplineSet
Validated: 1
EndChar

StartChar: emdash
Encoding: 8212 8212 157
Width: 1533
GlyphClass: 2
Flags: W
HStem: 680 150<326 1528>
LayerCount: 2
Fore
SplineSet
326 830 m 1,0,-1
 1559 830 l 1,1,-1
 1528 680 l 1,2,-1
 295 680 l 1,3,-1
 326 830 l 1,0,-1
EndSplineSet
Validated: 1
EndChar

StartChar: afii00208
Encoding: 8213 8213 158
Width: 1533
GlyphClass: 2
Flags: W
HStem: 680 150<326 1528>
LayerCount: 2
Fore
SplineSet
326 830 m 1,0,-1
 1559 830 l 1,1,-1
 1528 680 l 1,2,-1
 295 680 l 1,3,-1
 326 830 l 1,0,-1
EndSplineSet
Validated: 1
EndChar

StartChar: quoteleft
Encoding: 8216 8216 159
Width: 368
GlyphClass: 2
Flags: W
HStem: 1028 572
VStem: 312 188<1132.29 1361.58>
LayerCount: 2
Fore
SplineSet
668 1600 m 1,0,-1
 666 1590 l 1,1,2
 533 1470 533 1470 504 1332 c 0,3,4
 500 1311 500 1311 500 1292 c 0,5,6
 500 1220 500 1220 561 1168 c 1,7,-1
 392 1028 l 1,8,9
 312 1106 312 1106 312 1206 c 0,10,11
 312 1233 312 1233 318 1263 c 0,12,13
 366 1485 366 1485 668 1600 c 1,0,-1
EndSplineSet
Validated: 1
EndChar

StartChar: quoteright
Encoding: 8217 8217 160
Width: 368
GlyphClass: 2
Flags: W
HStem: 1028 572
VStem: 426 188<1266.82 1444.98>
LayerCount: 2
Fore
SplineSet
535 1600 m 1,0,1
 614 1522 614 1522 614 1423 c 0,2,3
 614 1395 614 1395 608 1365 c 0,4,5
 561 1143 561 1143 259 1028 c 1,6,-1
 261 1038 l 1,7,8
 394 1158 394 1158 422 1296 c 0,9,10
 426 1317 426 1317 426 1336 c 0,11,12
 426 1408 426 1408 365 1460 c 1,13,-1
 535 1600 l 1,0,1
EndSplineSet
Validated: 1
EndChar

StartChar: quotesinglbase
Encoding: 8218 8218 161
Width: 368
GlyphClass: 2
Flags: W
HStem: -292 572
VStem: 146 188<-53.1848 124.979>
LayerCount: 2
Fore
SplineSet
255 280 m 1,0,1
 334 202 334 202 334 103 c 0,2,3
 334 75 334 75 328 45 c 0,4,5
 281 -177 281 -177 -22 -292 c 1,6,-1
 -20 -282 l 1,7,8
 113 -162 113 -162 142 -24 c 0,9,10
 146 -3 146 -3 146 16 c 0,11,12
 146 88 146 88 85 140 c 1,13,-1
 255 280 l 1,0,1
EndSplineSet
Validated: 1
EndChar

StartChar: quotereversed
Encoding: 8219 8219 162
Width: 368
GlyphClass: 2
Flags: W
HStem: 1028 572
VStem: 333 155<1156.27 1369.94>
LayerCount: 2
Fore
SplineSet
513 1600 m 1,0,1
 623 1460 l 1,2,3
 517 1394 517 1394 496 1296 c 0,4,5
 488 1260 488 1260 488 1225 c 0,6,7
 488 1127 488 1127 549 1038 c 1,8,-1
 547 1028 l 1,9,10
 333 1125 333 1125 333 1298 c 0,11,12
 333 1330 333 1330 340 1365 c 0,13,14
 369 1500 369 1500 513 1600 c 1,0,1
EndSplineSet
Validated: 1
EndChar

StartChar: quotedblleft
Encoding: 8220 8220 163
Width: 673
GlyphClass: 2
Flags: W
HStem: 1028 572
VStem: 312 188<1132.29 1361.58> 617 188<1132.29 1361.58>
LayerCount: 2
Fore
SplineSet
668 1600 m 1,0,-1
 666 1590 l 1,1,2
 533 1470 533 1470 504 1332 c 0,3,4
 500 1311 500 1311 500 1292 c 0,5,6
 500 1220 500 1220 561 1168 c 1,7,-1
 392 1028 l 1,8,9
 312 1106 312 1106 312 1206 c 0,10,11
 312 1233 312 1233 318 1263 c 0,12,13
 366 1485 366 1485 668 1600 c 1,0,-1
973 1600 m 1,14,-1
 971 1590 l 1,15,16
 838 1470 838 1470 809 1332 c 0,17,18
 805 1311 805 1311 805 1292 c 0,19,20
 805 1220 805 1220 866 1168 c 1,21,-1
 697 1028 l 1,22,23
 617 1106 617 1106 617 1206 c 0,24,25
 617 1233 617 1233 623 1263 c 0,26,27
 671 1485 671 1485 973 1600 c 1,14,-1
EndSplineSet
Validated: 1
EndChar

StartChar: quotedblright
Encoding: 8221 8221 164
Width: 673
GlyphClass: 2
Flags: W
HStem: 1028 572
VStem: 426 188<1266.82 1444.98> 731 188<1266.82 1444.98>
LayerCount: 2
Fore
SplineSet
840 1600 m 1,0,1
 919 1522 919 1522 919 1423 c 0,2,3
 919 1395 919 1395 913 1365 c 0,4,5
 866 1143 866 1143 564 1028 c 1,6,-1
 566 1038 l 1,7,8
 699 1158 699 1158 727 1296 c 0,9,10
 731 1317 731 1317 731 1336 c 0,11,12
 731 1408 731 1408 670 1460 c 1,13,-1
 840 1600 l 1,0,1
535 1600 m 1,14,15
 614 1522 614 1522 614 1423 c 0,16,17
 614 1395 614 1395 608 1365 c 0,18,19
 561 1143 561 1143 259 1028 c 1,20,-1
 261 1038 l 1,21,22
 394 1158 394 1158 422 1296 c 0,23,24
 426 1317 426 1317 426 1336 c 0,25,26
 426 1408 426 1408 365 1460 c 1,27,-1
 535 1600 l 1,14,15
EndSplineSet
Validated: 1
EndChar

StartChar: quotedblbase
Encoding: 8222 8222 165
Width: 673
GlyphClass: 2
Flags: W
HStem: -292 572
VStem: 146 188<-53.1848 124.979> 451 188<-53.1848 124.979>
LayerCount: 2
Fore
SplineSet
560 280 m 1,0,1
 639 202 639 202 639 103 c 0,2,3
 639 75 639 75 633 45 c 0,4,5
 586 -177 586 -177 283 -292 c 1,6,-1
 285 -282 l 1,7,8
 418 -162 418 -162 447 -24 c 0,9,10
 451 -3 451 -3 451 16 c 0,11,12
 451 88 451 88 390 140 c 1,13,-1
 560 280 l 1,0,1
255 280 m 1,14,15
 334 202 334 202 334 103 c 0,16,17
 334 75 334 75 328 45 c 0,18,19
 281 -177 281 -177 -22 -292 c 1,20,-1
 -20 -282 l 1,21,22
 113 -162 113 -162 142 -24 c 0,23,24
 146 -3 146 -3 146 16 c 0,25,26
 146 88 146 88 85 140 c 1,27,-1
 255 280 l 1,14,15
EndSplineSet
Validated: 1
EndChar

StartChar: dagger
Encoding: 8224 8224 166
Width: 1132
GlyphClass: 2
Flags: W
HStem: 0 21G<486 650.25> 1054 80<391 710 887 1206> 1490 20G<802.745 967>
VStem: 486 160<0 160> 807 160<1350 1510>
DStem2: 486 0 646 0 0.207912 0.978148<33.2659 1077.54 1192.59 1543.74>
LayerCount: 2
Fore
SplineSet
486 0 m 1,0,-1
 710 1054 l 1,1,-1
 374 1054 l 1,2,-1
 391 1134 l 1,3,-1
 727 1134 l 1,4,-1
 807 1510 l 1,5,-1
 967 1510 l 1,6,-1
 887 1134 l 1,7,-1
 1223 1134 l 1,8,-1
 1206 1054 l 1,9,-1
 870 1054 l 1,10,-1
 646 0 l 1,11,-1
 486 0 l 1,0,-1
EndSplineSet
Validated: 1
EndChar

StartChar: daggerdbl
Encoding: 8225 8225 167
Width: 1132
GlyphClass: 2
Flags: W
HStem: 0 21G<486 650.255> 376 80<247 566 743 1062> 1054 80<391 710 887 1206> 1490 20G<802.745 967>
VStem: 486 160<0 160> 807 160<1350 1510>
DStem2: 486 0 646 0 0.207912 0.978148<33.2659 384.416 499.469 1077.54 1192.59 1543.74>
LayerCount: 2
Fore
SplineSet
967 1510 m 1,0,-1
 887 1134 l 1,1,-1
 1223 1134 l 1,2,-1
 1206 1054 l 1,3,-1
 870 1054 l 1,4,-1
 743 456 l 1,5,-1
 1079 456 l 1,6,-1
 1062 376 l 1,7,-1
 726 376 l 1,8,-1
 646 0 l 1,9,-1
 486 0 l 1,10,-1
 566 376 l 1,11,-1
 230 376 l 1,12,-1
 247 456 l 1,13,-1
 583 456 l 1,14,-1
 710 1054 l 1,15,-1
 374 1054 l 1,16,-1
 391 1134 l 1,17,-1
 727 1134 l 1,18,-1
 807 1510 l 1,19,-1
 967 1510 l 1,0,-1
EndSplineSet
Validated: 1
EndChar

StartChar: bullet
Encoding: 8226 8226 168
Width: 900
GlyphClass: 2
Flags: W
HStem: 442 625<513.875 706.03>
VStem: 303 615<656.294 856.207>
LayerCount: 2
Fore
SplineSet
680 1067 m 0,0,1
 802 1067 802 1067 869 976 c 0,2,3
 918 910 918 910 918 825 c 0,4,5
 918 791 918 791 910 755 c 0,6,7
 883 626 883 626 775.5 534 c 128,-1,8
 668 442 668 442 544 442 c 256,9,10
 420 442 420 442 352 534 c 0,11,12
 303 600 303 600 303 684 c 0,13,14
 303 722 303 722 310 755 c 0,15,16
 338 884 338 884 445 976 c 0,17,18
 552 1067 552 1067 680 1067 c 0,0,1
EndSplineSet
Validated: 1
EndChar

StartChar: ellipsis
Encoding: 8230 8230 169
Width: 1096
GlyphClass: 2
Flags: W
HStem: -20 264<125.398 282.602 493.398 650.602 861.398 1018.6>
VStem: 70 267<33.5176 188.67> 438 267<33.5176 188.67> 806 267<33.5176 188.67>
CounterMasks: 1 70
LayerCount: 2
Fore
SplineSet
912 -20 m 128,-1,1
 858 -20 858 -20 828 18 c 0,2,3
 806 46 806 46 806 83 c 0,4,5
 806 97 806 97 810 112 c 0,6,7
 822 167 822 167 868 205.5 c 128,-1,8
 914 244 914 244 968 244 c 128,-1,9
 1022 244 1022 244 1052 206 c 0,10,11
 1073 178 1073 178 1073 142 c 0,12,13
 1073 127 1073 127 1070 112 c 0,14,15
 1058 57 1058 57 1012 18.5 c 128,-1,0
 966 -20 966 -20 912 -20 c 128,-1,1
544 -20 m 128,-1,17
 490 -20 490 -20 460 18 c 0,18,19
 438 46 438 46 438 83 c 0,20,21
 438 97 438 97 442 112 c 0,22,23
 454 167 454 167 500 205.5 c 128,-1,24
 546 244 546 244 600 244 c 128,-1,25
 654 244 654 244 684 206 c 0,26,27
 705 178 705 178 705 142 c 0,28,29
 705 127 705 127 702 112 c 0,30,31
 690 57 690 57 644 18.5 c 128,-1,16
 598 -20 598 -20 544 -20 c 128,-1,17
176 -20 m 128,-1,33
 122 -20 122 -20 92 18 c 0,34,35
 70 46 70 46 70 83 c 0,36,37
 70 97 70 97 74 112 c 0,38,39
 86 167 86 167 132 205.5 c 128,-1,40
 178 244 178 244 232 244 c 128,-1,41
 286 244 286 244 316 206 c 0,42,43
 337 178 337 178 337 142 c 0,44,45
 337 127 337 127 334 112 c 0,46,47
 322 57 322 57 276 18.5 c 128,-1,32
 230 -20 230 -20 176 -20 c 128,-1,33
EndSplineSet
Validated: 1
EndChar

StartChar: perthousand
Encoding: 8240 8240 170
Width: 2276
GlyphClass: 2
Flags: W
HStem: -20 60<1058.56 1229.68 1741.56 1912.68> 554 60<1158.37 1327.86 1841.37 2010.86> 896 60<585.635 755.225> 1470 60<683.914 853.17>
VStem: 400 133<996.697 1313.18> 874 133<82.619 397.178> 907 133<1112.82 1427.38> 1381 133<196.822 513.303> 1557 133<82.619 397.178> 2064 133<196.822 513.303>
DStem2: 375 45 497 -20 0.576446 0.817135<17.2126 1816.98>
LayerCount: 2
Fore
SplineSet
1823 40 m 0,0,1
 1897 40 1897 40 1964.5 114.5 c 128,-1,2
 2032 189 2032 189 2055 297 c 0,3,4
 2064 339 2064 339 2064 375 c 0,5,6
 2063 439 2063 439 2043 481 c 0,7,8
 2007 554 2007 554 1930 554 c 0,9,10
 1856 554 1856 554 1789 479.5 c 128,-1,11
 1722 405 1722 405 1699 297 c 0,12,13
 1690 255 1690 255 1690 218 c 0,14,15
 1690 155 1690 155 1710 113 c 0,16,17
 1746 40 1746 40 1823 40 c 0,0,1
1810 -20 m 0,18,19
 1681 -20 1681 -20 1609 72 c 0,20,21
 1558 138 1558 138 1557 226 c 0,22,23
 1557 260 1557 260 1565 297 c 0,24,25
 1593 429 1593 429 1704 521.5 c 128,-1,26
 1815 614 1815 614 1945 614 c 128,-1,27
 2075 614 2075 614 2146 522 c 0,28,29
 2197 456 2197 456 2197 369 c 0,30,31
 2197 335 2197 335 2189 297 c 0,32,33
 2161 165 2161 165 2050.5 72.5 c 128,-1,34
 1940 -20 1940 -20 1810 -20 c 0,18,19
1140 40 m 0,35,36
 1214 40 1214 40 1281.5 114.5 c 128,-1,37
 1349 189 1349 189 1372 297 c 0,38,39
 1381 339 1381 339 1381 375 c 0,40,41
 1380 439 1380 439 1360 481 c 0,42,43
 1324 554 1324 554 1247 554 c 0,44,45
 1173 554 1173 554 1106 479.5 c 128,-1,46
 1039 405 1039 405 1016 297 c 0,47,48
 1007 255 1007 255 1007 218 c 0,49,50
 1007 155 1007 155 1027 113 c 0,51,52
 1063 40 1063 40 1140 40 c 0,35,36
1127 -20 m 0,53,54
 998 -20 998 -20 926 72 c 0,55,56
 875 138 875 138 874 226 c 0,57,58
 874 260 874 260 882 297 c 0,59,60
 910 429 910 429 1021 521.5 c 128,-1,61
 1132 614 1132 614 1262 614 c 128,-1,62
 1392 614 1392 614 1463 522 c 0,63,64
 1514 456 1514 456 1514 369 c 0,65,66
 1514 335 1514 335 1506 297 c 0,67,68
 1478 165 1478 165 1367.5 72.5 c 128,-1,69
 1257 -20 1257 -20 1127 -20 c 0,53,54
773 1470 m 0,70,71
 699 1470 699 1470 632 1395.5 c 128,-1,72
 565 1321 565 1321 542 1213 c 0,73,74
 533 1171 533 1171 533 1134 c 0,75,76
 533 1071 533 1071 553 1029 c 0,77,78
 589 956 589 956 666 956 c 0,79,80
 740 956 740 956 807.5 1030.5 c 128,-1,81
 875 1105 875 1105 898 1213 c 0,82,83
 907 1255 907 1255 907 1291 c 0,84,85
 906 1355 906 1355 886 1397 c 0,86,87
 850 1470 850 1470 773 1470 c 0,70,71
787 1530 m 0,88,89
 916 1530 916 1530 988 1438 c 0,90,91
 1039 1372 1039 1372 1040 1284 c 0,92,93
 1040 1250 1040 1250 1032 1213 c 0,94,95
 1004 1081 1004 1081 893 988.5 c 128,-1,96
 782 896 782 896 652 896 c 128,-1,97
 522 896 522 896 451 988 c 0,98,99
 400 1054 400 1054 400 1141 c 0,100,101
 400 1175 400 1175 408 1213 c 0,102,103
 436 1345 436 1345 546.5 1437.5 c 128,-1,104
 657 1530 657 1530 787 1530 c 0,88,89
497 -20 m 1,105,-1
 375 45 l 1,106,-1
 1422 1530 l 1,107,-1
 1546 1467 l 1,108,-1
 497 -20 l 1,105,-1
EndSplineSet
Validated: 1
EndChar

StartChar: minute
Encoding: 8242 8242 171
Width: 421
GlyphClass: 2
Flags: W
HStem: 1156 394
VStem: 296 404
LayerCount: 2
Fore
SplineSet
516 1550 m 1,0,-1
 700 1550 l 1,1,-1
 404 1156 l 1,2,-1
 296 1156 l 1,3,-1
 516 1550 l 1,0,-1
EndSplineSet
Validated: 1
EndChar

StartChar: second
Encoding: 8243 8243 172
Width: 700
GlyphClass: 2
Flags: W
HStem: 1156 394
LayerCount: 2
Fore
SplineSet
795 1550 m 1,0,-1
 979 1550 l 1,1,-1
 683 1156 l 1,2,-1
 575 1156 l 1,3,-1
 795 1550 l 1,0,-1
516 1550 m 1,4,-1
 700 1550 l 1,5,-1
 404 1156 l 1,6,-1
 296 1156 l 1,7,-1
 516 1550 l 1,4,-1
EndSplineSet
Validated: 1
EndChar

StartChar: guilsinglleft
Encoding: 8249 8249 173
Width: 853
GlyphClass: 2
Flags: W
VStem: 310 542
DStem2: 480 797 310 755 0.561137 -0.827723<0 462.647> 310 755 480 797 0.741034 0.671468<154.177 657.47>
LayerCount: 2
Fore
SplineSet
800 1199 m 1,0,-1
 852 1136 l 1,1,-1
 480 797 l 1,2,-1
 741 415 l 1,3,-1
 611 311 l 1,4,-1
 310 755 l 1,5,-1
 800 1199 l 1,0,-1
EndSplineSet
Validated: 1
EndChar

StartChar: guilsinglright
Encoding: 8250 8250 174
Width: 853
GlyphClass: 2
Flags: W
VStem: 321 542
DStem2: 321 374 374 311 0.740351 0.672221<0 504.034> 563 1199 433 1095 0.559857 -0.828589<13.3918 476.036>
LayerCount: 2
Fore
SplineSet
563 1199 m 1,0,-1
 863 755 l 1,1,-1
 374 311 l 1,2,-1
 321 374 l 1,3,-1
 694 713 l 1,4,-1
 433 1095 l 1,5,-1
 563 1199 l 1,0,-1
EndSplineSet
Validated: 1
EndChar

StartChar: fraction
Encoding: 8260 8260 175
Width: 889
GlyphClass: 2
Flags: W
HStem: -20 21G<104.462 156.109> 1510 20G<1052.9 1106.37>
DStem2: 20 45 142 -20 0.576446 0.817135<17.2126 1816.98>
LayerCount: 2
Fore
SplineSet
142 -20 m 1,0,-1
 20 45 l 1,1,-1
 1067 1530 l 1,2,-1
 1191 1467 l 1,3,-1
 142 -20 l 1,0,-1
EndSplineSet
Validated: 1
EndChar

StartChar: Euro
Encoding: 8364 8364 176
Width: 1743
GlyphClass: 2
Flags: W
HStem: -20 90<813.402 1236.88> 635 80<252 343 574 1259> 795 80<286 371 614 1293> 1450 80<1060.44 1460.5>
VStem: 339 222<332.541 635> 362 219.5<715.625 795> 394 220<875 986.552>
LayerCount: 2
Fore
SplineSet
950 -20 m 0,0,1
 598 -20 598 -20 436 218 c 0,2,3
 339 360 339 360 339 553 c 0,4,5
 339 593 339 593 343 635 c 1,6,-1
 235 635 l 1,7,-1
 252 715 l 1,8,-1
 354 715 l 1,9,10
 357 735 357 735 362 756 c 0,11,12
 366 776 366 776 371 795 c 1,13,-1
 269 795 l 1,14,-1
 286 875 l 1,15,-1
 394 875 l 1,16,17
 476 1122 476 1122 665 1292 c 0,18,19
 931 1530 931 1530 1279 1530 c 0,20,21
 1644 1530 1644 1530 1801 1278 c 1,22,-1
 1557 1080 l 1,23,-1
 1552 1086 l 1,24,25
 1574 1139 1574 1139 1581 1182 c 0,26,27
 1584 1203 1584 1203 1584 1222 c 0,28,29
 1584 1265 1584 1265 1568 1304 c 0,30,31
 1502 1450 1502 1450 1260 1450 c 0,32,33
 1012 1450 1012 1450 824 1240 c 0,34,35
 682 1082 682 1082 614 875 c 1,36,-1
 1310 875 l 1,37,-1
 1293 795 l 1,38,-1
 591 795 l 1,39,40
 586 775 586 775 581.5 755 c 128,-1,41
 577 735 577 735 574 715 c 1,42,-1
 1276 715 l 1,43,-1
 1259 635 l 1,44,-1
 564 635 l 1,45,46
 561 601 561 601 561 569 c 0,47,48
 561 418 561 418 623 294 c 0,49,50
 735 70 735 70 1046 70 c 0,51,52
 1334 70 1334 70 1655 325 c 1,53,-1
 1661 319 l 1,54,55
 1370 -20 1370 -20 950 -20 c 0,0,1
EndSplineSet
Validated: 1
EndChar

StartChar: afii61248
Encoding: 8453 8453 177
Width: 2008
GlyphClass: 2
Flags: W
HStem: -20 51<1376.93 1573.03> 715 50<1511.89 1707.37> 747 56<636.414 868.613> 1480 50<759.188 957.99>
VStem: 382 152<887.206 1246.35> 1134 149<109.169 475.959> 1800 149<270.445 637.505>
DStem2: 573 45 695 -20 0.576446 0.817135<17.2126 1816.98>
LayerCount: 2
Fore
SplineSet
695 -20 m 1,0,-1
 573 45 l 1,1,-1
 1620 1530 l 1,2,-1
 1744 1467 l 1,3,-1
 695 -20 l 1,0,-1
879 1530 m 0,4,5
 1070 1530 1070 1530 1153 1400 c 1,6,-1
 1010 1286 l 1,7,-1
 1003 1292 l 1,8,9
 1009 1305 1009 1305 1011 1319 c 0,10,11
 1013 1331 1013 1331 1013 1343 c 0,12,13
 1013 1380 1013 1380 996 1413 c 0,14,15
 961 1480 961 1480 860 1480 c 0,16,17
 753 1480 753 1480 664 1381 c 24,18,19
 574 1281 574 1281 544 1143 c 0,20,21
 534 1095 534 1095 534 1051 c 0,22,23
 534 971 534 971 568 905 c 0,24,25
 620 803 620 803 751 803 c 0,26,27
 925 803 925 803 1076 928 c 1,28,-1
 1083 922 l 1,29,30
 929 747 929 747 705 747 c 0,31,32
 510 747 510 747 430 869 c 0,33,34
 382 942 382 942 382 1040 c 0,35,36
 382 1088 382 1088 393 1141 c 0,37,38
 428 1307 428 1307 545 1410 c 0,39,40
 680 1530 680 1530 879 1530 c 0,4,5
1470 31 m 0,41,42
 1579 31 1579 31 1668 131 c 0,43,44
 1759 234 1759 234 1788 374 c 0,45,46
 1800 431 1800 431 1800 480 c 0,47,48
 1800 563 1800 563 1774 616 c 0,49,50
 1724 715 1724 715 1614 715 c 0,51,52
 1505 715 1505 715 1416 615 c 0,53,54
 1324 512 1324 512 1294 372 c 0,55,56
 1283 319 1283 319 1283 272 c 0,57,58
 1283 186 1283 186 1311 130 c 0,59,60
 1360 31 1360 31 1470 31 c 0,41,42
1457 -20 m 0,61,62
 1266 -20 1266 -20 1183 102 c 0,63,64
 1134 174 1134 174 1134 273 c 0,65,66
 1134 320 1134 320 1146 374 c 0,67,68
 1180 538 1180 538 1308 651.5 c 128,-1,69
 1436 765 1436 765 1627 765 c 0,70,71
 1819 765 1819 765 1901 643 c 0,72,73
 1949 572 1949 572 1949 475 c 0,74,75
 1949 427 1949 427 1937 372 c 0,76,77
 1902 208 1902 208 1786 102 c 0,78,79
 1650 -20 1650 -20 1457 -20 c 0,61,62
EndSplineSet
Validated: 1
EndChar

StartChar: afii61289
Encoding: 8467 8467 178
Width: 958
GlyphClass: 2
Flags: W
HStem: -20 136<493.285 609.793> 0 21G<50 267.222> 1510 20G<957 1028>
LayerCount: 2
Fore
SplineSet
486 466 m 1,0,1
 648 708 648 708 737 860 c 0,2,3
 896 1134 896 1134 944 1359 c 1,4,5
 826 1238 826 1238 730 1067 c 0,6,7
 544 740 544 740 486 466 c 1,0,1
50 0 m 1,8,9
 205 158 205 158 304 282 c 1,10,11
 310 366 310 366 326 443 c 0,12,13
 366 629 366 629 459 848 c 0,14,15
 633 1251 633 1251 822 1434 c 0,16,17
 920 1530 920 1530 994 1530 c 0,18,19
 1062 1530 1062 1530 1086 1479 c 0,20,21
 1099 1453 1099 1453 1099 1410 c 0,22,23
 1099 1371 1099 1371 1088 1318 c 0,24,25
 1068 1226 1068 1226 1006 1072 c 0,26,27
 862 722 862 722 480 271 c 1,28,29
 480 116 480 116 536 116 c 0,30,31
 560 116 560 116 593.5 145 c 128,-1,32
 627 174 627 174 664 228 c 1,33,-1
 840 228 l 1,34,35
 736 100 736 100 659 40 c 128,-1,36
 582 -20 582 -20 498 -20 c 0,37,38
 378 -20 378 -20 324 90 c 1,39,-1
 251 0 l 1,40,-1
 50 0 l 1,8,9
EndSplineSet
Validated: 1
EndChar

StartChar: trademark
Encoding: 8482 8482 179
Width: 1919
GlyphClass: 2
Flags: W
HStem: 785 10<1170 1183.45 1642 1649.19> 1430 120<429 451.007 949.452 978> 1499 51<451.007 637 777 949.452> 1540 10<1100 1112.4 1577 1590.4>
VStem: 404 10<1430 1438.36> 485 140<786 926> 968 10<1430 1451.68> 1850 141<929.755 1261.16>
DStem2: 484.787 785 624.787 785 0.207912 0.978148<30.13 730.044> 809 785 947 785 0.441103 0.897457<60.8722 782.998> 1487 1197 1488 927 0.440863 0.897574<0 325.912>
LayerCount: 2
Fore
SplineSet
1100 1550 m 1,0,-1
 1323 1550 l 1,1,-1
 947 785 l 1,2,-1
 809 785 l 1,3,-1
 1136 1450 l 2,4,5
 1143 1464 1143 1464 1147 1480 c 0,6,7
 1148 1486 1148 1486 1148 1491 c 0,8,9
 1148 1526 1148 1526 1098 1540 c 1,10,-1
 1100 1550 l 1,0,-1
1577 1550 m 1,11,-1
 1794 1550 l 1,12,-1
 1488 927 l 2,13,14
 1418 785 1418 785 1168 785 c 1,15,-1
 1170 795 l 1,16,17
 1326 843 1326 843 1362 1011 c 0,18,19
 1378 1087 1378 1087 1378 1162 c 0,20,21
 1378 1323 1378 1323 1304 1480 c 1,22,-1
 1313 1490 l 1,23,24
 1452 1357 1452 1357 1487 1197 c 1,25,-1
 1612 1450 l 2,26,27
 1619 1464 1619 1464 1623 1480 c 0,28,29
 1624 1487 1624 1487 1624 1493 c 0,30,31
 1624 1528 1624 1528 1575 1540 c 1,32,-1
 1577 1550 l 1,11,-1
1640 785 m 1,33,-1
 1642 795 l 1,34,35
 1799 845 1799 845 1834 1011 c 0,36,37
 1850 1087 1850 1087 1850 1162 c 0,38,39
 1850 1324 1850 1324 1775 1482 c 1,40,-1
 1785 1494 l 1,41,42
 1991 1270 1991 1270 1991 1081 c 0,43,44
 1991 1045 1991 1045 1984 1011 c 0,45,46
 1936 785 1936 785 1640 785 c 1,33,-1
429 1550 m 1,47,-1
 1003 1550 l 1,48,-1
 978 1430 l 1,49,-1
 968 1430 l 1,50,51
 960 1499 960 1499 879 1499 c 2,52,-1
 777 1499 l 1,53,-1
 625 786 l 1,54,-1
 485 786 l 1,55,-1
 637 1499 l 1,56,-1
 533 1499 l 2,57,58
 450 1499 450 1499 414 1430 c 1,59,-1
 404 1430 l 1,60,-1
 429 1550 l 1,47,-1
EndSplineSet
Validated: 1
EndChar

StartChar: uni2126
Encoding: 8486 8486 180
Width: 1906
GlyphClass: 2
Flags: W
HStem: 0 80<198.426 609 734.026 782 1331 1758.51> 1450 80<1059.53 1443.96>
VStem: 147 10<198.979 220> 338 220<317.615 837.84> 1669 220<671.941 1192.44> 1843 10<211.387 220>
LayerCount: 2
Fore
SplineSet
782 0 m 1,0,-1
 100 0 l 1,1,-1
 147 220 l 1,2,-1
 157 220 l 1,3,4
 174 80 174 80 307 80 c 2,5,-1
 609 80 l 1,6,7
 495 129 495 129 435 218 c 0,8,9
 338 361 338 361 338 555 c 0,10,11
 338 649 338 649 360 755 c 0,12,13
 430 1080 430 1080 664 1292 c 0,14,15
 928 1530 928 1530 1278.5 1530 c 128,-1,16
 1629 1530 1629 1530 1792 1292 c 0,17,18
 1889 1149 1889 1149 1889 956 c 0,19,20
 1889 862 1889 862 1866 755 c 0,21,22
 1796 428 1796 428 1563 218 c 24,23,24
 1471 135 1471 135 1331 80 c 1,25,-1
 1633 80 l 2,26,27
 1766 80 1766 80 1843 220 c 1,28,-1
 1853 220 l 1,29,-1
 1806 0 l 1,30,-1
 1124 0 l 1,31,-1
 1141 80 l 1,32,33
 1276 127 1276 127 1404 270 c 24,34,35
 1586 473 1586 473 1646 755 c 0,36,37
 1669 864 1669 864 1669 961 c 0,38,39
 1669 1115 1669 1115 1611 1240 c 0,40,41
 1512 1450 1512 1450 1261.5 1450 c 128,-1,42
 1011 1450 1011 1450 823 1240 c 0,43,44
 641 1037 641 1037 581 755 c 0,45,46
 558 646 558 646 558 549 c 0,47,48
 558 395 558 395 616 270 c 8,49,50
 682 130 682 130 799 80 c 1,51,-1
 782 0 l 1,0,-1
EndSplineSet
Validated: 1
EndChar

StartChar: estimated
Encoding: 8494 8494 181
Width: 1330
GlyphClass: 2
Flags: W
HStem: -20 92<474.816 877.904> 525 80<477 1112> 1036 84<679.003 1065.2>
LayerCount: 2
Fore
SplineSet
661 -20 m 0,0,1
 405 -20 405 -20 286 139 c 0,2,3
 201 252 201 252 201 407 c 0,4,5
 201 474 201 474 217 550 c 0,6,7
 268 788 268 788 451 952 c 24,8,9
 640 1120 640 1120 904 1120 c 0,10,11
 1153 1120 1153 1120 1269 964 c 272,12,13
 1359 843 1359 843 1359 677 c 0,14,15
 1359 605 1359 605 1342 525 c 1,16,-1
 460 525 l 1,17,-1
 389 192 l 1,18,19
 474 72 474 72 681 72 c 256,20,21
 804 72 804 72 908 132 c 0,22,23
 1001 186 1001 186 1068 266 c 1,24,-1
 1147 204 l 1,25,26
 1056 113 1056 113 961 61 c 0,27,28
 813 -20 813 -20 661 -20 c 0,0,1
477 605 m 1,29,-1
 1112 605 l 1,30,-1
 1175 903 l 1,31,32
 1072 1036 1072 1036 886 1036 c 0,33,34
 695 1036 695 1036 542 914 c 1,35,-1
 477 605 l 1,29,-1
EndSplineSet
Validated: 1
EndChar

StartChar: partialdiff
Encoding: 8706 8706 182
Width: 1285
GlyphClass: 2
Flags: W
HStem: -20 153<437.241 699.292> 870 170<722.652 999.301> 1378 152<776.721 1115.99>
VStem: 214 191<164.14 478.052> 1178 184<934.086 1313.68>
LayerCount: 2
Fore
SplineSet
508 -20 m 0,0,1
 214 -20 214 -20 214 240 c 0,2,3
 214 300 214 300 230 375 c 0,4,5
 284 631 284 631 459 815 c 0,6,7
 675 1040 675 1040 893 1040 c 0,8,9
 1080 1040 1080 1040 1150 930 c 1,10,11
 1178 1063 1178 1063 1178 1153 c 0,12,13
 1178 1202 1178 1202 1170 1239 c 0,14,15
 1139 1378 1139 1378 971 1378 c 0,16,17
 840 1378 840 1378 695 1294 c 1,18,-1
 732 1468 l 1,19,20
 879 1530 879 1530 1028 1530 c 0,21,22
 1362 1530 1362 1530 1362 1173 c 0,23,24
 1362 1069 1362 1069 1334 934 c 0,25,26
 1251 545 1251 545 1022.5 262.5 c 128,-1,27
 794 -20 794 -20 508 -20 c 0,0,1
553 133 m 0,28,29
 691 133 691 133 833 286 c 128,-1,30
 975 439 975 439 1065 680 c 1,31,32
 1061 765 1061 765 1008.5 817.5 c 128,-1,33
 956 870 956 870 880 870 c 0,34,35
 720 870 720 870 587.5 710 c 128,-1,36
 455 550 455 550 416 369 c 0,37,38
 405 319 405 319 405 280 c 0,39,40
 405 133 405 133 553 133 c 0,28,29
EndSplineSet
Validated: 1
EndChar

StartChar: uni2206
Encoding: 8710 8710 183
Width: 1424
GlyphClass: 2
Flags: W
HStem: 0 80<161 1200>
DStem2: 5 0 161 80 0.55717 0.830398<153.35 1541.5> 1055 1550 937 1231 0.228619 -0.973516<283.575 1464.22>
LayerCount: 2
Fore
SplineSet
5 0 m 1,0,-1
 1045 1550 l 1,1,-1
 1055 1550 l 1,2,-1
 1419 0 l 1,3,-1
 5 0 l 1,0,-1
161 80 m 1,4,-1
 1200 80 l 1,5,-1
 937 1231 l 1,6,-1
 161 80 l 1,4,-1
EndSplineSet
Validated: 1
EndChar

StartChar: product
Encoding: 8719 8719 184
Width: 1549
GlyphClass: 2
Flags: W
HStem: -410 10<1394.2 1402> 1430 80<704 1453> 1500 10<381 388.796>
VStem: 113 200<-410 -210>
DStem2: 113 -410 313 -410 0.207912 0.978148<41.5823 1812.17> 1062 -410 1261.61 -410 0.207912 0.978148<192.281 1881.09>
LayerCount: 2
Fore
SplineSet
113 -410 m 1,0,-1
 481 1320 l 2,1,2
 486 1344 486 1344 486 1364 c 0,3,4
 486 1461 486 1461 379 1500 c 1,5,-1
 381 1510 l 1,6,-1
 1670 1510 l 1,7,-1
 1302 -220 l 2,8,9
 1297 -244 1297 -244 1297 -264 c 0,10,11
 1297 -361 1297 -361 1404 -400 c 1,12,-1
 1402 -410 l 1,13,-1
 1062 -410 l 1,14,-1
 1453 1430 l 1,15,-1
 704 1430 l 1,16,-1
 313 -410 l 1,17,-1
 113 -410 l 1,0,-1
EndSplineSet
Validated: 1
EndChar

StartChar: summation
Encoding: 8721 8721 185
Width: 1324
GlyphClass: 2
Flags: W
HStem: -410 80<310 1039.51> 1430 80<646 1305.57>
VStem: 1124 10<-198.613 -190> 1347 10<1290 1311.02>
DStem2: 646 1430 421 1510 0.275387 -0.961333<0 852.463>
LayerCount: 2
Fore
SplineSet
51 -410 m 1,0,-1
 694 557 l 1,1,-1
 421 1510 l 1,2,-1
 1404 1510 l 1,3,-1
 1357 1290 l 1,4,-1
 1347 1290 l 1,5,6
 1330 1430 1330 1430 1197 1430 c 2,7,-1
 646 1430 l 1,8,-1
 911 539 l 1,9,-1
 310 -330 l 1,10,-1
 914 -330 l 2,11,12
 1047 -330 1047 -330 1124 -190 c 1,13,-1
 1134 -190 l 1,14,-1
 1087 -410 l 1,15,-1
 51 -410 l 1,0,-1
EndSplineSet
Validated: 1
EndChar

StartChar: minus
Encoding: 8722 8722 186
Width: 1133
GlyphClass: 2
Flags: W
HStem: 680 150<326 1128>
LayerCount: 2
Fore
SplineSet
326 830 m 1,0,-1
 1159 830 l 1,1,-1
 1128 680 l 1,2,-1
 295 680 l 1,3,-1
 326 830 l 1,0,-1
EndSplineSet
Validated: 1
EndChar

StartChar: uni2215
Encoding: 8725 8725 187
Width: 889
GlyphClass: 2
Flags: W
HStem: -20 21G<104.462 156.109> 1510 20G<1052.9 1106.37>
DStem2: 20 45 142 -20 0.576446 0.817135<17.2126 1816.98>
LayerCount: 2
Fore
SplineSet
142 -20 m 1,0,-1
 20 45 l 1,1,-1
 1067 1530 l 1,2,-1
 1191 1467 l 1,3,-1
 142 -20 l 1,0,-1
EndSplineSet
Validated: 1
EndChar

StartChar: uni2219
Encoding: 8729 8729 188
Width: 362
GlyphClass: 2
Flags: W
HStem: 623 264<261.398 418.602>
VStem: 206 267<676.518 831.67>
LayerCount: 2
Fore
SplineSet
312 623 m 128,-1,1
 258 623 258 623 228 661 c 0,2,3
 206 689 206 689 206 726 c 0,4,5
 206 740 206 740 210 755 c 0,6,7
 222 810 222 810 268 848.5 c 128,-1,8
 314 887 314 887 368 887 c 128,-1,9
 422 887 422 887 452 849 c 0,10,11
 473 821 473 821 473 785 c 0,12,13
 473 767 473 767 470 755 c 0,14,15
 458 700 458 700 412 661.5 c 128,-1,0
 366 623 366 623 312 623 c 128,-1,1
EndSplineSet
Validated: 1
EndChar

StartChar: radical
Encoding: 8730 8730 189
Width: 1234
GlyphClass: 2
Flags: W
HStem: 0 21G<433.399 470.217> 712 80<268 378> 1430 80<1261 1438>
DStem2: 549 792 378 712 0.0798009 -0.996811<66.0989 402.873> 576 390 459 0 0.48916 0.872194<0 1242.16>
LayerCount: 2
Fore
SplineSet
435 0 m 1,0,-1
 378 712 l 1,1,-1
 251 712 l 1,2,-1
 268 792 l 1,3,-1
 549 792 l 1,4,-1
 576 390 l 1,5,-1
 1198 1510 l 1,6,-1
 1455 1510 l 1,7,-1
 1438 1430 l 1,8,-1
 1261 1430 l 1,9,-1
 459 0 l 1,10,-1
 435 0 l 1,0,-1
EndSplineSet
Validated: 1
EndChar

StartChar: infinity
Encoding: 8734 8734 190
Width: 1386
GlyphClass: 2
Flags: W
HStem: 441 132<427.701 649.568> 441 72<935.254 1176.22> 937 132<1056.42 1279.3> 997 72<528.708 771.746>
VStem: 302 87<620.705 855.068> 1318 87<655.18 889.295>
DStem2: 743 719 881 667 0.556175 0.831065<-183.676 366.427>
LayerCount: 2
Fore
SplineSet
656 1069 m 0,0,1
 793 1069 793 1069 822 947 c 1,2,-1
 816 940 l 1,3,4
 746 997 746 997 653 997 c 128,-1,5
 560 997 560 997 486 929 c 0,6,7
 402 851 402 851 391 757 c 0,8,9
 389 740 389 740 389 724 c 0,10,11
 389 672 389 672 418 629 c 0,12,13
 456 573 456 573 530 573 c 0,14,15
 645 573 645 573 743 719 c 2,16,-1
 826 843 l 2,17,18
 977 1069 977 1069 1158 1069 c 0,19,20
 1293 1069 1293 1069 1357 985 c 0,21,22
 1405 922 1405 922 1405 834 c 0,23,24
 1405 796 1405 796 1396 753 c 0,25,26
 1368 620 1368 620 1260 525 c 0,27,28
 1163 441 1163 441 1051 441 c 0,29,30
 914 441 914 441 885 563 c 1,31,-1
 891 570 l 1,32,33
 961 513 961 513 1054 513 c 0,34,35
 1146 513 1146 513 1220 581 c 0,36,37
 1305 660 1305 660 1316 753 c 0,38,39
 1318 770 1318 770 1318 786 c 0,40,41
 1318 838 1318 838 1289 881 c 0,42,43
 1251 937 1251 937 1177 937 c 0,44,45
 1062 937 1062 937 968 797 c 2,46,-1
 881 667 l 2,47,48
 730 441 730 441 549 441 c 0,49,50
 414 441 414 441 350 525 c 0,51,52
 302 588 302 588 302 676 c 0,53,54
 302 714 302 714 311 757 c 0,55,56
 339 890 339 890 447 985 c 0,57,58
 544 1069 544 1069 656 1069 c 0,0,1
EndSplineSet
Validated: 1
EndChar

StartChar: approxequal
Encoding: 8776 8776 191
Width: 1183
GlyphClass: 2
Flags: W
HStem: 413 141<827.15 1015.91> 586 141<411.408 601.486> 773 141<903.15 1091.91> 946 141<487.408 677.486>
DStem2: 652 698 574 557 0.868777 -0.495203<-86.9014 320.559> 728 1058 650 917 0.868777 -0.495203<-86.9014 320.559>
LayerCount: 2
Fore
SplineSet
1102 728 m 1,0,-1
 1188 728 l 1,1,2
 1067 413 1067 413 894 413 c 0,3,4
 827 413 827 413 769 446 c 2,5,-1
 574 557 l 2,6,7
 523 586 523 586 487 586 c 0,8,9
 401 586 401 586 324 413 c 1,10,-1
 238 413 l 1,11,12
 359 727 359 727 538 727 c 0,13,14
 601 727 601 727 652 698 c 2,15,-1
 852 584 l 2,16,17
 905 554 905 554 940 554 c 0,18,19
 1025 554 1025 554 1102 728 c 1,0,-1
1178 1088 m 1,20,-1
 1264 1088 l 1,21,22
 1143 773 1143 773 970 773 c 0,23,24
 903 773 903 773 845 806 c 2,25,-1
 650 917 l 2,26,27
 599 946 599 946 563 946 c 0,28,29
 477 946 477 946 400 773 c 1,30,-1
 314 773 l 1,31,32
 435 1087 435 1087 614 1087 c 0,33,34
 677 1087 677 1087 728 1058 c 2,35,-1
 928 944 l 2,36,37
 981 914 981 914 1016 914 c 0,38,39
 1101 914 1101 914 1178 1088 c 1,20,-1
EndSplineSet
Validated: 1
EndChar

StartChar: notequal
Encoding: 8800 8800 192
Width: 1133
GlyphClass: 2
Flags: W
HStem: 500 150<288 479 572 598 690 1089> 860 150<365 764 856 882 975 1166>
DStem2: 309 284 370 244 0.619515 0.784985<6.39099 274.874 523.34 734.031 982.496 1250.98>
LayerCount: 2
Fore
SplineSet
365 1010 m 1,0,-1
 882 1010 l 1,1,-1
 1084 1266 l 1,2,-1
 1145 1226 l 1,3,-1
 975 1010 l 1,4,-1
 1198 1010 l 1,5,-1
 1166 860 l 1,6,-1
 856 860 l 1,7,-1
 690 650 l 1,8,-1
 1121 650 l 1,9,-1
 1089 500 l 1,10,-1
 572 500 l 1,11,-1
 370 244 l 1,12,-1
 309 284 l 1,13,-1
 479 500 l 1,14,-1
 256 500 l 1,15,-1
 288 650 l 1,16,-1
 598 650 l 1,17,-1
 764 860 l 1,18,-1
 333 860 l 1,19,-1
 365 1010 l 1,0,-1
EndSplineSet
Validated: 1
EndChar

StartChar: lessequal
Encoding: 8804 8804 193
Width: 1183
GlyphClass: 2
Flags: W
HStem: 154 150<215 1016>
DStem2: 454 918 322 808 0.821147 -0.570717<0 713.082> 354 958 454 918 0.889312 0.4573<70.6392 935.586>
LayerCount: 2
Fore
SplineSet
215 304 m 1,0,-1
 1048 304 l 1,1,-1
 1016 154 l 1,2,-1
 183 154 l 1,3,-1
 215 304 l 1,0,-1
354 958 m 1,4,-1
 1198 1392 l 1,5,-1
 1224 1312 l 1,6,-1
 454 918 l 1,7,-1
 1052 502 l 1,8,-1
 945 375 l 1,9,-1
 322 808 l 1,10,-1
 354 958 l 1,4,-1
EndSplineSet
Validated: 1
EndChar

StartChar: greaterequal
Encoding: 8805 8805 194
Width: 1183
GlyphClass: 2
Flags: W
HStem: 154 150<265 1066>
DStem2: 335 455 361 375 0.889312 0.4573<0 864.058> 614 1392 507 1265 0.821147 -0.570717<0 712.261>
LayerCount: 2
Fore
SplineSet
265 304 m 1,0,-1
 1098 304 l 1,1,-1
 1066 154 l 1,2,-1
 233 154 l 1,3,-1
 265 304 l 1,0,-1
1205 809 m 1,4,-1
 361 375 l 1,5,-1
 335 455 l 1,6,-1
 1104 849 l 1,7,-1
 507 1265 l 1,8,-1
 614 1392 l 1,9,-1
 1237 959 l 1,10,-1
 1205 809 l 1,4,-1
EndSplineSet
Validated: 1
EndChar

StartChar: lozenge
Encoding: 9674 9674 195
Width: 1134
GlyphClass: 2
Flags: W
HStem: -20 21G<554.926 579.531> 1510 20G<875.965 899.605>
DStem2: 257 738 417 820 0.625536 0.780196<164.062 755.18> 417 820 257 738 0.374342 -0.927291<16.1432 663.478> 661 203 563 -20 0.637091 0.770789<0 582.343> 892 1530 787 1281 0.355404 -0.934713<195.426 844.11>
LayerCount: 2
Fore
SplineSet
661 203 m 1,0,-1
 1027 656 l 1,1,-1
 787 1281 l 1,2,-1
 417 820 l 1,3,-1
 661 203 l 1,0,-1
563 -20 m 1,4,-1
 257 738 l 1,5,-1
 892 1530 l 1,6,-1
 1192 741 l 1,7,-1
 563 -20 l 1,4,-1
EndSplineSet
Validated: 1
EndChar

StartChar: AEacute
Encoding: 508 508 196
Width: 2493
Flags: W
HStem: -20 90<1610.27 2036.88> 0 10<943 953.653> 715 80<717 1225 1575 2146> 1450 80<1860.44 2260.75> 1490 20G<785 1176>
VStem: 5 200<0 200> 1378 213<358.073 764.741>
DStem2: 5 0 205 0 0.54087 0.841106<108.174 957.824 1053.78 1652.17>
LayerCount: 2
Fore
SplineSet
5 0 m 1,0,-1
 855 1322 l 2,1,2
 876 1355 876 1355 881 1380 c 0,3,4
 883 1390 883 1390 883 1400 c 0,5,6
 883 1464 883 1464 785 1500 c 1,7,-1
 787 1510 l 1,8,-1
 1176 1510 l 1,9,-1
 717 795 l 1,10,-1
 1242 795 l 1,11,-1
 1225 715 l 1,12,-1
 664 715 l 1,13,-1
 205 0 l 1,14,-1
 5 0 l 1,0,-1
1157 1386 m 1,15,-1
 1164 1394 l 1,16,17
 1271 1280 1271 1280 1352 1172 c 1,18,19
 1403 1236 1403 1236 1465 1292 c 0,20,21
 1731 1530 1731 1530 2079 1530 c 0,22,23
 2444 1530 2444 1530 2601 1278 c 1,24,-1
 2357 1080 l 1,25,-1
 2352 1086 l 1,26,27
 2374 1138 2374 1138 2381 1182 c 0,28,29
 2384 1202 2384 1202 2384 1222 c 0,30,31
 2384 1265 2384 1265 2368 1304 c 0,32,33
 2303 1450 2303 1450 2060 1450 c 0,34,35
 1812 1450 1812 1450 1624 1240 c 0,36,37
 1527 1132 1527 1132 1463 999 c 1,38,39
 1522 894 1522 894 1554 795 c 1,40,-1
 2163 795 l 1,41,-1
 2146 715 l 1,42,-1
 1575 715 l 1,43,44
 1591 640 1591 640 1591 568 c 0,45,46
 1591 503 1591 503 1578 440 c 0,47,48
 1549 305 1549 305 1478 212 c 1,49,50
 1600 70 1600 70 1846 70 c 0,51,52
 2134 70 2134 70 2455 325 c 1,53,-1
 2461 319 l 1,54,55
 2170 -20 2170 -20 1750 -20 c 0,56,57
 1504 -20 1504 -20 1350 96 c 1,58,59
 1195 0 1195 0 941 0 c 1,60,-1
 943 10 l 1,61,62
 1286 106 1286 106 1358 440 c 0,63,64
 1378 533 1378 533 1378 633 c 0,65,66
 1378 968 1378 968 1157 1386 c 1,15,-1
1919 1934 m 1,67,-1
 2020 1807 l 1,68,69
 1821 1737 1821 1737 1651 1560 c 1,70,-1
 1641 1560 l 1,71,72
 1712 1807 1712 1807 1919 1934 c 1,67,-1
EndSplineSet
Validated: 1
EndChar

StartChar: aeacute
Encoding: 509 509 197
Width: 1802
Flags: W
HStem: -20 80<1147.18 1467.79> 0 10<730.913 740> 515 70<1192 1520> 1030 70<765.28 1107> 1051 69<1326.37 1621.58> 1504 20G<1403.5 1522.91>
VStem: 202 203<241.834 646.712>
DStem2: 883.749 -20 1064.05 -20 0.207912 0.978148<175.331 584.279 655.868 1072.89>
LayerCount: 2
Fore
SplineSet
888 0 m 1,0,-1
 1107 1030 l 1,1,-1
 947 1030 l 2,2,3
 750 1030 750 1030 606 897 c 0,4,5
 463 765 463 765 417 550 c 0,6,7
 405 492 405 492 405 437 c 0,8,9
 405 315 405 315 466 210 c 0,10,11
 540 82 540 82 742 10 c 1,12,-1
 740 0 l 1,13,14
 448 0 448 0 311 140 c 0,15,16
 202 251 202 251 202 419 c 0,17,18
 202 481 202 481 217 550 c 0,19,20
 270 798 270 798 485 960 c 0,21,22
 670 1100 670 1100 942 1100 c 2,23,-1
 1332 1100 l 1,24,25
 1409 1120 1409 1120 1493 1120 c 0,26,27
 1751 1120 1751 1120 1867 926 c 1,28,-1
 1680 773 l 1,29,-1
 1675 779 l 1,30,31
 1694 815 1694 815 1699 846 c 0,32,33
 1702 864 1702 864 1702 880 c 0,34,35
 1702 906 1702 906 1695 928 c 0,36,37
 1653 1051 1653 1051 1478 1051 c 0,38,39
 1367 1051 1367 1051 1278 988 c 1,40,-1
 1192 585 l 1,41,-1
 1535 585 l 1,42,-1
 1520 515 l 1,43,-1
 1177 515 l 1,44,-1
 1097 135 l 17,45,46
 1179 60 1179 60 1312 60 c 0,47,48
 1528 60 1528 60 1742 224 c 1,49,-1
 1748 218 l 1,50,51
 1532 -20 1532 -20 1251 -20 c 0,52,53
 1167 -20 1167 -20 1098 0 c 1,54,-1
 888 0 l 1,0,-1
1507 1524 m 1,55,-1
 1608 1397 l 1,56,57
 1409 1327 1409 1327 1238 1150 c 1,58,-1
 1228 1150 l 1,59,60
 1300 1397 1300 1397 1507 1524 c 1,55,-1
EndSplineSet
Validated: 1
EndChar

StartChar: Oslashacute
Encoding: 510 510 198
Width: 1706
Flags: W
HStem: -20 80<678.295 1067.89> -5 21G<428.5 474.873> 1450 80<959.334 1348.71> 1495 20G<1552.13 1598.5>
VStem: 238 220<317.615 837.84> 1569 220<672.16 1192.39>
DStem2: 398 35 459 -5 0.62016 0.784476<6.45072 81.4218 236.291 1656.77 1811.64 1886.61>
LayerCount: 2
Fore
SplineSet
849 -20 m 0,0,1
 648 -20 648 -20 509 58 c 1,2,-1
 459 -5 l 1,3,-1
 398 35 l 1,4,-1
 448 98 l 1,5,6
 384 148 384 148 335 218 c 0,7,8
 238 361 238 361 238 555 c 0,9,10
 238 649 238 649 260 755 c 0,11,12
 330 1080 330 1080 564 1292 c 0,13,14
 828 1530 828 1530 1178 1530 c 0,15,16
 1379 1530 1379 1530 1518 1452 c 1,17,-1
 1568 1515 l 1,18,-1
 1629 1475 l 1,19,-1
 1579 1412 l 1,20,21
 1643 1362 1643 1362 1692 1292 c 0,22,23
 1789 1149 1789 1149 1789 955 c 0,24,25
 1788 861 1788 861 1766 755 c 0,26,27
 1696 430 1696 430 1463 218 c 0,28,29
 1200 -20 1200 -20 849 -20 c 0,0,1
866 60 m 0,30,31
 1116 60 1116 60 1304 270 c 0,32,33
 1486 473 1486 473 1546 755 c 0,34,35
 1569 864 1569 864 1569 961 c 0,36,37
 1569 1115 1569 1115 1511 1240 c 0,38,39
 1499 1267 1499 1267 1482 1290 c 1,40,-1
 591 162 l 1,41,42
 692 60 692 60 866 60 c 0,30,31
545 220 m 1,43,-1
 1436 1348 l 1,44,45
 1335 1450 1335 1450 1161 1450 c 0,46,47
 911 1450 911 1450 723 1240 c 0,48,49
 541 1037 541 1037 481 755 c 0,50,51
 458 646 458 646 458 549 c 0,52,53
 458 395 458 395 516 270 c 0,54,55
 530 243 530 243 545 220 c 1,43,-1
1455 1934 m 1,56,-1
 1556 1807 l 1,57,58
 1357 1737 1357 1737 1187 1560 c 1,59,-1
 1177 1560 l 1,60,61
 1248 1807 1248 1807 1455 1934 c 1,56,-1
EndSplineSet
Validated: 1
EndChar

StartChar: oslashacute
Encoding: 511 511 199
Width: 1276
Flags: W
HStem: -20 69<512.13 798.215> 1051 69<711.403 997.585> 1504 20G<1052.5 1171.91>
VStem: 201 195<200.522 640.984> 1114 195<459.016 899.309>
DStem2: 284 5 337 -30 0.620006 0.784597<5.39942 91.6364 229.268 1209.37 1347.62 1433.86>
LayerCount: 2
Fore
SplineSet
634 -20 m 0,0,1
 490 -20 490 -20 391 38 c 1,2,-1
 337 -30 l 1,3,-1
 284 5 l 1,4,-1
 339 75 l 1,5,6
 296 112 296 112 265 164 c 0,7,8
 201 269 201 269 201 406 c 0,9,10
 201 474 201 474 217 550 c 0,11,12
 265 778 265 778 429 936 c 0,13,14
 619 1120 619 1120 876 1120 c 0,15,16
 1020 1120 1020 1120 1119 1062 c 1,17,-1
 1173 1130 l 1,18,-1
 1226 1095 l 1,19,-1
 1171 1025 l 1,20,21
 1214 988 1214 988 1245 936 c 0,22,23
 1309 831 1309 831 1309 695 c 0,24,25
 1308 626 1308 626 1292 550 c 0,26,27
 1244 322 1244 322 1081 164 c 0,28,29
 891 -20 891 -20 634 -20 c 0,0,1
1083 915 m 1,30,-1
 461 126 l 1,31,32
 524 49 524 49 648 49 c 0,33,34
 819 49 819 49 936 194 c 0,35,36
 1046 330 1046 330 1093 550 c 0,37,38
 1114 648 1114 648 1114 732 c 0,39,40
 1114 834 1114 834 1083 915 c 1,30,-1
426 185 m 1,41,-1
 1049 974 l 1,42,43
 985 1051 985 1051 861 1051 c 0,44,45
 690 1051 690 1051 574 906 c 0,46,47
 464 770 464 770 417 550 c 0,48,49
 396 450 396 450 396 365 c 0,50,51
 396 264 396 264 426 185 c 1,41,-1
1156 1524 m 1,52,-1
 1257 1397 l 1,53,54
 1058 1327 1058 1327 887 1150 c 1,55,-1
 877 1150 l 1,56,57
 949 1397 949 1397 1156 1524 c 1,52,-1
EndSplineSet
Validated: 1
EndChar

StartChar: uni1E02
Encoding: 7682 7682 200
Width: 1318
Flags: W
HStem: 0 10<582 596.575> 1430 80<704 999.285> 1500 10<381 388.796> 1610 264<841.398 998.602>
VStem: 200 200<0 200> 787 266<1663.52 1820.48> 1063 175<1158.53 1375.48> 1119 222<418.719 790.648>
DStem2: 200 0 400 0 0.207912 0.978148<41.5823 1393.04>
LayerCount: 2
Fore
SplineSet
948 1874 m 128,-1,1
 1002 1874 1002 1874 1032 1836 c 0,2,3
 1053 1808 1053 1808 1053 1772 c 0,4,5
 1053 1758 1053 1758 1050 1742 c 0,6,7
 1038 1687 1038 1687 992 1648.5 c 128,-1,8
 946 1610 946 1610 892 1610 c 128,-1,9
 838 1610 838 1610 808 1648 c 0,10,11
 787 1676 787 1676 787 1712 c 0,12,13
 787 1726 787 1726 790 1742 c 0,14,15
 802 1797 802 1797 848 1835.5 c 128,-1,0
 894 1874 894 1874 948 1874 c 128,-1,1
200 0 m 1,16,-1
 481 1320 l 2,17,18
 486 1344 486 1344 486 1364 c 0,19,20
 486 1461 486 1461 379 1500 c 1,21,-1
 381 1510 l 1,22,-1
 902 1510 l 2,23,24
 1100 1510 1100 1510 1186 1425 c 0,25,26
 1238 1373 1238 1373 1238 1300 c 0,27,28
 1238 1276 1238 1276 1232 1249 c 0,29,30
 1214 1162 1214 1162 1139 1097 c 0,31,32
 1039 1010 1039 1010 890 986 c 1,33,34
 1171 986 1171 986 1277 846 c 0,35,36
 1341 761 1341 761 1341 638 c 0,37,38
 1341 580 1341 580 1327 514 c 0,39,40
 1282 303 1282 303 1096 158 c 0,41,42
 892 0 892 0 580 0 c 1,43,-1
 582 10 l 1,44,45
 817 70 817 70 937 192 c 0,46,47
 1067 326 1067 326 1107 514 c 0,48,49
 1119 572 1119 572 1119 624 c 0,50,51
 1119 710 1119 710 1085 776 c 0,52,53
 1001 936 1001 936 736 936 c 1,54,-1
 753 1016 l 1,55,56
 875 1016 875 1016 969 1089 c 0,57,58
 1038 1143 1038 1143 1058 1232 c 0,59,60
 1063 1255 1063 1255 1063 1276 c 0,61,62
 1063 1338 1063 1338 1018 1377 c 0,63,64
 958 1430 958 1430 840 1430 c 2,65,-1
 704 1430 l 1,66,-1
 400 0 l 1,67,-1
 200 0 l 1,16,-1
EndSplineSet
Validated: 1
EndChar

StartChar: uni1E03
Encoding: 7683 7683 201
Width: 1268
Flags: W
HStem: 0 70<395 736.72> 1090 10<762 771.087> 1200 264<878.398 1035.6> 1500 10<381 388.796>
VStem: 824 266<1253.52 1410.48> 1097 203<453.288 858.166>
DStem2: 200 0 380.121 0 0.207912 0.978148<109.013 1393.04>
LayerCount: 2
Fore
SplineSet
985 1464 m 128,-1,1
 1039 1464 1039 1464 1069 1426 c 0,2,3
 1090 1398 1090 1398 1090 1362 c 0,4,5
 1090 1348 1090 1348 1087 1332 c 0,6,7
 1075 1277 1075 1277 1029 1238.5 c 128,-1,8
 983 1200 983 1200 929 1200 c 128,-1,9
 875 1200 875 1200 845 1238 c 0,10,11
 824 1266 824 1266 824 1302 c 0,12,13
 824 1316 824 1316 827 1332 c 0,14,15
 839 1387 839 1387 885 1425.5 c 128,-1,0
 931 1464 931 1464 985 1464 c 128,-1,1
200 0 m 1,16,-1
 481 1320 l 2,17,18
 486 1344 486 1344 486 1364 c 0,19,20
 486 1461 486 1461 379 1500 c 1,21,-1
 381 1510 l 1,22,-1
 701 1510 l 1,23,-1
 395 70 l 1,24,-1
 555 70 l 2,25,26
 752 70 752 70 896 203 c 0,27,28
 1039 335 1039 335 1085 550 c 0,29,30
 1097 608 1097 608 1097 663 c 0,31,32
 1097 785 1097 785 1036 890 c 0,33,34
 962 1018 962 1018 760 1090 c 9,35,-1
 762 1100 l 17,36,37
 1054 1100 1054 1100 1191 960 c 0,38,39
 1300 849 1300 849 1300 681 c 0,40,41
 1300 619 1300 619 1285 550 c 0,42,43
 1232 302 1232 302 1017 140 c 0,44,45
 832 0 832 0 560 0 c 2,46,-1
 200 0 l 1,16,-1
EndSplineSet
Validated: 1
EndChar

StartChar: uni1E0A
Encoding: 7690 7690 202
Width: 1586
Flags: W
HStem: 0 10<582 594.858> 1430 80<704 1190.4> 1500 10<381 388.796> 1610 264<978.398 1135.6>
VStem: 200 200<0 200> 924 266<1663.52 1820.48> 1449 219<676.549 1183>
DStem2: 200 0 400 0 0.207912 0.978148<41.5823 1393.04>
LayerCount: 2
Fore
SplineSet
1085 1874 m 128,-1,1
 1139 1874 1139 1874 1169 1836 c 0,2,3
 1190 1808 1190 1808 1190 1772 c 0,4,5
 1190 1758 1190 1758 1187 1742 c 0,6,7
 1175 1687 1175 1687 1129 1648.5 c 128,-1,8
 1083 1610 1083 1610 1029 1610 c 128,-1,9
 975 1610 975 1610 945 1648 c 0,10,11
 924 1676 924 1676 924 1712 c 0,12,13
 924 1726 924 1726 927 1742 c 0,14,15
 939 1797 939 1797 985 1835.5 c 128,-1,0
 1031 1874 1031 1874 1085 1874 c 128,-1,1
200 0 m 1,16,-1
 481 1320 l 2,17,18
 486 1344 486 1344 486 1364 c 0,19,20
 486 1461 486 1461 379 1500 c 1,21,-1
 381 1510 l 1,22,-1
 1037 1510 l 2,23,24
 1424 1510 1424 1510 1579 1273 c 0,25,26
 1668 1135 1668 1135 1668 951 c 0,27,28
 1668 859 1668 859 1646 755 c 0,29,30
 1585 467 1585 467 1337 248 c 0,31,32
 1057 0 1057 0 580 0 c 1,33,-1
 582 10 l 1,34,35
 988 86 988 86 1186 301 c 0,36,37
 1373 504 1373 504 1426 755 c 0,38,39
 1449 863 1449 863 1449 955 c 0,40,41
 1449 1127 1449 1127 1370 1247 c 0,42,43
 1249 1430 1249 1430 970 1430 c 2,44,-1
 704 1430 l 1,45,-1
 400 0 l 1,46,-1
 200 0 l 1,16,-1
EndSplineSet
Validated: 1
EndChar

StartChar: uni1E0B
Encoding: 7691 7691 203
Width: 1268
Flags: W
HStem: 0 70<573.872 903> 0 10<1200.2 1208> 1090 10<964.898 972> 1200 264<778.398 935.602> 1500 10<1069 1076.8>
VStem: 203 198<231.178 642.387> 724 266<1253.52 1410.48>
DStem2: 888.121 0 1067.61 0 0.207912 0.978148<188.098 1393.02>
LayerCount: 2
Fore
SplineSet
885 1464 m 128,-1,1
 939 1464 939 1464 969 1426 c 0,2,3
 990 1398 990 1398 990 1362 c 0,4,5
 990 1348 990 1348 987 1332 c 0,6,7
 975 1277 975 1277 929 1238.5 c 128,-1,8
 883 1200 883 1200 829 1200 c 128,-1,9
 775 1200 775 1200 745 1238 c 0,10,11
 724 1266 724 1266 724 1302 c 0,12,13
 724 1316 724 1316 727 1332 c 0,14,15
 739 1387 739 1387 785 1425.5 c 128,-1,0
 831 1464 831 1464 885 1464 c 128,-1,1
1208 0 m 1,16,-1
 708 0 l 2,17,18
 436 0 436 0 311 140 c 0,19,20
 203 259 203 259 203 425 c 0,21,22
 203 485 203 485 217 550 c 0,23,24
 272 808 272 808 485 960 c 0,25,26
 682 1100 682 1100 974 1100 c 9,27,-1
 972 1090 l 17,28,29
 739 1018 739 1018 610 890 c 0,30,31
 457 738 457 738 417 550 c 0,32,33
 401 476 401 476 401 411 c 0,34,35
 401 289 401 289 458 203 c 0,36,37
 546 70 546 70 743 70 c 2,38,-1
 903 70 l 1,39,-1
 1169 1320 l 2,40,41
 1174 1344 1174 1344 1174 1364 c 0,42,43
 1174 1461 1174 1461 1067 1500 c 1,44,-1
 1069 1510 l 1,45,-1
 1389 1510 l 1,46,-1
 1108 190 l 2,47,48
 1103 166 1103 166 1103 146 c 0,49,50
 1103 49 1103 49 1210 10 c 1,51,-1
 1208 0 l 1,16,-1
EndSplineSet
Validated: 1
EndChar

StartChar: uni1E1E
Encoding: 7710 7710 204
Width: 998
Flags: W
HStem: 0 21G<200 404.252> 715 80<569 944> 1430 80<704 1200.57> 1500 10<381 388.796> 1610 264<841.398 998.602>
VStem: 200 200<0 200> 787 266<1663.52 1820.48> 1242 10<1290 1311.02>
DStem2: 200 0 400 0 0.207912 0.978148<41.5823 772.56 854.347 1393.04>
LayerCount: 2
Fore
SplineSet
948 1874 m 128,-1,1
 1002 1874 1002 1874 1032 1836 c 0,2,3
 1053 1808 1053 1808 1053 1772 c 0,4,5
 1053 1758 1053 1758 1050 1742 c 0,6,7
 1038 1687 1038 1687 992 1648.5 c 128,-1,8
 946 1610 946 1610 892 1610 c 128,-1,9
 838 1610 838 1610 808 1648 c 0,10,11
 787 1676 787 1676 787 1712 c 0,12,13
 787 1726 787 1726 790 1742 c 0,14,15
 802 1797 802 1797 848 1835.5 c 128,-1,0
 894 1874 894 1874 948 1874 c 128,-1,1
200 0 m 1,16,-1
 481 1320 l 2,17,18
 486 1344 486 1344 486 1364 c 0,19,20
 486 1461 486 1461 379 1500 c 1,21,-1
 381 1510 l 1,22,-1
 1299 1510 l 17,23,-1
 1252 1290 l 1,24,-1
 1242 1290 l 1,25,26
 1225 1430 1225 1430 1092 1430 c 2,27,-1
 704 1430 l 1,28,-1
 569 795 l 1,29,-1
 961 795 l 1,30,-1
 944 715 l 1,31,-1
 552 715 l 1,32,-1
 400 0 l 1,33,-1
 200 0 l 1,16,-1
EndSplineSet
Validated: 1
EndChar

StartChar: uni1E1F
Encoding: 7711 7711 205
Width: 1163
Flags: W
HStem: 0 21G<200 384.261> 690 70<542 1019> 1461 69<894.191 1190.69> 1610 264<921.398 1078.6>
VStem: 200 180<0 180> 867 266<1663.52 1820.48>
DStem2: 200 0 380 0 0.207912 0.978148<37.4241 742.909 814.498 1242.48>
LayerCount: 2
Fore
SplineSet
1028 1874 m 128,-1,1
 1082 1874 1082 1874 1112 1836 c 0,2,3
 1133 1808 1133 1808 1133 1772 c 0,4,5
 1133 1758 1133 1758 1130 1742 c 0,6,7
 1118 1687 1118 1687 1072 1648.5 c 128,-1,8
 1026 1610 1026 1610 972 1610 c 128,-1,9
 918 1610 918 1610 888 1648 c 0,10,11
 867 1676 867 1676 867 1712 c 0,12,13
 867 1726 867 1726 870 1742 c 0,14,15
 882 1797 882 1797 928 1835.5 c 128,-1,0
 974 1874 974 1874 1028 1874 c 128,-1,1
200 0 m 1,16,-1
 404 960 l 2,17,18
 452 1188 452 1188 616 1346 c 0,19,20
 808 1530 808 1530 1063 1530 c 0,21,22
 1321 1530 1321 1530 1437 1336 c 1,23,-1
 1250 1183 l 1,24,-1
 1245 1189 l 1,25,26
 1262 1221 1262 1221 1269 1256 c 0,27,28
 1272 1274 1272 1274 1272 1291 c 0,29,30
 1272 1316 1272 1316 1265 1338 c 0,31,32
 1219 1461 1219 1461 1049 1461 c 0,33,34
 882 1461 882 1461 760 1329 c 0,35,36
 633 1192 633 1192 584 960 c 2,37,-1
 542 760 l 1,38,-1
 1034 760 l 1,39,-1
 1019 690 l 1,40,-1
 527 690 l 1,41,-1
 380 0 l 1,42,-1
 200 0 l 1,16,-1
EndSplineSet
Validated: 1
EndChar

StartChar: uni1E40
Encoding: 7744 7744 206
Width: 2277
Flags: W
HStem: 0 10<723 732.722 1666 1675.72> 1490 20G<582 944 1535 1887> 1610 264<1259.4 1416.6>
VStem: 1205 266<1663.52 1820.48> 2075 212<371.86 843.093>
DStem2: 5 0 201 0 0.4415 0.897261<86.534 1553.9> 1301 695 1279 274 0.441396 0.897312<0 778.868>
LayerCount: 2
Fore
SplineSet
1366 1874 m 128,-1,1
 1420 1874 1420 1874 1450 1836 c 0,2,3
 1471 1808 1471 1808 1471 1772 c 0,4,5
 1471 1758 1471 1758 1468 1742 c 0,6,7
 1456 1687 1456 1687 1410 1648.5 c 128,-1,8
 1364 1610 1364 1610 1310 1610 c 128,-1,9
 1256 1610 1256 1610 1226 1648 c 0,10,11
 1205 1676 1205 1676 1205 1712 c 0,12,13
 1205 1726 1205 1726 1208 1742 c 0,14,15
 1220 1797 1220 1797 1266 1835.5 c 128,-1,0
 1312 1874 1312 1874 1366 1874 c 128,-1,1
721 0 m 1,16,-1
 723 10 l 1,17,18
 1036 106 1036 106 1108 440 c 0,19,20
 1132 552 1132 552 1132 670 c 0,21,22
 1132 1006 1132 1006 937 1386 c 1,23,-1
 944 1394 l 1,24,25
 1241 1117 1241 1117 1301 695 c 1,26,-1
 1610 1322 l 2,27,28
 1626 1354 1626 1354 1631 1380 c 0,29,30
 1633 1390 1633 1390 1633 1400 c 0,31,32
 1633 1464 1633 1464 1535 1500 c 1,33,-1
 1537 1510 l 1,34,-1
 1887 1510 l 1,35,-1
 1279 274 l 2,36,37
 1145 1 1145 1 721 0 c 1,16,-1
1664 0 m 1,38,-1
 1666 10 l 1,39,40
 1979 106 1979 106 2051 440 c 0,41,42
 2075 552 2075 552 2075 670 c 0,43,44
 2075 1006 2075 1006 1880 1386 c 1,45,-1
 1887 1394 l 1,46,47
 2287 973 2287 973 2287 590 c 0,48,49
 2287 514 2287 514 2271 440 c 0,50,51
 2177 0 2177 0 1664 0 c 1,38,-1
5 0 m 1,52,-1
 657 1322 l 2,53,54
 673 1354 673 1354 678 1380 c 0,55,56
 680 1390 680 1390 680 1400 c 0,57,58
 680 1464 680 1464 582 1500 c 1,59,-1
 584 1510 l 1,60,-1
 944 1510 l 1,61,-1
 201 0 l 1,62,-1
 5 0 l 1,52,-1
EndSplineSet
Validated: 1
EndChar

StartChar: uni1E41
Encoding: 7745 7745 207
Width: 1745
Flags: W
HStem: 0 21G<200 384.252 787 971.259 1181 1282.5> 1030 70<599 1405.13> 1090 10<294 304.836> 1200 264<1084.4 1241.6>
VStem: 200 180<0 180> 787 180<0 180> 968 180<670 850> 1030 266<1253.52 1410.48> 1578 198<450.858 866.861>
DStem2: 195.749 -20 375.749 -20 0.207912 0.978148<57.8709 995.101> 782.749 -20 962.749 -20 0.207912 0.978148<57.8709 889.504>
LayerCount: 2
Fore
SplineSet
1191 1464 m 128,-1,1
 1245 1464 1245 1464 1275 1426 c 0,2,3
 1296 1398 1296 1398 1296 1362 c 0,4,5
 1296 1348 1296 1348 1293 1332 c 0,6,7
 1281 1277 1281 1277 1235 1238.5 c 128,-1,8
 1189 1200 1189 1200 1135 1200 c 128,-1,9
 1081 1200 1081 1200 1051 1238 c 0,10,11
 1030 1266 1030 1266 1030 1302 c 0,12,13
 1030 1316 1030 1316 1033 1332 c 0,14,15
 1045 1387 1045 1387 1091 1425.5 c 128,-1,0
 1137 1464 1137 1464 1191 1464 c 128,-1,1
200 0 m 1,16,-1
 393 910 l 2,17,18
 398 934 398 934 398 955 c 0,19,20
 398 1052 398 1052 292 1090 c 1,21,-1
 294 1100 l 1,22,-1
 1271 1100 l 2,23,24
 1543 1100 1543 1100 1668 960 c 0,25,26
 1776 839 1776 839 1776 674 c 0,27,28
 1776 615 1776 615 1762 550 c 0,29,30
 1712 317 1712 317 1511 150 c 0,31,32
 1374 36 1374 36 1191 -20 c 1,33,-1
 1181 -20 l 1,34,35
 1354 118 1354 118 1450 273 c 0,36,37
 1530 402 1530 402 1562 550 c 0,38,39
 1578 624 1578 624 1578 689 c 0,40,41
 1578 811 1578 811 1521 897 c 0,42,43
 1434 1030 1434 1030 1236 1030 c 2,44,-1
 599 1030 l 1,45,-1
 380 0 l 1,46,-1
 200 0 l 1,16,-1
787 0 m 1,47,-1
 968 850 l 1,48,-1
 1148 850 l 1,49,-1
 967 0 l 1,50,-1
 787 0 l 1,47,-1
EndSplineSet
Validated: 1
EndChar

StartChar: uni1E56
Encoding: 7766 7766 208
Width: 1324
Flags: W
HStem: 0 21G<200 404.252> 360 10<653 661.965> 1430 80<704 1046.79> 1500 10<381 388.796> 1610 264<885.398 1042.6>
VStem: 200 200<0 200> 831 266<1663.52 1820.48> 1223 218<848.403 1271.96>
DStem2: 200 0 400 0 0.207912 0.978148<41.5823 1393.04>
LayerCount: 2
Fore
SplineSet
992 1874 m 128,-1,1
 1046 1874 1046 1874 1076 1836 c 0,2,3
 1097 1808 1097 1808 1097 1772 c 0,4,5
 1097 1758 1097 1758 1094 1742 c 0,6,7
 1082 1687 1082 1687 1036 1648.5 c 128,-1,8
 990 1610 990 1610 936 1610 c 128,-1,9
 882 1610 882 1610 852 1648 c 0,10,11
 831 1676 831 1676 831 1712 c 0,12,13
 831 1726 831 1726 834 1742 c 0,14,15
 846 1797 846 1797 892 1835.5 c 128,-1,0
 938 1874 938 1874 992 1874 c 128,-1,1
200 0 m 1,16,-1
 481 1320 l 2,17,18
 486 1344 486 1344 486 1364 c 0,19,20
 486 1461 486 1461 379 1500 c 1,21,-1
 381 1510 l 1,22,-1
 956 1510 l 2,23,24
 1210 1510 1210 1510 1337 1366 c 0,25,26
 1441 1248 1441 1248 1441 1083 c 0,27,28
 1441 1022 1441 1022 1427 954 c 0,29,30
 1380 733 1380 733 1213 568 c 0,31,32
 1003 360 1003 360 651 360 c 1,33,-1
 653 370 l 1,34,35
 871 428 871 428 1026 586 c 0,36,37
 1157 720 1157 720 1207 954 c 0,38,39
 1223 1030 1223 1030 1223 1093 c 0,40,41
 1223 1196 1223 1196 1181 1268 c 0,42,43
 1085 1430 1085 1430 858 1430 c 2,44,-1
 704 1430 l 1,45,-1
 400 0 l 1,46,-1
 200 0 l 1,16,-1
EndSplineSet
Validated: 1
EndChar

StartChar: uni1E57
Encoding: 7767 7767 209
Width: 1268
Flags: W
HStem: -410 21G<113 297.25> 0 10<530 537.102> 1030 70<599 928.128> 1090 10<294 304.836> 1200 264<789.398 946.602>
VStem: 113 180<-410 -230> 735 266<1253.52 1410.48> 1101 198<457.613 868.822>
DStem2: 113 -410 293 -410 0.207912 0.978148<37.4241 1393.78>
LayerCount: 2
Fore
SplineSet
896 1464 m 128,-1,1
 950 1464 950 1464 980 1426 c 0,2,3
 1001 1398 1001 1398 1001 1362 c 0,4,5
 1001 1348 1001 1348 998 1332 c 0,6,7
 986 1277 986 1277 940 1238.5 c 128,-1,8
 894 1200 894 1200 840 1200 c 128,-1,9
 786 1200 786 1200 756 1238 c 0,10,11
 735 1266 735 1266 735 1302 c 0,12,13
 735 1316 735 1316 738 1332 c 0,14,15
 750 1387 750 1387 796 1425.5 c 128,-1,0
 842 1464 842 1464 896 1464 c 128,-1,1
113 -410 m 25,16,-1
 393 910 l 2,17,18
 398 934 398 934 398 955 c 0,19,20
 398 1052 398 1052 292 1090 c 1,21,-1
 294 1100 l 1,22,-1
 794 1100 l 2,23,24
 1066 1100 1066 1100 1191 960 c 0,25,26
 1299 841 1299 841 1299 675 c 0,27,28
 1299 615 1299 615 1285 550 c 0,29,30
 1230 292 1230 292 1017 140 c 0,31,32
 820 0 820 0 528 0 c 9,33,-1
 530 10 l 17,34,35
 763 82 763 82 892 210 c 0,36,37
 1045 362 1045 362 1085 550 c 0,38,39
 1101 624 1101 624 1101 689 c 0,40,41
 1101 811 1101 811 1044 897 c 0,42,43
 956 1030 956 1030 759 1030 c 2,44,-1
 599 1030 l 1,45,-1
 293 -410 l 1,46,-1
 113 -410 l 25,16,-1
EndSplineSet
Validated: 1
EndChar

StartChar: uni1E60
Encoding: 7776 7776 210
Width: 1269
Flags: W
HStem: -20 80<468.263 810.212> 1450 80<832.743 1078.95> 1610 264<955.398 1112.6>
VStem: 540 177<1112.32 1309> 901 266<1663.52 1820.48> 1099 207<394.486 674.731>
DStem2: 864 1034 749 868 0.889337 -0.457253<-170.069 350.754>
LayerCount: 2
Fore
SplineSet
1062 1874 m 128,-1,1
 1116 1874 1116 1874 1146 1836 c 0,2,3
 1167 1808 1167 1808 1167 1772 c 0,4,5
 1167 1758 1167 1758 1164 1742 c 0,6,7
 1152 1687 1152 1687 1106 1648.5 c 128,-1,8
 1060 1610 1060 1610 1006 1610 c 128,-1,9
 952 1610 952 1610 922 1648 c 0,10,11
 901 1676 901 1676 901 1712 c 0,12,13
 901 1726 901 1726 904 1742 c 0,14,15
 916 1797 916 1797 962 1835.5 c 128,-1,0
 1008 1874 1008 1874 1062 1874 c 128,-1,1
607 -20 m 0,16,17
 368 -20 368 -20 258 112 c 0,18,19
 185 200 185 200 155 354 c 1,20,-1
 415 565 l 1,21,-1
 421 559 l 1,22,23
 373 457 373 457 362 381 c 0,24,25
 357 345 357 345 357 313 c 0,26,27
 357 241 357 241 383 190 c 0,28,29
 450 60 450 60 627 60 c 0,30,31
 808 60 808 60 940 189 c 0,32,33
 1055 301 1055 301 1088 446 c 0,34,35
 1099 493 1099 493 1099 535 c 0,36,37
 1099 684 1099 684 945 765 c 2,38,-1
 749 868 l 2,39,40
 540 978 540 978 540 1149 c 0,41,42
 540 1179 540 1179 547 1210 c 0,43,44
 577 1351 577 1351 704 1444 c 0,45,46
 821 1530 821 1530 986 1530 c 0,47,48
 1155 1530 1155 1530 1227 1438 c 0,49,50
 1264 1391 1264 1391 1278 1322 c 1,51,-1
 1091 1169 l 1,52,-1
 1086 1175 l 1,53,54
 1103 1207 1103 1207 1110 1242 c 0,55,56
 1117 1273 1117 1273 1117 1301 c 0,57,58
 1117 1333 1117 1333 1108 1361 c 0,59,60
 1081 1450 1081 1450 975 1450 c 0,61,62
 880 1450 880 1450 810 1395 c 0,63,64
 743 1342 743 1342 722 1255 c 0,65,66
 717 1234 717 1234 717 1214 c 0,67,68
 717 1110 717 1110 864 1034 c 2,69,-1
 1076 925 l 2,70,71
 1306 807 1306 807 1306 592 c 0,72,73
 1306 547 1306 547 1295 498 c 0,74,75
 1250 287 1250 287 1051 135 c 0,76,77
 847 -20 847 -20 607 -20 c 0,16,17
EndSplineSet
Validated: 1
EndChar

StartChar: uni1E61
Encoding: 7777 7777 211
Width: 964
Flags: W
HStem: -20 69<351.13 603.488> 1051 69<616.083 806.646> 1200 264<713.398 870.602>
VStem: 397 150<794.86 961.631> 659 266<1253.52 1410.48> 793 177<266.475 487.171>
DStem2: 812 662 535 618 0.87119 -0.490947<-324.899 93.1298>
LayerCount: 2
Fore
SplineSet
820 1464 m 128,-1,1
 874 1464 874 1464 904 1426 c 0,2,3
 925 1398 925 1398 925 1362 c 0,4,5
 925 1348 925 1348 922 1332 c 0,6,7
 910 1277 910 1277 864 1238.5 c 128,-1,8
 818 1200 818 1200 764 1200 c 128,-1,9
 710 1200 710 1200 680 1238 c 0,10,11
 659 1266 659 1266 659 1302 c 0,12,13
 659 1316 659 1316 662 1332 c 0,14,15
 674 1387 674 1387 720 1425.5 c 128,-1,0
 766 1464 766 1464 820 1464 c 128,-1,1
448 -20 m 0,16,17
 328 -20 328 -20 249 34 c 0,18,19
 157 98 157 98 126 218 c 1,20,-1
 313 371 l 1,21,-1
 319 365 l 1,22,23
 302 333 302 333 294 298 c 128,-1,24
 286 263 286 263 286 232 c 0,25,26
 286 194 286 194 298 161 c 0,27,28
 337 49 337 49 464 49 c 0,29,30
 593 49 593 49 691 148 c 0,31,32
 762 220 762 220 785 317 c 0,33,34
 793 349 793 349 793 376 c 0,35,36
 793 471 793 471 703 522 c 2,37,-1
 535 618 l 2,38,39
 397 697 397 697 397 817 c 0,40,41
 397 841 397 841 402 866 c 0,42,43
 426 979 426 979 536 1059 c 0,44,45
 620 1120 620 1120 744 1120 c 0,46,47
 863 1120 863 1120 918 1054 c 0,48,49
 950 1016 950 1016 961 964 c 1,50,-1
 806 838 l 1,51,-1
 800 844 l 1,52,53
 817 876 817 876 825 911 c 0,54,55
 829 931 829 931 829 948 c 0,56,57
 829 972 829 972 821 993 c 0,58,59
 798 1051 798 1051 724 1051 c 0,60,61
 660 1051 660 1051 615 1017 c 0,62,63
 566 980 566 980 551 917 c 0,64,65
 547 900 547 900 547 884 c 0,66,67
 547 812 547 812 631 764 c 2,68,-1
 812 662 l 2,69,70
 970 573 970 573 970 431 c 0,71,72
 970 401 970 401 963 370 c 0,73,74
 927 200 927 200 756 79 c 24,75,76
 616 -20 616 -20 448 -20 c 0,16,17
EndSplineSet
Validated: 1
EndChar

